<svg id="图层_1" data-name="图层 1" xmlns="http://www.w3.org/2000/svg" viewBox="0 0 1024 1024"><title>ps</title><path d="M186.9,64c-18.4,0-33.4,14.7-33.4,32.6V927.4c0,17.9,15,32.6,33.4,32.6H837.1c18.4,0,33.4-14.7,33.4-32.6V259.5L669.9,64Zm0,0" style="fill:#26c9ff"/><path d="M669.9,64V226.9c0,17.9,15,32.6,33.4,32.6H870.5Zm0,0" style="fill:#d3faff"/><path d="M347.7,413H421c53.9,0,92.4,18.4,92.4,73,0,53-38.5,77.3-91.1,77.3H385.9V655H347.7Zm71,119.7c38.8,0,57.2-14.8,57.2-46.7s-20.1-42.4-58.5-42.4H385.9v89.1Z" style="fill:#fff"/><path d="M539.9,623.8l22.4-26.3c17.4,17.4,41.1,28.6,64.5,28.6,29.3,0,45.7-13.8,45.7-34.2,0-22-16.4-28.9-38.8-38.8l-33.6-14.5c-23.4-9.9-49.3-28.3-49.3-63.4,0-38.1,33.6-66.7,79.6-66.7A103.7,103.7,0,0,1,703.7,439l-20.1,24.3c-15.1-13.5-31.9-21.7-53.3-21.7-24.7,0-40.8,11.9-40.8,31.2s19.4,28.6,39.2,36.5l33.2,14.2c28.6,12.2,49.3,29.9,49.3,65.4,0,38.8-32.2,70.4-85.2,70.4C592.8,659.3,561.9,646.1,539.9,623.8Z" style="fill:#fff"/></svg>