<svg id="图层_1" data-name="图层 1" xmlns="http://www.w3.org/2000/svg" viewBox="0 0 1024 1024"><title>video</title><path d="M186.9,64c-18.4,0-33.4,14.7-33.4,32.6V927.4c0,17.9,15,32.6,33.4,32.6H837.1c18.4,0,33.4-14.7,33.4-32.6V259.5L669.9,64Zm0,0" style="fill:#a875de"/><path d="M669.9,64V226.9c0,17.9,15,32.6,33.4,32.6H870.5Zm0,0" style="fill:#ceb2d6"/><path d="M579.1,537.5l-84.3-53.4A12.3,12.3,0,0,0,476,494.5V601.2a12.3,12.3,0,0,0,18.8,10.4l84.3-53.4A12.3,12.3,0,0,0,579.1,537.5Z" style="fill:#fff"/><ellipse cx="512" cy="547.8" rx="170.3" ry="170.2" style="fill:none;stroke:#fff;stroke-miterlimit:10;stroke-width:17.9224998256382px"/></svg>