<svg id="图层_1" data-name="图层 1" xmlns="http://www.w3.org/2000/svg" viewBox="0 0 1024 1024"><title>zip</title><path d="M186.9,64c-18.4,0-33.4,14.7-33.4,32.6V927.4c0,17.9,15,32.6,33.4,32.6H837.1c18.4,0,33.4-14.7,33.4-32.6V259.5L669.9,64Zm0,0" style="fill:#c9d6e2"/><rect x="314.8" y="64" width="125.5" height="439.04" style="fill:#c9d6e2"/><path d="M669.9,64V226.9c0,17.9,15,32.6,33.4,32.6H870.5Zm0,0" style="fill:#aec3d3"/><rect x="319.3" y="136.6" width="61.3" height="36.77" style="fill:#fff"/><rect x="380.6" y="99.8" width="61.3" height="36.77" style="fill:#fff"/><rect x="319.3" y="210.1" width="61.3" height="36.77" style="fill:#fff"/><rect x="380.6" y="173.4" width="61.3" height="36.77" style="fill:#fff"/><rect x="319.3" y="283.7" width="61.3" height="36.77" style="fill:#fff"/><rect x="380.6" y="246.9" width="61.3" height="36.77" style="fill:#fff"/><rect x="319.3" y="357.2" width="61.3" height="36.77" style="fill:#fff"/><rect x="380.6" y="320.4" width="61.3" height="36.77" style="fill:#fff"/><rect x="319.3" y="430.7" width="61.3" height="36.77" style="fill:#fff"/><rect x="380.6" y="394" width="61.3" height="36.77" style="fill:#fff"/><path d="M326.1,682H429c7.1,0,12.9-5.5,12.9-12.3V516.5c0-6.7-5.8-12.3-12.9-12.3h-103c-7.1,0-12.9,5.5-12.9,12.3V669.7C313.2,676.4,319,682,326.1,682Zm19.3-98h64.4v67.4H345.4Z" style="fill:#fff"/></svg>