<?xml version="1.0" encoding="utf-8"?>
<!-- Generator: Adobe Illustrator 24.0.0, SVG Export Plug-In . SVG Version: 6.00 Build 0)  -->
<svg version="1.1" id="图层_1" xmlns="http://www.w3.org/2000/svg" xmlns:xlink="http://www.w3.org/1999/xlink" x="0px" y="0px"
	 viewBox="0 0 20 20" style="enable-background:new 0 0 20 20;" xml:space="preserve">
<style type="text/css">
	.st0{fill:#9F9F9F;}
</style>
<title>list_cancel_bookmarks</title>
<g id="list_cancel_bookmarks">
	<g id="cancel-bookmark" transform="translate(2.000000, 0.000000)">
		<path id="形状" class="st0" d="M16,18.5V3c0-1.7-1.4-3-3-3H3C1.4,0,0,1.4,0,3v16c0,0.4,0.2,0.7,0.5,0.9s0.7,0.2,1,0L8,15.7
			l6.4,4.1c0.3,0.2,0.7,0.2,1,0c0.3-0.2,0.6-0.4,0.6-0.8v-0.2C16,18.7,16,18.6,16,18.5z M14,3v12.6l-3.1-4.1
			c0.5-0.7,0.8-1.5,0.8-2.4C11.7,7,10,5.4,8,5.4c-0.5,0-1,0.1-1.4,0.3L3.8,2h9.1C13.5,2,14,2.5,14,3z M6.4,8.6L8,10.8l0,0
			c-0.5,0-1-0.3-1.3-0.7C6.3,9.6,6.2,9.1,6.4,8.6L6.4,8.6z M7.9,7.5L7.9,7.5c0.6,0,1.1,0.3,1.4,0.7s0.4,1,0.2,1.5L7.9,7.5z M8,13.5
			c-0.2,0-0.4,0.1-0.5,0.2L2,17.1V3c0-0.1,0-0.2,0.1-0.3l3,4C4.5,7.4,4.2,8.3,4.2,9.1c0,2.1,1.7,3.8,3.8,3.8c0.5,0,1-0.1,1.4-0.3
			l2.3,3.1l-3.2-2.1C8.4,13.5,8.2,13.5,8,13.5z"/>
	</g>
</g>
</svg>
