<?xml version="1.0" encoding="utf-8"?>
<!-- Generator: Adobe Illustrator 24.0.0, SVG Export Plug-In . SVG Version: 6.00 Build 0)  -->
<svg version="1.1" id="图层_1" xmlns="http://www.w3.org/2000/svg" xmlns:xlink="http://www.w3.org/1999/xlink" x="0px" y="0px"
	 viewBox="0 0 1025 1024" style="enable-background:new 0 0 1025 1024;" xml:space="preserve">
<style type="text/css">
	.st0{fill:#507DF0;}
	.st1{fill:#799CF3;}
	.st2{fill:#FFFFFF;}
	.st3{fill:#AEC3F7;}
</style>
<title>collections</title>
<desc>Created with Sketch.</desc>
<g id="icon相关">
	<g id="collections" transform="translate(0.030000, 0.000000)">
		<path id="矩形" class="st0" d="M128,0h768c70.7,0,128,57.3,128,128v768c0,70.7-57.3,128-128,128H128C57.3,1024,0,966.7,0,896
			V128C0,57.3,57.3,0,128,0z"/>
		<path id="矩形_1_" class="st1" d="M262.7,153h498.6c60.6,0,109.7,49.1,109.7,109.7v498.6c0,60.6-49.1,109.7-109.7,109.7H262.7
			C202.1,871,153,821.9,153,761.3V262.7C153,202.1,202.1,153,262.7,153z"/>
		<path id="路径" class="st2" d="M284.4,230.7h455.3c18,0,32.7,14.6,32.7,32.7v78.2H251.7v-78.2
			C251.7,245.3,266.3,230.7,284.4,230.7L284.4,230.7z"/>
		<path id="路径_1_" class="st3" d="M153,278.3h718v483c0,29.1-11.5,57-32.1,77.6S790.4,871,761.3,871H262.7
			c-29.1,0-57-11.6-77.6-32.1S153,790.4,153,761.3V278.3L153,278.3z"/>
		<path id="路径_2_" class="st2" d="M423.4,401.5c0,0-3.2-7.6,5-11.7c9.6-4.2,19.6-7.2,29.9-9c17.7-2.9,22.2-3.8,55.8-1.7
			c0,0,65.2-1.5,145.7,89c0,0,2.5,2.3,8.2,10.9c15,22.5,42.9,74,37.3,136.2c0,0-0.1,28.4-13.5,62.5c-4.8,12.1-13.2,28.5-20,35
			c-5.5,5.4-12,9.5-18.5,4.1c0,0,8.8-23.4-4-58.7s-71.2-133-123.2-182.8C477.3,428.4,456.8,401,423.4,401.5z"/>
		<path id="路径_3_" class="st2" d="M441.4,790.7c-109,0-144.5-53.9-148-68.3c-0.2-1-23-95.5,40.6-209.1
			c0.3-0.6,30.7-54.9,72.1-82.5l0.4-0.2l0.3-0.3c0.1-0.1,10.1-8.9,20.9-8.9c3.5,0,7,1,9.9,3.1c7.8,5.3,29.2,20.8,58.5,50.1
			c18.4,18.5,39.8,42.8,61.8,70.5c52,65.2,70.4,115,76.8,138.8c5.1,19.2,0.3,35.9-12.9,44.9c-3.3,2.4-6.4,5-9.3,7.8
			c-17,15.5-52.4,47.8-151.1,53.6C454.7,790.5,448,790.7,441.4,790.7z"/>
		<path id="路径_4_" class="st2" d="M648.9,433.1l17.2,18.2c0,0,15.5-24.6,48.3-19.3c0,0,8.6,1.7,14.2,4.1
			c3.6,1.6,6.4,2.2,6.1-1.9c-0.3-4.1-5-26.2-18.9-32.9S666.4,412.3,648.9,433.1z"/>
	</g>
</g>
</svg>
