<?xml version="1.0" encoding="utf-8"?>
<!-- Generator: Adobe Illustrator 24.0.0, SVG Export Plug-In . SVG Version: 6.00 Build 0)  -->
<svg version="1.1" id="图层_1" xmlns="http://www.w3.org/2000/svg" xmlns:xlink="http://www.w3.org/1999/xlink" x="0px" y="0px"
	 viewBox="0 0 32 32" style="enable-background:new 0 0 32 32;" xml:space="preserve">
<style type="text/css">
	.st0{fill:#9FDDFF;}
	.st1{fill:#74C6FF;}
	.st2{fill-rule:evenodd;clip-rule:evenodd;fill:#3891FC;}
</style>
<title>list_folder_sync</title>
<g id="list_folder_sync">
	<g transform="translate(0.000000, 1.000000)">
		<path id="路径_4381" class="st0" d="M11.9,0.5l0.8,1c0.2,0.3,0.6,0.5,1,0.5h16.4c1,0,1.9,0.8,1.9,1.9V23c0,0.5-0.2,1-0.6,1.3
			c-0.4,0.3-0.8,0.5-1.3,0.5H1.9c-0.5,0-1-0.2-1.3-0.5C0.2,23.9,0,23.5,0,23V1.9C0,0.8,0.9,0,1.9,0h9C11.3,0,11.6,0.2,11.9,0.5z"/>
		<path id="路径_4382" class="st1" d="M0,6.4v21.6c0,0.5,0.2,1,0.6,1.4C0.9,29.8,1.4,30,1.9,30h28.2c0.5,0,1-0.2,1.4-0.6
			c0.4-0.4,0.6-0.9,0.6-1.4V6.4H0z"/>
		<path id="路径_4383" class="st2" d="M16,11.1L16,11.1c-3.4,0-6.2,2.6-6.6,5.9c0,0.1-0.1,0.3-0.3,0.3H8.3c-0.1,0-0.2,0.1-0.3,0.2
			c0,0.1,0,0.2,0,0.3l2.1,2.4c0.1,0.1,0.1,0.1,0.2,0.1s0.2,0,0.2-0.1l2-2.5c0.1-0.1,0.1-0.2,0-0.3c0-0.1-0.2-0.2-0.3-0.2h-0.8
			c-0.1,0-0.2,0-0.2-0.1c-0.1-0.1-0.1-0.2-0.1-0.2c0.3-1.8,1.7-3.3,3.5-3.8s3.7,0.1,4.9,1.5l0.1,0.2c0.1,0.1,0.1,0.1,0.2,0.1
			c0.1,0,0.2,0,0.2-0.1l0.8-1c0.1-0.1,0.1-0.3,0-0.4l0,0C19.8,11.9,18,11,16,11.1L16,11.1 M20.8,18.2c-0.2,1.9-1.5,3.6-3.4,4.1
			c-1.9,0.6-3.9,0-5.1-1.5c-0.1-0.1-0.1-0.2-0.2-0.2c-0.1-0.1-0.1-0.1-0.2-0.1s-0.2,0-0.2,0.1l-0.8,1c-0.1,0.1-0.1,0.3,0,0.4
			l0.1,0.1c1.1,1.4,2.8,2.2,4.5,2.3c1.8,0.1,3.5-0.4,4.9-1.6l0,0c1.3-1.1,2.1-2.7,2.3-4.4c0-0.1,0.1-0.3,0.3-0.3l0.7,0
			c0.1,0,0.2-0.1,0.3-0.2c0-0.1,0-0.2,0-0.3l-2.1-2.4c-0.1-0.1-0.1-0.1-0.2-0.1c-0.1,0-0.2,0-0.2,0.1l-2,2.5c-0.1,0.1-0.1,0.2,0,0.3
			s0.2,0.2,0.3,0.2L20.8,18.2L20.8,18.2"/>
	</g>
</g>
</svg>
