<svg xmlns="http://www.w3.org/2000/svg" width="32" height="30" viewBox="0 0 32 30">
  <defs>
    <style>
      .cls-1 {
        fill: #9fddff;
      }

      .cls-2 {
        fill: #74c6ff;
      }
    </style>
  </defs>
  <g id="list_folder_sync" transform="translate(-64 -172.999)">
    <path id="路径_4381" data-name="路径 4381" class="cls-1" d="M75.875,173.464l.811,1a1.276,1.276,0,0,0,.989.465H94.1a1.882,1.882,0,0,1,1.9,1.863v19.169a1.882,1.882,0,0,1-1.9,1.864H65.9a1.882,1.882,0,0,1-1.9-1.864v-21.1A1.882,1.882,0,0,1,65.9,173h8.986A1.276,1.276,0,0,1,75.875,173.464Z"/>
    <path id="路径_4382" data-name="路径 4382" class="cls-2" d="M64,342.5v21.607a1.932,1.932,0,0,0,1.914,1.95H94.086A1.932,1.932,0,0,0,96,364.107V342.5Z" transform="translate(0 -163.057)"/>
  </g>
</svg>
