<?xml version="1.0" encoding="utf-8"?>
<!-- Generator: Adobe Illustrator 24.0.0, SVG Export Plug-In . SVG Version: 6.00 Build 0)  -->
<svg version="1.1" id="图层_1" xmlns="http://www.w3.org/2000/svg" xmlns:xlink="http://www.w3.org/1999/xlink" x="0px" y="0px"
	 viewBox="0 0 32 32" style="enable-background:new 0 0 32 32;" xml:space="preserve">
<style type="text/css">
	.st0{fill:#9FDDFF;}
	.st1{fill:#74C6FF;}
	.st2{fill:#3891FC;}
</style>
<title>list_folder_shared</title>
<g id="list_folder_shared">
	<g id="编组" transform="translate(0.000000, 1.000000)">
		<path id="路径_4378" class="st0" d="M11.9,0.5l0.8,1c0.2,0.3,0.6,0.5,1,0.5h16.4c0.5,0,1,0.2,1.3,0.5C31.8,2.8,32,3.3,32,3.8
			v19.1c0,0.5-0.2,1-0.6,1.3c-0.4,0.3-0.8,0.5-1.3,0.5H1.9c-0.5,0-1-0.2-1.3-0.5S0,23.4,0,22.9v-21c0-0.5,0.2-1,0.6-1.3S1.4,0,1.9,0
			h9C11.3,0,11.6,0.2,11.9,0.5z"/>
		<path id="路径_4379" class="st1" d="M0,6.5v21.5c0,0.5,0.2,1,0.6,1.4S1.4,30,1.9,30h28.2c0.5,0,1-0.2,1.4-0.6s0.6-0.9,0.6-1.4
			V6.5H0z"/>
		<path id="联合_5" class="st2" d="M17.8,22.8H7.5c0.5-2.3,2.4-4.1,4.8-4.2c-1.6-0.2-2.8-1.6-2.8-3.2c0-1.7,1.4-3.1,3.1-3.1
			c1.7-0.1,3.1,1.2,3.3,2.9c0.1,1.7-1.1,3.2-2.8,3.4c1.6,0.1,3,0.9,3.9,2.2c0.7-0.8,1.7-1.3,2.8-1.4c-1.3-0.1-2.3-1.3-2.2-2.6
			s1.2-2.4,2.5-2.4s2.4,1,2.5,2.4c0.1,1.3-0.9,2.5-2.2,2.6c0.3,0,0.6,0.1,0.8,0.1c1.5,0.4,2.7,1.7,3,3.2H17.8z"/>
	</g>
</g>
</svg>
