<svg id="图层_1" data-name="图层 1" xmlns="http://www.w3.org/2000/svg" viewBox="0 0 1024 1024"><title>gif</title><path d="M186.9,64c-18.4,0-33.4,14.7-33.4,32.6V927.4c0,17.9,15,32.6,33.4,32.6H837.1c18.4,0,33.4-14.7,33.4-32.6V259.5L669.9,64Zm0,0" style="fill:#74c6ff"/><path d="M669.9,64V226.9c0,17.9,15,32.6,33.4,32.6H870.5Zm0,0" style="fill:#d4f7ff"/><ellipse cx="402.3" cy="551.1" rx="39.7" ry="39.7" transform="translate(-70.9 59.6) rotate(-7.8)" style="fill:#fff"/><rect x="408.6" y="327.4" width="104.8" height="104.87" transform="translate(-64.9 663.2) rotate(-67.8)" style="fill:#fff"/><polygon points="469.3 507 652 623.4 661.4 406.9 469.3 507" style="fill:#fff"/><path d="M372.3,761.6c0-45.1,27.8-72.1,64.5-72.1A55.2,55.2,0,0,1,478,706.9l-11.8,13.9c-6.8-7-15.2-12.4-28.6-12.4-25.8,0-42.9,19.9-42.9,52.4s15.2,53,43.8,53c8.5,0,16.9-2.4,21.8-6.8V774.5H432.9V756.7H480v59.9c-9.2,9.2-24.8,16.2-43.8,16.2C399.2,832.8,372.3,806.9,372.3,761.6Z" style="fill:#fff"/><path d="M511.6,692.1h21.8V830.3H511.6Z" style="fill:#fff"/><path d="M569.7,692.1h81.9v18.2H591.5v42.3h51.1v18.2H591.5v59.6H569.7Z" style="fill:#fff"/></svg>