<svg id="sidebar__revisions" xmlns="http://www.w3.org/2000/svg" width="20" height="20" viewBox="0 0 20 20">
  <defs>
    <style>
      .cls-1 {
        fill: #9f9f9f;
      }
    </style>
  </defs>
  <path id="形状结合" class="cls-1" d="M10,0A10,10,0,1,1,0,10,10.029,10.029,0,0,1,10,0ZM6.9,2.4A8.205,8.205,0,1,0,17.6,13.1a7.97,7.97,0,0,0-1.8-8.9A8.408,8.408,0,0,0,6.9,2.4ZM10,3.7a.9.9,0,0,1,.9.9v5.7l4.8.9a.922.922,0,0,1-.4,1.8L10,12c-.2,0-.4-.2-.6-.3a1.08,1.08,0,0,1-.3-.7V4.5A.882.882,0,0,1,10,3.7Z"/>
</svg>
