<svg id="图层_1" data-name="图层 1" xmlns="http://www.w3.org/2000/svg" viewBox="0 0 1024 1024"><title>image</title><path d="M186.9,64c-18.4,0-33.4,14.7-33.4,32.6V927.4c0,17.9,15,32.6,33.4,32.6H837.1c18.4,0,33.4-14.7,33.4-32.6V259.5L669.9,64Zm0,0" style="fill:#74c6ff"/><path d="M669.9,64V226.9c0,17.9,15,32.6,33.4,32.6H870.5Zm0,0" style="fill:#d4f7ff"/><ellipse cx="395.5" cy="413.4" rx="44.8" ry="44.8" style="fill:#fff"/><path d="M572,426.5,466.5,582.6a17.9,17.9,0,0,1-29.7,0L411,544.4a17.9,17.9,0,0,0-29.7,0L288.9,681.2a17.9,17.9,0,0,0,14.9,27.9H758.9a17.9,17.9,0,0,0,14.9-27.9l-172-254.7A17.9,17.9,0,0,0,572,426.5Z" style="fill:#fff"/></svg>