<?xml version="1.0" encoding="utf-8"?>
<!-- Generator: Adobe Illustrator 24.0.0, SVG Export Plug-In . SVG Version: 6.00 Build 0)  -->
<svg version="1.1" id="图层_1" xmlns="http://www.w3.org/2000/svg" xmlns:xlink="http://www.w3.org/1999/xlink" x="0px" y="0px"
	 viewBox="0 0 1024 1024" style="enable-background:new 0 0 1024 1024;" xml:space="preserve">
<style type="text/css">
	.st0{fill:#3A7FFB;}
	.st1{fill:#FFFFFF;}
</style>
<title>lnbox</title>
<desc>Created with Sketch.</desc>
<path id="矩形" class="st0" d="M130.6,0h768c70.7,0,128,57.3,128,128v768c0,70.7-57.3,128-128,128h-768c-70.7,0-128-57.3-128-128
	V128C2.6,57.3,59.9,0,130.6,0z"/>
<g>
	<polygon class="st0" points="257.3,387.8 172.6,555.7 364.9,555.7 364.9,678.4 643.6,678.4 643.6,566 866.1,566 757.6,367.3 	"/>
	<path class="st1" d="M892.1,541.1l-3.5-9.5l-62.7-119.7c-13.9-35-45.3-57.5-80.4-57.5H283.7c-35.1,0-66.6,22.5-80.4,57.5
		l-62.7,119.7c0,0-3.9,8.7-4.8,11.7c-1.3,4.5-1.2,8.6-1.2,13.9v205.4c0,31.5,24.1,57,53.9,57h652.2c29.8,0,53.9-25.5,53.9-57V557.2
		C894.6,552.2,893.8,545.5,892.1,541.1z M370.6,531.6H196.4l54.2-103.5c0.3-0.6,0.6-1.3,0.9-2c8.1-21.2,26.3-34.9,46.4-34.9h433.2
		c20.1,0,38.3,13.7,46.4,34.9c0.3,0.7,55.1,105.5,55.1,105.5H663c-20.6,0-37.2,16.7-37.2,37.2l0,0c-4.3,29.8-25.9,67-106.3,70.2
		l-4.1,0.1c-83.9-2-106.2-40-110.6-70.3v-3C404.8,546.9,389.5,531.6,370.6,531.6z"/>
	<path class="st0" d="M748.5,508.3V276.9c0-26.9-25.5-48.7-57-48.7H337.6c-31.5,0-57,21.8-57,48.7v231.4"/>
	<path class="st1" d="M772.2,531.6h-47.5V280.9c0-16-14.9-29-33.2-29H337.6c-18.3,0-33.2,13-33.2,29v250.7h-47.5V280.9
		c0-42.2,36.2-76.5,80.7-76.5h353.9c44.5,0,80.7,34.3,80.7,76.5V531.6z"/>
	<path class="st1" d="M660.8,432.4l-281.1,0.1c-9.3,2-16.8,11.8-16.8,22.4c2.1,11.3,8.6,18,17.3,18l281.1-0.1
		c9.3-2,16.8-11.8,16.8-22.5C676.4,443.1,671.1,434.6,660.8,432.4z"/>
	<path class="st1" d="M660.8,329.1l-281.1,0.1c-9.3,2-16.8,11.8-16.8,22.4c2.1,11.3,8.6,18,17.3,18l281.1-0.1
		c9.3-2,16.8-11.8,16.8-22.5C676.4,339.8,671.1,331.3,660.8,329.1z"/>
</g>
</svg>
