<?xml version="1.0" encoding="utf-8"?>
<!-- Generator: Adobe Illustrator 24.0.0, SVG Export Plug-In . SVG Version: 6.00 Build 0)  -->
<svg version="1.1" id="图层_1" xmlns="http://www.w3.org/2000/svg" xmlns:xlink="http://www.w3.org/1999/xlink" x="0px" y="0px"
	 viewBox="0 0 20 20" style="enable-background:new 0 0 20 20;" xml:space="preserve">
<style type="text/css">
	.st0{fill:#9F9F9F;}
</style>
<title>account_expire</title>
<g id="account_expire">
	<g id="zoom-in" transform="translate(0.022222, 0.000000)">
		<path id="形状" class="st0" d="M19.2,6.1c-2-4.7-7.2-7.2-12.1-5.7S-0.8,6.9,0.2,12s5.7,8.5,10.8,8s9-4.8,9-9.9
			C20,8.7,19.7,7.4,19.2,6.1L19.2,6.1z M17.4,13.1c-1.6,3.8-5.8,5.7-9.7,4.5s-6.3-5.2-5.5-9.2S6.7,1.6,10.8,2S18,5.9,18,10
			C18,11.1,17.8,12.1,17.4,13.1L17.4,13.1z"/>
		<path id="路径" class="st0" d="M14.9,9H11V5.1c0-0.6-0.4-1-1-1l0,0c-0.6,0-1,0.4-1,1V9H5.1c-0.6,0-1,0.4-1,1l0,0
			c0,0.6,0.4,1,1,1H9v3.9c0,0.6,0.4,1,1,1l0,0c0.6,0,1-0.4,1-1V11h3.9c0.6,0,1-0.4,1-1l0,0C15.9,9.4,15.5,9,14.9,9z"/>
	</g>
</g>
</svg>
