<?xml version="1.0" encoding="utf-8"?>
<!-- Generator: Adobe Illustrator 24.0.0, SVG Export Plug-In . SVG Version: 6.00 Build 0)  -->
<svg version="1.1" id="图层_1" xmlns="http://www.w3.org/2000/svg" xmlns:xlink="http://www.w3.org/1999/xlink" x="0px" y="0px"
	 viewBox="0 0 20 20" style="enable-background:new 0 0 20 20;" xml:space="preserve">
<style type="text/css">
	.st0{fill:#9F9F9F;}
</style>
<title>list_pin备份</title>
<g id="list_pin备份">
	<path id="形状结合" class="st0" d="M1.9,7l2.5,0.1l2,2c-0.1,0-0.2,0-0.3,0H6L3.1,9l7.9,8l-0.2-3c0-0.1,0-0.2,0-0.4l2,2l0.1,2.5
		c0,0.6-0.3,1.2-0.9,1.4c-0.6,0.2-1.2,0.1-1.6-0.3l-4.2-4.2l-4.6,4.6c-0.4,0.4-1,0.4-1.4,0c-0.4-0.4-0.4-1,0-1.4l0,0l4.6-4.6
		L0.8,9.5C0.3,9.1,0.2,8.4,0.5,7.8S1.3,6.9,1.9,7z M3,1.5l15.5,15.7c0.4,0.4,0.4,1,0,1.4c-0.4,0.4-1,0.4-1.4,0l-4.2-4.2l-1.5-1.5
		l0,0l-9.8-10c-0.4-0.4-0.4-1,0-1.4S2.6,1.1,3,1.5z M13.2,0.4l6.4,6.4l0,0C20,7.2,20.1,7.7,20,8.1c-0.1,0.5-0.4,0.9-0.9,1.1
		l-2.4,0.9l-1.9,1.9l-1.4-1.4l1.8-1.8c0.2-0.2,0.4-0.3,0.6-0.4h0.1l1.7-0.7l-5.3-5.3l-0.6,1.7c-0.1,0.3-0.2,0.5-0.4,0.7l0,0L9.4,6.6
		L8,5.2l1.8-1.8L10.7,1c0.2-0.5,0.6-0.8,1.1-0.9C12.3-0.1,12.8,0.1,13.2,0.4z"/>
</g>
</svg>
