<?xml version="1.0" encoding="utf-8"?>
<!-- Generator: Adobe Illustrator 24.0.0, SVG Export Plug-In . SVG Version: 6.00 Build 0)  -->
<svg version="1.1" id="图层_1" xmlns="http://www.w3.org/2000/svg" xmlns:xlink="http://www.w3.org/1999/xlink" x="0px" y="0px"
	 viewBox="0 0 20 20" style="enable-background:new 0 0 20 20;" xml:space="preserve">
<style type="text/css">
	.st0{fill:#9F9F9F;}
</style>
<title>list_pin</title>
<g id="list_pin">
	<path id="路径_4414" class="st0" d="M19.6,6.8c0.4,0.4,0.5,0.9,0.4,1.3c-0.1,0.5-0.4,0.9-0.9,1.1l-2.4,0.9L12.8,14l0.2,4.2
		c0,0.6-0.3,1.2-0.9,1.4c-0.6,0.2-1.2,0.1-1.6-0.3l-4.2-4.2l-4.6,4.6c-0.4,0.4-1,0.4-1.4,0c-0.4-0.4-0.4-1,0-1.4l0,0l4.6-4.6
		L0.7,9.5C0.2,9.1,0.1,8.4,0.4,7.8S1.2,6.9,1.8,7L6,7.2l3.8-3.8L10.7,1c0.2-0.5,0.6-0.8,1.1-0.9c0.5-0.1,1,0,1.4,0.4L19.6,6.8
		L19.6,6.8z M17.6,7.7l-5.3-5.3l-0.6,1.7c-0.1,0.3-0.2,0.5-0.4,0.7l0,0L7.4,8.6C7.1,9,6.5,9.2,6,9.2H5.9L3,9l8,8l-0.2-3
		c0-0.5,0.2-1.1,0.5-1.5l0,0l3.8-3.8c0.2-0.2,0.4-0.3,0.6-0.4l0.1,0L17.6,7.7z"/>
</g>
</svg>
