<?xml version="1.0" encoding="utf-8"?>
<!-- Generator: Adobe Illustrator 24.0.0, SVG Export Plug-In . SVG Version: 6.00 Build 0)  -->
<svg version="1.1" id="图层_1" xmlns="http://www.w3.org/2000/svg" xmlns:xlink="http://www.w3.org/1999/xlink" x="0px" y="0px"
	 viewBox="0 0 20 20" style="enable-background:new 0 0 20 20;" xml:space="preserve">
<style type="text/css">
	.st0{fill:#9F9F9F;}
</style>
<title>list_more</title>
<g id="list_more">
	<g>
		<path id="路径_4410" class="st0" d="M19.2,6.1c-2-4.7-7.2-7.2-12.2-5.7S-0.8,6.9,0.2,12s5.7,8.5,10.8,8c5.1-0.5,9-4.8,9-9.9
			C20,8.7,19.7,7.3,19.2,6.1L19.2,6.1z M17.4,13.1c-1.6,3.8-5.8,5.8-9.7,4.6c-3.9-1.2-6.3-5.2-5.5-9.2S6.7,1.6,10.8,2S18,5.9,18,10
			C18,11.1,17.8,12.1,17.4,13.1L17.4,13.1z"/>
		<path id="路径_4411" class="st0" d="M10,8.5c-0.6,0-1.1,0.4-1.4,0.9S8.6,10.6,9,11.1c0.4,0.4,1.1,0.6,1.6,0.3s0.9-0.8,0.9-1.4
			C11.5,9.2,10.9,8.5,10,8.5L10,8.5z"/>
		<path id="路径_4412" class="st0" d="M5,8.5c-0.6,0-1.1,0.4-1.4,0.9C3.4,10,3.6,10.6,4,11.1c0.4,0.4,1.1,0.6,1.6,0.3
			s0.9-0.8,0.9-1.4C6.5,9.2,5.9,8.5,5,8.5z"/>
		<path id="路径_4413" class="st0" d="M15,8.5c-0.8,0-1.5,0.7-1.5,1.5c0,0.8,0.7,1.5,1.5,1.5s1.5-0.7,1.5-1.5
			C16.5,9.2,15.8,8.5,15,8.5z"/>
	</g>
</g>
</svg>
