<?xml version="1.0" encoding="utf-8"?>
<!-- Generator: Adobe Illustrator 24.0.0, SVG Export Plug-In . SVG Version: 6.00 Build 0)  -->
<svg version="1.1" id="图层_1" xmlns="http://www.w3.org/2000/svg" xmlns:xlink="http://www.w3.org/1999/xlink" x="0px" y="0px"
	 viewBox="0 0 1024 1024" style="enable-background:new 0 0 1024 1024;" xml:space="preserve">
<style type="text/css">
	.st0{fill-rule:evenodd;clip-rule:evenodd;fill:#218FF4;}
	.st1{fill:#FFFFFF;}
</style>
<title>markdown</title>
<desc>Created with Sketch.</desc>
<g id="markdown">
	<path id="矩形" class="st0" d="M128,0h768c70.7,0,128,57.3,128,128v768c0,70.7-57.3,128-128,128H128C57.3,1024,0,966.7,0,896V128
		C0,57.3,57.3,0,128,0z"/>
	<g id="编组" transform="translate(254.000000, 128.000000)">
		<path id="Shape-4" class="st1" d="M112,168.7L1.4,279c-0.8,0.8-1.3,1.9-1.4,3.1v104.8c0,1.2,0.5,2.3,1.4,3.1
			c0.9,0.8,2,1.2,3.1,1.4h80.2c1.2,0,2.3-0.5,3.1-1.4c0.8-0.8,1.3-1.9,1.4-3.1V254.8c0-1.2,0.5-2.3,1.4-3.1l53.3-52.9
			c0.8-0.8,1.3-1.9,1.4-3.1c0-1.2-0.5-2.3-1.4-3.1l-25.4-23.9C116.7,167,113.8,167,112,168.7L112,168.7z"/>
		<path id="Shape-5" class="st1" d="M403,168.7l110.6,110.6c0.8,0.8,1.3,1.9,1.4,3.1v104.8c0,1.2-0.5,2.3-1.4,3.1
			c-0.9,0.8-2,1.2-3.1,1.4h-80.2c-1.2,0-2.3-0.5-3.1-1.4c-0.8-0.8-1.3-1.9-1.4-3.1V255.1c0.1-1.2-0.4-2.3-1.3-3.1l-53.3-52.9
			c-0.8-0.8-1.3-1.9-1.4-3.1c0-1.2,0.5-2.3,1.4-3.1l25.3-23.8c0.7-0.9,1.8-1.5,3-1.6s2.4,0.3,3.3,1L403,168.7z"/>
		<path id="路径" class="st1" d="M396.1,259.2L267.1,138v122.6H249v-123L119.6,259.2c-0.9,0.8-1.4,1.9-1.4,3.1v124.6
			c0,1.2,0.5,2.3,1.4,3.1c0.9,0.8,2,1.2,3.1,1.4h270.4c1.2,0,2.3-0.5,3.1-1.4c0.8-0.8,1.3-1.9,1.4-3.1V262.3
			C397.7,261.1,397.1,259.9,396.1,259.2L396.1,259.2z"/>
		<path id="形状" class="st1" d="M27.7,425.5v103.8c0.3,63.5,34,122.1,88.8,154.3l142,84.4l142.7-87.4
			c53.5-32.5,86.2-90.4,86.4-153V425.5H27.7z M260.9,619.1v-71.7L217.6,588l-39.3-40.6v71.7h-31.4V501.3h32.8l37.9,38.9l42-38.9
			h34.5l0.3,117.8L260.9,619.1L260.9,619.1z M360.3,619.1l-46.1-50.5h29.3v-67.3H377v67.3h29.4L360.3,619.1z"/>
		<path id="Shape-9" class="st1" d="M229.2,0c-1,2.4-1.8,5-2.4,7.5c-8,41.3,18.8,81.4,60.1,89.8c1.5-2.2,2.3-4.8,2.4-7.5
			C296.7,48.6,270.1,8.9,229.2,0L229.2,0z"/>
	</g>
</g>
</svg>
