<?xml version="1.0" encoding="utf-8"?>
<!-- Generator: Adobe Illustrator 24.0.0, SVG Export Plug-In . SVG Version: 6.00 Build 0)  -->
<svg version="1.1" id="图层_1" xmlns="http://www.w3.org/2000/svg" xmlns:xlink="http://www.w3.org/1999/xlink" x="0px" y="0px"
	 viewBox="0 0 20 20" style="enable-background:new 0 0 20 20;" xml:space="preserve">
<style type="text/css">
	.st0{fill:#9F9F9F;}
</style>
<title>menu_new_folder</title>
<g id="menu_new_folder">
	<g id="联合_6">
		<path class="st0" d="M3,20c-1.7,0-3-1.3-3-3V3c0-1.7,1.3-3,3-3h5.5c1.1,0,2,0.6,2.6,1.5L12,3h5c1.7,0,3,1.3,3,3v11
			c0,1.7-1.3,3-3,3H3z M2,3v14c0,0.6,0.4,1,1,1h14c0.6,0,1-0.4,1-1V6c0-0.6-0.4-1-1-1h-5.5c-0.4,0-0.7-0.2-0.9-0.5l-1.2-2
			C9.2,2.2,8.9,2,8.5,2H3C2.4,2,2,2.4,2,3z M9,14v-2H7c-0.6,0-1-0.4-1-1s0.4-1,1-1h2V8c0-0.6,0.4-1,1-1s1,0.4,1,1v2h2
			c0.6,0,1,0.4,1,1s-0.4,1-1,1h-2v2c0,0.6-0.4,1-1,1S9,14.6,9,14z"/>
	</g>
</g>
</svg>
