<?xml version="1.0" encoding="utf-8"?>
<!-- Generator: Adobe Illustrator 27.6.1, SVG Export Plug-In . SVG Version: 6.00 Build 0)  -->
<svg version="1.1" id="图层_1" xmlns="http://www.w3.org/2000/svg" xmlns:xlink="http://www.w3.org/1999/xlink" x="0px" y="0px"
	 viewBox="0 0 20 20" style="enable-background:new 0 0 20 20;" xml:space="preserve">
<style type="text/css">
	.st0{fill:#9F9F9F;}
</style>
<path id="形状结合" class="st0" d="M13.7,0.3l5,5C18.9,5.5,19,5.7,19,5.9L19,6v11c0,1.7-1.3,3-3,3H4c-1.7,0-3-1.3-3-3V3
	c0-1.7,1.3-3,3-3l8.9,0C13.2,0,13.5,0.1,13.7,0.3z M12,2L4,2C3.4,2,3,2.4,3,3v14c0,0.6,0.4,1,1,1h12c0.6,0,1-0.4,1-1V7l-3,0
	c-1.1,0-2-0.9-2-2V2z M10,13c0.8,0,1.5,0.7,1.5,1.5S10.8,16,10,16s-1.5-0.7-1.5-1.5S9.2,13,10,13z M10,5c0.6,0,1,0.4,1,1v5
	c0,0.6-0.4,1-1,1c-0.6,0-1-0.4-1-1V6C9,5.4,9.4,5,10,5z M14,3.4V5h1.6L14,3.4z"/>
</svg>
