<?xml version="1.0" encoding="utf-8"?>
<!-- Generator: Adobe Illustrator 24.0.0, SVG Export Plug-In . SVG Version: 6.00 Build 0)  -->
<svg version="1.1" id="图层_1" xmlns="http://www.w3.org/2000/svg" xmlns:xlink="http://www.w3.org/1999/xlink" x="0px" y="0px"
	 viewBox="0 0 20 20" style="enable-background:new 0 0 20 20;" xml:space="preserve">
<style type="text/css">
	.st0{fill:#9F9F9F;}
</style>
<title>menu_history_recovery</title>
<g id="menu_history_recovery">
	<path id="形状结合" class="st0" d="M10.1,0l0.3,0C15.7,0.2,20,4.6,20,10c0.1,4.8-3.3,8.9-8,9.8c-4.7,0.9-9.4-1.7-11.1-6.2
		c-0.1-0.6-0.1-1,0.4-1.3c0.6-0.2,1.1,0,1.3,0.6c1.2,3.1,4.2,5.1,7.5,5.1c4.5,0,8.1-3.6,8.1-8.1s-3.6-8.1-8.1-8.1
		c-2.8,0-5.4,1.5-6.9,3.8l0,0L3.1,5.8l2.3,0c0.5,0,0.9,0.4,0.9,0.9l0,0l0,0.1c0,0.5-0.4,0.9-0.9,1l0,0L1,7.9c-0.3,0-0.5-0.1-0.7-0.3
		C0.1,7.4,0,7.2,0,6.9l0,0l0-4.4c0-0.3,0-0.5,0.2-0.7s0.4-0.3,0.7-0.3c0.3,0,0.5,0.1,0.7,0.3S2,2.2,2,2.5l0,0l0,1.7l0-0.1
		C3.8,1.7,6.7,0.1,9.8,0l0,0L10.1,0z M9.7,4.9L9.7,4.9c0.5,0.1,0.9,0.5,0.9,1l0,0l0,4.7l3.5,1.6c0.2,0.1,0.3,0.2,0.4,0.4l0,0l0,0.1
		c0.1,0.2,0.1,0.5,0,0.8c-0.3,0.5-0.8,0.6-1.3,0.4l0,0L9.2,12c-0.3-0.2-0.5-0.5-0.5-0.9l0,0l0-5.2c0-0.3,0-0.5,0.2-0.7
		C9.1,5,9.4,4.9,9.7,4.9L9.7,4.9z"/>
</g>
</svg>
