<?xml version="1.0" encoding="utf-8"?>
<!-- Generator: Adobe Illustrator 24.0.0, SVG Export Plug-In . SVG Version: 6.00 Build 0)  -->
<svg version="1.1" id="图层_1" xmlns="http://www.w3.org/2000/svg" xmlns:xlink="http://www.w3.org/1999/xlink" x="0px" y="0px"
	 viewBox="0 0 20 20" style="enable-background:new 0 0 20 20;" xml:space="preserve">
<style type="text/css">
	.st0{fill:#9F9F9F;}
</style>
<title>menu_sync_share</title>
<g id="menu_sync_share">
	<path id="形状结合" class="st0" d="M6,9c0.6,0,1,0.4,1,1c0,0.6-0.4,1-1,1l-3.1,0l0,7.1h14.1l0-7.1L14,11c-0.6,0-1-0.4-1-1
		c0-0.6,0.4-1,1-1h4l0,0c0,0,0,0,0,0c0.5,0,1,0.4,1,1l0,0c0,0,0,0,0,0l0,0l0,9c0,0.5-0.4,0.9-1,0.9H2c-0.3,0-0.5-0.1-0.7-0.3
		S1,19.3,1,19.1V10c0-0.5,0.4-1,1-1l0,0c0,0,0,0,0,0H6z M10,0c0.3,0,0.5,0.1,0.7,0.3l5.2,5.2c0.3,0.3,0.4,0.7,0.2,1.1
		c-0.1,0.4-0.5,0.6-0.9,0.6c-0.3,0-0.5-0.1-0.7-0.3L11,3.3V13c-0.1,0.5-0.5,0.8-1,0.8c-0.5,0-0.9-0.3-1-0.8V3.3L5.5,6.8
		c-0.4,0.4-1,0.4-1.4,0c-0.4-0.4-0.4-1,0-1.4l5.2-5.2C9.5,0.1,9.7,0,10,0z"/>
</g>
</svg>
