<?xml version="1.0" encoding="utf-8"?>
<!-- Generator: Adobe Illustrator 24.0.0, SVG Export Plug-In . SVG Version: 6.00 Build 0)  -->
<svg version="1.1" id="图层_1" xmlns="http://www.w3.org/2000/svg" xmlns:xlink="http://www.w3.org/1999/xlink" x="0px" y="0px"
	 viewBox="0 0 1024 1024" style="enable-background:new 0 0 1024 1024;" xml:space="preserve">
<style type="text/css">
	.st0{fill-rule:evenodd;clip-rule:evenodd;fill:#5C83FF;}
	.st1{fill-rule:evenodd;clip-rule:evenodd;fill:#FFFFFF;}
</style>
<path id="矩形_9_" class="st0" d="M128,0h768c70.7,0,128,57.3,128,128v768c0,70.7-57.3,128-128,128H128C57.3,1024,0,966.7,0,896
	V128C0,57.3,57.3,0,128,0z"/>
<g id="nsmind-logo" transform="translate(8.000000, 8.000000)">
	<path id="Combined-Shape_7_" class="st1" d="M737.5,845.3c6.9-8.3,11.7-18.4,13.6-29.3c5.4-31.4,3.7-59.4-5.1-84.3
		c-20.5-57.8-67.8-111.5-128.6-145.1c-16.9,6.9-37.6,6.2-59.1-1.8c-2.8-1.1-4.8-3.5-5.3-6.4c-1.1-6.4-1.6-12.6-1.5-18.6
		c-84.6-23.7-173.8-13.5-238.9,33.8c-20.1,14.6-35.1,33.2-45.1,55.9c-7.9,18-6.9,38.6,2.8,55.8c31.5,55.5,99.7,102,204.6,139.4
		c0.3,0.1,0.6,0.2,0.9,0.3h-34.4c-71.2-27.4-149.3-69.7-173-104.3c-0.5-0.8-1-1.4-1.4-2.1l-1.6,4.7c-11.5,33.4-13,68.6-5.3,101.6
		l-83.4-0.1c-7.5,0-13.6-6.1-13.6-13.6l0,0V176.3c-0.2-7.5,5.9-13.6,13.4-13.6h152.3c27,0,51.5,15.9,62.4,40.7l101.3,229.2
		c2.8,6.4,10.4,9.3,16.8,6.5c2.9-1.3,5.2-3.6,6.5-6.5l101.3-229.2c11-24.8,35.4-40.7,62.5-40.7h152.3c7.5,0,13.6,6.1,13.6,13.6
		v655.4c0,7.5-6.1,13.6-13.6,13.6l0,0H737.5z M637.2,516.3c-19.8-7-39.2-5.6-52.6,5.6c-13.2,11-17.9,29.4-14.8,49.8
		c19.8,7,39.2,5.6,52.6-5.6C635.5,555,640.3,536.6,637.2,516.3z"/>
</g>
</svg>
