<svg id="be042509-d82e-4f9b-b0fa-1a889d92b60e" data-name="图层 1" xmlns="http://www.w3.org/2000/svg" viewBox="0 0 1024 1024"><title>nbmx</title><path d="M186.9,64c-18.4,0-33.4,14.7-33.4,32.6V927.4c0,17.9,15.1,32.6,33.4,32.6H837c18.4,0,33.4-14.7,33.4-32.6V259.5L670,64Z" style="fill:#5c83ff"/><path d="M669.9,64V226.9c0,17.9,15,32.6,33.4,32.6H870.5Z" style="fill:#7da8ff"/><path d="M413.8,401.9H579.1A16.88,16.88,0,0,0,596,385h0V279.9A16.88,16.88,0,0,0,579.1,263H354.9A16.94,16.94,0,0,0,338,279.9h0V385a16.94,16.94,0,0,0,16.9,16.9H380V521.6a16.88,16.88,0,0,0,16.9,16.9h46.2v35.7A16.94,16.94,0,0,0,460,591.1H649.1A16.94,16.94,0,0,0,666,574.2h0V469a16.94,16.94,0,0,0-16.9-16.9H460A16.94,16.94,0,0,0,443.1,469h0v35.7H413.8ZM377.6,296.8H556.3a5.91,5.91,0,0,1,5.9,5.9v59.6a5.91,5.91,0,0,1-5.9,5.9H377.6a5.91,5.91,0,0,1-5.9-5.9V302.7a6,6,0,0,1,5.9-5.9ZM482.7,485.9H626.4a5.83,5.83,0,0,1,5.8,5.9v59.6a5.91,5.91,0,0,1-5.9,5.9H482.7a5.89,5.89,0,0,1-5.9-5.8V491.9a6.06,6.06,0,0,1,5.9-6Z" style="fill:#fff"/><path d="M293.7,723.3h19.1L352,792.8l12.4,25.1h.8c-1-12.2-2.4-26.5-2.4-39.4V723.3h17.7V841.6H361.4l-39.2-69.8L309.8,747H309c1,12.2,2.4,25.9,2.4,38.8v55.8H293.7V723.3Z" style="fill:#fff"/><path d="M411.7,723.3h36.7c24.3,0,41.8,7.7,41.8,29.1,0,11.3-6.3,22-16.9,25.6v.8c13.5,2.9,23.3,12.1,23.3,28.1,0,23.5-19.1,34.7-45.3,34.7H411.7Zm34.6,49.4c18,0,25.6-6.8,25.6-17.8,0-12.4-8.4-17-25.1-17H430.4v34.9h15.9Zm2.9,54.3c18.5,0,29.1-6.6,29.1-21.1,0-13.3-10.3-19.1-29.1-19.1H430.4V827Z" style="fill:#fff"/><path d="M519,723.3h21.4l21.7,59.8c2.7,7.9,5.1,15.9,7.9,24h.8c2.7-8,5-16.1,7.7-24l21.4-59.8h21.5V841.6H604V783.1c0-10.6,1.4-25.9,2.4-36.7h-.6l-9.5,27.3-20.6,56.4H564.1l-20.7-56.4-9.3-27.3h-.6c.8,10.8,2.3,26,2.3,36.7v58.5H519Z" style="fill:#fff"/><path d="M673.4,780.5l-31.8-57.2h20.7L676.6,751c2.9,5.5,5.5,10.8,9,17.8h.8c3.1-7.1,5.3-12.4,8-17.8l14-27.7H728l-31.8,58.2,34.1,60.1H709.6L694,812.2c-3.1-5.9-6.1-12.1-9.8-19.3h-.6c-3.4,7.2-6.3,13.3-9.2,19.3l-15.1,29.4H639.5Z" style="fill:#fff"/></svg>