<?xml version="1.0" encoding="utf-8"?>
<!-- Generator: Adobe Illustrator 24.0.0, SVG Export Plug-In . SVG Version: 6.00 Build 0)  -->
<svg version="1.1" id="图层_1" xmlns="http://www.w3.org/2000/svg" xmlns:xlink="http://www.w3.org/1999/xlink" x="0px" y="0px"
	 viewBox="0 0 1024 1024" style="enable-background:new 0 0 1024 1024;" xml:space="preserve">
<style type="text/css">
	.st0{fill-rule:evenodd;clip-rule:evenodd;fill:#FAB458;}
	.st1{fill:#FFFFFF;}
</style>
<title>draw</title>
<desc>Created with Sketch.</desc>
<g id="draw">
	<path id="矩形" class="st0" d="M128,0h768c70.7,0,128,57.3,128,128v768c0,70.7-57.3,128-128,128H128C57.3,1024,0,966.7,0,896V128
		C0,57.3,57.3,0,128,0z"/>
	<g id="流程图" transform="translate(199.000000, 206.000000)">
		<path id="Shape" class="st1" d="M583.8,434.3h-24.3V333.6c0-32.1-26.4-58-59-58H339v-93.9h24.3c22.9,0,41.7-18.4,41.7-41v-99
			c0-22.5-18.7-41-41.7-41h-98.9c-22.9,0-41.7,18.4-41.7,41V139c0,22.5,18.7,41,41.7,41H287v93.9H125.6c-32.6,0-59,25.9-59,58v100.7
			H42.2c-22.9,0-41.7,18.4-41.7,41v97.3c0,22.5,18.7,41,41.7,41h98.9c22.9,0,41.7-18.4,41.7-41v-97.4c0-22.5-18.7-41-41.7-41h-20.8
			V331.9c0-3.4,3.5-5.1,6.9-5.1H287v105.8h-22.6c-22.9,0-41.7,18.4-41.7,41v97.3c0,22.5,18.7,41,41.7,41h98.9
			c22.9,0,41.7-18.4,41.7-41v-97.4c0-22.5-18.7-41-41.7-41H339V326.8h161.4c3.1,0,6.2,2,6.9,5.1v100.7h-22.5
			c-22.9,0-41.7,18.4-41.7,41v97.3c0,22.5,18.7,41,41.7,41h98.9c22.9,0,41.7-18.4,41.7-41v-97.4C624.4,451.7,606,434.3,583.8,434.3z
			"/>
	</g>
</g>
</svg>
