<?xml version="1.0" encoding="utf-8"?>
<!-- Generator: Adobe Illustrator 24.0.0, SVG Export Plug-In . SVG Version: 6.00 Build 0)  -->
<svg version="1.1" id="图层_1" xmlns="http://www.w3.org/2000/svg" xmlns:xlink="http://www.w3.org/1999/xlink" x="0px" y="0px"
	 viewBox="0 0 1024 1024" style="enable-background:new 0 0 1024 1024;" xml:space="preserve">
<style type="text/css">
	.st0{fill-rule:evenodd;clip-rule:evenodd;fill:#34C0F8;}
	.st1{fill:#FFFFFF;}
	.st2{fill:#34BFF7;}
</style>
<title>outline_notes</title>
<desc>Created with Sketch.</desc>
<g id="outline_notes">
	<path id="矩形" class="st0" d="M128,0h768c70.7,0,128,57.3,128,128v768c0,70.7-57.3,128-128,128H128C57.3,1024,0,966.7,0,896V128
		C0,57.3,57.3,0,128,0z"/>
	<g id="编组-2" transform="translate(208.000000, 175.000000)">
		<path class="st1" d="M546.9,318.9c-2.9,0-5.3,2.4-5.3,5.3v100.6c0,64.1-33.7,123.6-89.1,157.7L305.1,673l-146.8-87
			c-56.9-33.7-91.6-94.1-91.6-159.2V324.2c0-2.9-2.4-5.3-5.3-5.3H10.7c-3,0-5.8-1.2-7.8-3.4s-3.1-5-2.9-8l4.6-67.6
			c0-53.9,45.8-117.2,118.2-139.4c58-17.8,95-12.8,180.5-99.8l0.8-0.8l0.8,0.8c85.5,87,122.5,82,180.6,99.8
			c72.4,22.2,118.2,85.4,118.2,139.4l4.6,67.6c0.2,2.9-0.8,5.8-2.9,8c-2,2.2-4.8,3.4-7.8,3.4L546.9,318.9L546.9,318.9z"/>
		<path class="st2" d="M106.5,163.7c9.5-5.1,34.3-17.8,58.1-22.4c6.1-1.2,27-3.8,21.5-13.8c-5.2-9.3-16.2-10.1-33.4-4.1
			c-13.8,4.8-44.6,21.3-55.6,32.5c-6.5,6.7-6.3,11.4-2.1,11.7C98.2,167.9,103.7,165.2,106.5,163.7z"/>
		
			<ellipse id="椭圆形" transform="matrix(0.714 -0.7002 0.7002 0.714 -113.948 95.2624)" class="st2" cx="59.6" cy="187.1" rx="13.2" ry="6.5"/>
		<path class="st2" d="M299.2,359.5L197.8,460.8c-3.5,3.3-4.5,8.5-2.7,12.9s6.2,7.3,11.1,7.2h5l171-73.7c4-1.7,7.1-5.1,8.4-9.2
			l27.7-98.8l5.9,5c6,4.1,14,3.4,19.2-1.8c5.1-5.1,5.9-13.2,1.8-19.2l-85.5-84.6c-3.4-5-9.5-7.5-15.4-6.4
			c-5.9,1.2-10.5,5.9-11.7,11.8s1.3,12,6.3,15.3l5,5l-98.2,27.8c-4.2,1.3-7.5,4.4-9.2,8.4l-74.6,170.8c-1.8,3.7-1.4,8,0.8,11.4
			s6,5.4,10.1,5.4c3.1,0,6.1-1.2,8.4-3.4l101.4-102.2c-1.5-3.4-2.4-7.1-2.6-10.9c0-12.2,7.3-23.2,18.6-27.9
			c11.3-4.7,24.3-2.1,32.9,6.5s11.2,21.6,6.6,32.9c-4.7,11.3-15.7,18.6-27.9,18.6L299.2,359.5z"/>
	</g>
</g>
</svg>
