<?xml version="1.0" encoding="utf-8"?>
<!-- Generator: Adobe Illustrator 24.0.0, SVG Export Plug-In . SVG Version: 6.00 Build 0)  -->
<svg version="1.1" id="图层_1" xmlns="http://www.w3.org/2000/svg" xmlns:xlink="http://www.w3.org/1999/xlink" x="0px" y="0px"
	 viewBox="0 0 48 48" style="enable-background:new 0 0 48 48;" xml:space="preserve">
<style type="text/css">
	.st0{fill-rule:evenodd;clip-rule:evenodd;fill:#1DD999;}
	.st1{fill:#FFFFFF;}
</style>
<path id="Rectangle_1_" class="st0" d="M6,0h36c3.3,0,6,2.7,6,6v36c0,3.3-2.7,6-6,6H6c-3.3,0-6-2.7-6-6V6C0,2.7,2.7,0,6,0z"/>
<path id="形状结合_18_" class="st1" d="M32.2,10.5c1.4,0,2.6,1.2,2.6,2.6l0,0v7c-0.1,0.1-8.6,8.6-8.6,8.6
	c-0.2,0.2-0.3,0.4-0.5,0.6c-0.1,0.2-0.2,0.3-0.3,0.5c-0.1,0.2-0.2,0.4-0.2,0.6c-0.1,0.2-0.2,0.5-0.2,0.8c-0.1,0.3-0.2,0.5-0.2,0.8
	c-0.1,0.3-0.1,0.6-0.2,0.8c-0.1,0.6,0,1.1,0.4,1.6c0.3,0.4,0.9,0.7,1.4,0.6c0.1,0,0.2,0,0.3,0h0.1c0.2,0,0.5-0.1,0.7-0.2
	c0.3-0.1,0.5-0.2,0.8-0.3c0.3-0.1,0.6-0.2,0.8-0.3c0.3-0.1,0.5-0.2,0.7-0.3c0.2-0.1,0.4-0.2,0.6-0.4c0.1-0.1,0.3-0.2,0.4-0.3l0,0
	l0.4-0.4c0.2-0.2,0.4-0.5,0.7-0.8l2.9-3.1v5.7c0,1.4-1.2,2.6-2.6,2.6H12.6c-1.4,0-2.6-1.2-2.6-2.6l0,0V13.1c0-1.4,1.2-2.6,2.6-2.6
	H32.2z M33.4,23.3L36,26L33,29l-1.1,1.2c-0.4,0.4-0.7,0.7-1,1c-0.3,0.3-0.5,0.6-0.7,0.8c-0.1,0.1-0.2,0.2-0.4,0.3
	c-0.1,0.1-0.2,0.2-0.3,0.3c-0.1,0.1-0.2,0.2-0.4,0.2c-0.2,0.1-0.4,0.2-0.6,0.2c-0.2,0.1-0.5,0.2-0.7,0.2l-0.1,0
	c-0.3,0.1-0.5,0.2-0.8,0.2c-0.2,0.1-0.4,0.1-0.5,0.1c-0.1,0-0.1,0-0.2,0c-0.1,0-0.3,0-0.4-0.1c-0.1-0.2-0.1-0.3-0.1-0.5
	c0-0.2,0.1-0.4,0.1-0.6c0.1-0.3,0.1-0.5,0.2-0.8c0.1-0.3,0.2-0.5,0.2-0.8c0-0.2,0.1-0.3,0.2-0.5c0-0.1,0.1-0.2,0.2-0.4
	c0.1-0.1,0.2-0.2,0.3-0.4c0.1-0.1,0.2-0.2,0.4-0.4c0.2-0.2,0.5-0.5,0.8-0.8l1-1l1.1-1.2L33.4,23.3z M20.9,28.6h-4.8
	c-0.6,0-1.1,0.5-1.1,1.1c0,0.6,0.5,1,1.1,1.1h4.8c0.6,0,1.1-0.5,1.1-1.1C22,29.1,21.5,28.6,20.9,28.6C20.9,28.6,20.9,28.6,20.9,28.6
	L20.9,28.6z M24.4,22.9h-8.3c-0.6,0-1.1,0.5-1.1,1.1c0,0.6,0.5,1,1.1,1.1h8.3c0.6,0,1.1-0.5,1.1-1.1C25.5,23.4,25,22.9,24.4,22.9
	C24.4,22.9,24.4,22.9,24.4,22.9L24.4,22.9z M36,21.3c0.1,0,0.3,0,0.4,0.1c0.1,0,0.2,0.1,0.3,0.1c0.2,0.1,0.5,0.3,0.6,0.5
	c0.2,0.2,0.4,0.5,0.5,0.8c0,0.1,0.1,0.2,0.1,0.3c0,0.1,0,0.2,0,0.4c0,0.1,0,0.3-0.1,0.4c-0.1,0.1-0.1,0.2-0.2,0.4
	c-0.1,0.1-0.2,0.2-0.3,0.3l-0.2,0.2L37,24.9l-2.6-2.7c0.1-0.1,0.2-0.2,0.4-0.4c0.2-0.2,0.3-0.3,0.4-0.4c0.1-0.1,0.3-0.2,0.4-0.2
	C35.7,21.3,35.8,21.3,36,21.3L36,21.3z M28.7,17.3H16.1c-0.6,0-1.1,0.5-1.1,1.1c0,0.6,0.5,1,1.1,1.1h12.6c0.6,0,1.1-0.5,1.1-1.1
	C29.7,17.7,29.3,17.3,28.7,17.3z"/>
</svg>
