<?xml version="1.0" encoding="utf-8"?>
<!-- Generator: Adobe Illustrator 24.0.0, SVG Export Plug-In . SVG Version: 6.00 Build 0)  -->
<svg version="1.1" id="图层_1" xmlns="http://www.w3.org/2000/svg" xmlns:xlink="http://www.w3.org/1999/xlink" x="0px" y="0px"
	 viewBox="0 0 1024 1024" style="enable-background:new 0 0 1024 1024;" xml:space="preserve">
<style type="text/css">
	.st0{fill-rule:evenodd;clip-rule:evenodd;fill:#0795E3;}
	.st1{fill:#FFFFFF;}
</style>
<title>outlook</title>
<desc>Created with Sketch.</desc>
<g id="outlook">
	<path id="矩形" class="st0" d="M128,0h768c70.7,0,128,57.3,128,128v768c0,70.7-57.3,128-128,128H128C57.3,1024,0,966.7,0,896V128
		C0,57.3,57.3,0,128,0z"/>
	<g id="microsoftoutlook" transform="translate(204.000000, 221.000000)">
		<path id="Shape" class="st1" d="M615.2,171.5v273.1c0.3,5.9-2.2,11.6-6.8,15.4c-4,4.2-9.6,6.6-15.4,6.8H376.3V284.2l41,32.4
			l10.2,3.4l10.2-3.4L615.2,171.5z M376.3,118.6h218.4c5.1-0.2,10,1.6,13.7,5.1c3.6,3.8,6,8.5,6.8,13.7L425.8,291l-51.2-41V118.6
			H376.3z M343.8,0.9v580.2l-343-61.4V64L343.8,0.9z M239.7,292.7c0.5-26.2-7.3-51.9-22.2-73.4c-12.5-18.1-32.7-29.4-54.6-30.7
			c-21.9,1.6-41.9,12.8-54.6,30.7c-15.6,21.2-23.5,47.1-22.2,73.4c-0.3,26.2,7.5,51.8,22.2,73.4c12.9,17.7,32.8,28.9,54.6,30.7
			c22.1-0.8,42.4-12.2,54.6-30.7C233.7,345.2,241.6,319.1,239.7,292.7L239.7,292.7z M161.2,227.8c11.9,0.8,22.3,8,27.3,18.8
			c7.9,14.1,12,30,11.9,46.1c1,16.2-3.2,32.4-11.9,46.1c-5.5,10.4-15.7,17.4-27.3,18.8c-12.1,0.1-23-7.4-27.3-18.8
			c-10-13.2-14.9-29.6-13.7-46.1c-1-16.2,3.2-32.4,11.9-46.1C138.7,236.5,149.3,229.7,161.2,227.8L161.2,227.8z"/>
	</g>
</g>
</svg>
