<svg xmlns="http://www.w3.org/2000/svg" width="20" height="20" viewBox="0 0 20 20">
  <defs>
    <style>
      .cls-1 {
        fill: #9f9f9f;
      }
    </style>
  </defs>
  <path id="undo" class="cls-1" d="M88.7,70.1a10.083,10.083,0,0,0-6.335-5.662A10.236,10.236,0,0,0,73.9,65.577l-.785-.991a.566.566,0,0,0-.972.152l-1.589,4.318a.55.55,0,0,0,.085.533.566.566,0,0,0,.5.211l4.626-.48a.562.562,0,0,0,.459-.336.55.55,0,0,0-.075-.559l-.859-1.085a7.958,7.958,0,0,1,9.211.749,7.717,7.717,0,0,1,2.154,8.876,7.91,7.91,0,0,1-14.931-1.093,1.117,1.117,0,0,0-.776-.842,1.136,1.136,0,0,0-1.119.273,1.1,1.1,0,0,0-.289,1.1,10.068,10.068,0,0,0,7.539,7.328,10.2,10.2,0,0,0,10.036-3.3A9.9,9.9,0,0,0,88.7,70.1Z" transform="translate(-69.498 -63.992)"/>
</svg>
