<?xml version="1.0" encoding="utf-8"?>
<!-- Generator: Adobe Illustrator 24.0.0, SVG Export Plug-In . SVG Version: 6.00 Build 0)  -->
<svg version="1.1" id="图层_1" xmlns="http://www.w3.org/2000/svg" xmlns:xlink="http://www.w3.org/1999/xlink" x="0px" y="0px"
	 viewBox="0 0 1024 1024" style="enable-background:new 0 0 1024 1024;" xml:space="preserve">
<style type="text/css">
	.st0{fill-rule:evenodd;clip-rule:evenodd;fill:#339FFF;}
	.st1{fill:#FFFFFF;}
	.st2{fill:#C2E5FF;}
</style>
<title>scanner</title>
<desc>Created with Sketch.</desc>
<g id="scanner">
	<path id="矩形" class="st0" d="M128,0h768c70.7,0,128,57.3,128,128v768c0,70.7-57.3,128-128,128H128C57.3,1024,0,966.7,0,896V128
		C0,57.3,57.3,0,128,0z"/>
	<path id="形状" class="st1" d="M274.8,556.4v119.4c-0.3,10.8,0.3,21.7,1.7,32.4c-0.3,4,0.3,8.1,1.7,11.9
		c20,98.6,101.4,173.1,201.4,184.4c8.7,8.2,20.4,12.5,32.4,12V541l-223.6,3.4C281.5,544.4,275.7,549.5,274.8,556.4L274.8,556.4z
		 M343.1,754.4c8.5-3.4,13.7-1.7,22.2,15.4c15.4,34.2,37.5,64.9,64.9,90.5c-51.2-27.3-78.5-44.4-93.9-83.6
		C332.3,768.6,335.2,758.8,343.1,754.4L343.1,754.4z"/>
	<path id="路径" class="st1" d="M238.9,503.5c0,10.2,6.8,22.2,17.1,20.5h256V285C385.7,285,238.9,368.6,238.9,503.5z"/>
	<path class="st1" d="M440.3,107.5c-1.7,3.4-1.7,6.8-3.4,10.2c-10.5,56.4,25.8,110.9,81.9,122.9c1.9-3.1,3.1-6.6,3.4-10.2
		C532.7,174,496.4,119.5,440.3,107.5L440.3,107.5z"/>
	<polygon class="st2" points="665.6,541 750.9,691.2 750.9,672.4 675.8,541 	"/>
	<polygon class="st2" points="512,757.8 590.5,892.6 599,889.2 512,739 	"/>
	<polygon class="st2" points="512,916.5 520.5,914.8 512,901.1 	"/>
	<polygon class="st2" points="512,812.4 563.2,901.1 573.4,901.1 512,793.6 	"/>
	<polygon class="st2" points="512,704.9 614.4,884.1 622.9,878.9 512,686.1 	"/>
	<polygon class="st2" points="634.9,541 745.8,732.2 749.2,720.2 645.1,541 	"/>
	<polygon class="st2" points="512,865.3 535.9,907.9 541,902.8 542.7,902.8 512,846.5 	"/>
	<polygon class="st2" points="573.4,541 718.5,793.6 723.6,783.4 583.7,541 	"/>
	<polygon class="st2" points="604.2,541 733.9,764.6 739,752.6 614.4,541 	"/>
	<polygon class="st2" points="696.3,541 750.9,638.3 750.9,619.5 706.6,541 	"/>
	<polygon class="st2" points="727,541 750.9,585.4 750.9,566.6 737.3,541 	"/>
	<polygon class="st2" points="512,541 512,544.4 682.7,838 689.5,831.1 522.2,541 	"/>
	<polygon class="st2" points="512,595.6 662.2,855 669,848.2 512,576.9 	"/>
	<polygon class="st2" points="512,650.2 638.3,870.4 646.8,865.3 512,631.5 	"/>
	<polygon class="st2" points="542.7,541 703.1,817.5 710,809 553,541 	"/>
	<polygon class="st2" points="532.5,523.9 512,488.1 512,508.6 520.5,523.9 	"/>
	<polygon class="st2" points="660.5,523.9 522.2,285 512,285 512,288.4 648.5,523.9 	"/>
	<polygon class="st2" points="564.9,523.9 512,433.5 512,454 553,523.9 	"/>
	<polygon class="st2" points="657.1,319.1 774.8,522.2 783.4,515.4 674.1,329.4 	"/>
	<path class="st2" d="M778.2,452.3l-44.4-75.1l-25.6-25.6L785,484.7C783.5,473.7,781.3,462.9,778.2,452.3L778.2,452.3z"/>
	<polygon class="st2" points="723.6,523.9 592.2,295.3 578.6,291.8 711.7,523.9 	"/>
	<polygon class="st2" points="691.2,525.7 556.4,288.4 542.7,288.4 679.3,525.7 	"/>
	<polygon class="st2" points="597.3,523.9 512,378.9 512,399.4 583.7,523.9 	"/>
	<polygon class="st2" points="616.1,302.1 744.1,523.9 756.1,523.9 631.5,307.2 	"/>
	<polygon class="st2" points="628.1,522.2 512,322.6 512,343 616.1,522.2 	"/>
</g>
</svg>
