<svg xmlns="http://www.w3.org/2000/svg" width="48" height="48" viewBox="0 0 48 48">
  <defs>
    <style>
      .cls-1 {
        fill: #9f9f9f;
      }
    </style>
  </defs>
  <g id="bookmarks_empty" transform="translate(-8.901 -7.939)">
    <path id="路径_4477" data-name="路径 4477" class="cls-1" d="M13.394,55.939h-.056a5.184,5.184,0,0,1-3.126-1.159,4.492,4.492,0,0,1-1.3-2.9q0-.042,0-.084V37.725a8.653,8.653,0,0,1,.354-2.8,10.368,10.368,0,0,1,.976-2.273l4.237-7.43c.021-.037.043-.073.067-.108a6.762,6.762,0,0,1,1.816-1.8,5.327,5.327,0,0,1,2.62-.682H45.737c.035,0,.068,0,.1,0a7,7,0,0,1,2.716.739,7.708,7.708,0,0,1,2,1.789,1.491,1.491,0,0,1,.088.125l5.031,7.9c.021.035.043.072.063.109a11.467,11.467,0,0,1,.845,2.1,11.39,11.39,0,0,1,.317,2.162l0,.068V51.7a4.151,4.151,0,0,1-1.347,3.089,5.186,5.186,0,0,1-3.29,1.15H13.394Zm-.431-21.593a7.679,7.679,0,0,0-.623,1.5,5.509,5.509,0,0,0-.217,1.827V51.738l0,.023a1.445,1.445,0,0,0,.272.679l.021.023.025.018a2.471,2.471,0,0,0,.97.268h38.85a2.065,2.065,0,0,0,1.141-.337.98.98,0,0,0,.28-.607l0-.1V37.679a8.118,8.118,0,0,0-.213-1.463,8.132,8.132,0,0,0-.547-1.361l-.018-.031-4.937-7.758-.016-.018a4.649,4.649,0,0,0-.995-.9,3.957,3.957,0,0,0-1.268-.319H18.984a2.247,2.247,0,0,0-.928.2,3.678,3.678,0,0,0-.806.812l-.013.017-4.209,7.383-.046.076v0s-.02.036-.02.036ZM32.75,20.3A1.6,1.6,0,0,1,31.142,18.7V9.534a1.608,1.608,0,0,1,3.216,0V18.7A1.6,1.6,0,0,1,32.75,20.3Zm10.78-.06a1.592,1.592,0,0,1-1.249-2.6l3.676-4.494a1.615,1.615,0,0,1,2.261-.234,1.585,1.585,0,0,1,.237,2.242L44.78,19.646a1.6,1.6,0,0,1-1.248.59h0Zm-21.378-.122a1.6,1.6,0,0,1-1.256-.6l-3.613-4.494a1.6,1.6,0,0,1,1.256-2.588,1.607,1.607,0,0,1,1.258.6l3.614,4.494a1.586,1.586,0,0,1-.254,2.24,1.622,1.622,0,0,1-1,.348h0Z" transform="translate(0)"/>
    <path id="路径_4478" data-name="路径 4478" class="cls-1" d="M41.541,647.6a7.785,7.785,0,0,1-7.567-5.865l-.071-.278-14.277-.009a1.615,1.615,0,0,1,0-3.23l15.721.01a1.614,1.614,0,0,1,1.607,1.616,4.579,4.579,0,0,0,9.157,0,1.615,1.615,0,0,1,1.607-1.615l15.576-.01a1.615,1.615,0,0,1,0,3.23l-14.133.008-.07.279A7.773,7.773,0,0,1,41.54,647.6Z" transform="translate(-8.729 -603.887)"/>
  </g>
</svg>
