<?xml version="1.0" encoding="utf-8"?>
<!-- Generator: Adobe Illustrator 24.0.0, SVG Export Plug-In . SVG Version: 6.00 Build 0)  -->
<svg version="1.1" id="图层_1" xmlns="http://www.w3.org/2000/svg" xmlns:xlink="http://www.w3.org/1999/xlink" x="0px" y="0px"
	 viewBox="0 0 16 16" style="enable-background:new 0 0 16 16;" xml:space="preserve">
<style type="text/css">
	.st0{fill:#9F9F9F;}
</style>
<g id="search_icon" transform="translate(0 -0.3)">
	<path id="路径_4330" class="st0" d="M6.9,14.1C3.1,14.1,0,11,0,7.2s3.1-6.9,6.9-6.9c3.8,0,6.9,3.1,6.9,6.9c0,0,0,0,0,0
		C13.8,11,10.7,14.1,6.9,14.1 M6.9,2C4,2,1.7,4.3,1.7,7.2s2.3,5.2,5.2,5.2c2.9,0,5.2-2.3,5.2-5.2c0,0,0,0,0,0C12.1,4.3,9.8,2,6.9,2"
		/>
	<path id="路径_4331" class="st0" d="M15,16.3c-0.3,0-0.5-0.1-0.7-0.3l-3.6-3.6c-0.4-0.4-0.4-1.1,0-1.5c0.4-0.4,1.1-0.4,1.5,0l0,0
		l3.6,3.6c0.4,0.4,0.4,1.1,0,1.5C15.5,16.2,15.2,16.3,15,16.3"/>
</g>
</svg>
