<?xml version="1.0" encoding="utf-8"?>
<!-- Generator: Adobe Illustrator 24.0.0, SVG Export Plug-In . SVG Version: 6.00 Build 0)  -->
<svg version="1.1" id="图层_1" xmlns="http://www.w3.org/2000/svg" xmlns:xlink="http://www.w3.org/1999/xlink" x="0px" y="0px"
	 viewBox="0 0 20 20" style="enable-background:new 0 0 20 20;" xml:space="preserve">
<style type="text/css">
	.st0{fill:#419CFF;}
</style>
<title>sidebar_recommended</title>
<g id="sidebar_recommended">
	<path id="形状结合" class="st0" d="M19.9,0L20,0.1v9.5l-10,10C9.8,19.9,9.5,20,9.1,20c-0.3,0-0.6-0.1-0.8-0.4l0,0l-7.9-7.9
		C0.1,11.5,0,11.2,0,10.9c0-0.3,0.1-0.6,0.4-0.9l0,0l2.1-2.1L10.4,0H19.9z M18.7,1.3h-7.9L3.9,8.2v0.2l7.7,7.7h0.2l6.9-7l0.1-7.7
		C18.8,1.4,18.8,1.3,18.7,1.3C18.7,1.3,18.7,1.3,18.7,1.3L18.7,1.3z M14.4,3.3c1.2,0,2.2,1,2.2,2.2c0,1.2-1,2.2-2.2,2.2
		s-2.2-1-2.2-2.2S13.2,3.3,14.4,3.3z M14.4,4.4c-0.6,0-1.1,0.5-1.1,1.1s0.5,1.1,1.1,1.1c0.6,0,1.1-0.5,1.1-1.1
		C15.5,4.9,15,4.4,14.4,4.4z"/>
</g>
</svg>
