<svg id="b21ee5ca-3ce3-461a-ab5e-626ab58fb0cd" data-name="图层 1" xmlns="http://www.w3.org/2000/svg" viewBox="0 0 1024 1024"><title>sidebar_folder</title><g id="bf283d72-0299-4430-b599-2ac91674343b" data-name="sidebar folder selected"><path id="a5e1702d-5903-4773-8d24-f50172cc4689" data-name="Combined-Shape" d="M97.16,793C92,818.51,71.59,839,46,833.84s-46-20.43-46-46v-705C0,36.9,35.79,1.14,81.82,1.14h153.4c20.45,0,40.91,10.22,56.25,25.55l61.36,56.19q7.67,15.33,30.68,15.33H930.65a46,46,0,1,1,0,92H352.83c-20.45,0-40.91-10.22-56.25-25.54l-56.25-56.2c-10.22-5.11-20.45-10.21-35.79-10.21H97.16v240.1c20.45-20.44,51.13-30.65,81.81-30.65H920.43q46,0,76.7,30.65c20.45,20.43,30.68,51.08,25.57,81.74-46,291.18-71.59,500.64-71.59,500.64-10.23,61.3-61.36,102.17-122.73,102.17H112.5a46,46,0,1,1,0-92H828.38c15.34,0,25.57-10.21,25.57-25.54l71.59-495.53c0-5.11,0-10.22-5.11-10.22H179c-15.34,0-25.57,10.22-30.68,25.54L97.16,787.86h0Z"/></g></svg>