<?xml version="1.0" encoding="utf-8"?>
<!-- Generator: Adobe Illustrator 24.0.0, SVG Export Plug-In . SVG Version: 6.00 Build 0)  -->
<svg version="1.1" id="图层_1" xmlns="http://www.w3.org/2000/svg" xmlns:xlink="http://www.w3.org/1999/xlink" x="0px" y="0px"
	 viewBox="0 0 20 20" style="enable-background:new 0 0 20 20;" xml:space="preserve">
<style type="text/css">
	.st0{fill:#9F9F9F;}
</style>
<title>sidebar_web</title>
<g id="sidebar_web">
	<path id="形状结合" class="st0" d="M11.7,0.1c4.2,0.8,7.4,4,8.2,8.2c0.5,3.2-0.5,6.4-2.8,8.7s-5.5,3.3-8.7,2.8
		c-4.2-0.7-7.4-4-8.2-8.2C-0.4,8.5,0.7,5.2,3,3S8.5-0.4,11.7,0.1z M9.3,14.9H8.7H8.2V15c0.5,1.7,1.3,3,1.6,3.1h0.1
		c0.3,0,1.2-1.4,1.6-3.1v-0.1H11C10.5,14.9,10,14.9,9.3,14.9z M13.5,15.2l-0.1,0.3c-0.2,0.8-0.4,1.5-0.7,2.1l-0.1,0.2h0.1
		c1.2-0.4,2.2-1.1,3.1-2l0.1-0.1l-0.5-0.1c-0.4-0.1-0.9-0.2-1.3-0.2L13.5,15.2z M6.5,15.2l-0.6,0.1c-0.4,0.1-0.9,0.2-1.3,0.2
		l-0.4,0.1l0.1,0.1C5,16.5,6,17.2,7.1,17.6l0.3,0.1v-0.1c-0.4-0.7-0.6-1.4-0.8-2.2L6.5,15.2z M18,11h-4v0.4c0,0.5-0.1,1-0.1,1.5
		l-0.1,0.4l0.5,0.1c0.8,0.1,1.5,0.3,2.3,0.5l0.4,0.1l0.1-0.1c0.5-0.8,0.8-1.7,0.9-2.7V11z M5.9,11H2v0.2c0.1,0.9,0.4,1.8,0.8,2.6
		L3,14.1L3.3,14c0.8-0.2,1.6-0.4,2.4-0.5h0.4L6,12.9c0-0.4-0.1-0.9-0.1-1.3V11z M12.3,11H7.9v0.4c0,0.5,0.1,0.9,0.1,1.4v0.4h0.4
		c1.1-0.1,2.2-0.1,3.3,0l0.4,0.1l0.1-0.4c0.1-0.5,0.1-0.9,0.1-1.4V11z M3,6L2.9,6.2C2.4,7,2.1,7.9,1.9,8.8V9h4V8.7
		C5.9,8.1,6,7.5,6.1,7l0.1-0.3L5.7,6.6C4.9,6.5,4.1,6.4,3.4,6.2L3,6z M7.8,6.9v0.4C7.7,7.7,7.7,8.2,7.7,8.7v0.4h4.5V8.7
		c0-0.5-0.1-0.9-0.1-1.4V6.9L11.7,7c-1.1,0.1-2.2,0.1-3.3,0L7.8,6.9z M17.1,6l-0.5,0.1L16,6.3l-0.6,0.1l-0.6,0.1l-0.9,0.2L14,7.2
		c0,0.4,0.1,0.9,0.1,1.3v0.4l4,0.1V8.8C18,7.9,17.7,7,17.2,6.2L17.1,6z M10,1.9C9.7,1.9,8.8,3.3,8.4,5v0.1h0.5c0.8,0,1.6,0,2.4,0
		h0.5V5C11.2,3.3,10.4,2,10,1.9L10,1.9z M12.6,2.4L12.6,2.4c0.4,0.7,0.7,1.5,0.9,2.2l0.1,0.3l0.6-0.1c0.4-0.1,0.9-0.2,1.3-0.2
		l0.4-0.1l-0.1-0.1C15,3.6,14,2.9,12.9,2.5L12.6,2.4z M7.4,2.2L7.2,2.3C6,2.7,5,3.4,4.1,4.3L4,4.5l0.5,0.1C5,4.7,5.4,4.7,5.8,4.8
		l0.6,0.1l0.1-0.4C6.7,3.8,7,3.1,7.3,2.4L7.4,2.2z"/>
</g>
</svg>
