<svg id="a9308544-4ce0-4840-9a9d-5b63fd07de44" data-name="图层 1" xmlns="http://www.w3.org/2000/svg" viewBox="0 0 1024 1024"><title>sidebar_bookmark</title><g id="b4c906a6-3e44-4013-a32d-e9914186b23d" data-name="sidebar bookmarks"><path id="b52b487e-95b1-4256-87e2-807b58c30b13" data-name="star" d="M324,309.63,39.51,355.37H34.43c-35.56,10.17-45.72,55.91-20.32,81.32L227.48,660.3,176.67,965.24v5.08c0,35.57,35.57,61,71.13,45.74L512,873.76l264.17,142.3h5.08c35.56,15.24,71.12-15.25,66-50.82L796.45,660.3l213.37-223.61,5.08-5.09c20.32-25.41,5.08-71.15-30.48-76.23L679.61,309.63,547.53,30.11c-15.25-35.58-66-35.58-86.37,0ZM501.8,162.25,603.41,375.7l5.08,5.08c5.08,10.17,20.32,20.33,30.48,20.33l223.52,35.58L694.85,609.48v5.08c-5.08,10.17-10.16,25.41-10.16,35.58l40.64,233.78L527.2,777.19h-5.08c-15.24-5.08-25.4-5.08-40.64,0L283.36,883.92,324,650.14v-5.08c0-10.17-5.08-25.41-15.24-35.58L141.11,436.69l223.53-35.58c15.24,0,30.48-10.16,35.56-25.41Z"/></g></svg>