<svg id="e9ea92ab-ce8d-433c-b402-46a17778071c" data-name="图层 1" xmlns="http://www.w3.org/2000/svg" viewBox="0 0 1024 1024"><title>sidebar_account</title><g id="ff663298-43f8-47b7-b3d8-c052cc883093" data-name="sidebar account"><path id="e7efc6b2-5ef6-470a-86b0-e9f4baa268a5" data-name="形状结合" d="M512,0c281.6,0,512,230.4,512,512,0,148.48-66.56,291.84-179.2,389.12l-10.24,10.24L819.2,921.6l-15.36,10.24A505.71,505.71,0,0,1,512,1024C230.4,1024,0,793.6,0,512S230.4,0,512,0ZM450.56,742.4l-10.24,5.12C389.12,762.88,343,803.84,327.68,855v5.12c51.2,25.6,102.4,46.08,158.72,51.2h30.72c61.44,0,117.76-15.36,174.08-41l15.36-5.12v-5.12a153.36,153.36,0,0,0-97.28-97.28L599,757.76l-10.24-5.12c-15.36-5.12-30.72-10.24-51.2-10.24H512C491.52,732.16,471,737.28,450.56,742.4ZM512,97.28C281.6,97.28,97.28,281.6,97.28,512c0,102.4,41,204.8,107.52,281.6L215,803.84l10.24,10.24,5.12-10.24c30.72-61.44,76.8-107.52,133.12-138.24l10.24-5.12L384,655.36l-5.12-10.24c-46.08-51.2-71.68-112.64-71.68-179.2V450.56c-5.12-128,92.16-245.76,204.8-245.76S721.92,317.44,721.92,455.68c0,66.56-20.48,133.12-66.56,184.32l-10.24,10.24L640,655.36l10.24,5.12c56.32,25.6,107.52,71.68,133.12,133.12l5.12,10.24,5.12,10.24,10.24-10.24c76.8-76.8,122.88-174.08,122.88-281.6V506.88C926.72,281.6,742.4,97.28,512,97.28Zm0,209.92c-56.32,0-107.52,71.68-107.52,153.6S455.68,614.4,512,614.4s107.52-71.68,107.52-153.6S568.32,307.2,512,307.2Z"/></g></svg>