<svg id="a2d61b93-5b00-4592-b0a1-e22d8472b9b6" data-name="图层 1" xmlns="http://www.w3.org/2000/svg" viewBox="0 0 1024 1024"><title>sidebar_revisions</title><path id="b5cd85f6-7759-4c03-8549-d6a48ee09ecb" data-name="Combined-Shape" d="M558.55,526.64l244.5,47.53a46.54,46.54,0,1,1-17.76,91.38L511.14,612.26A60.6,60.6,0,0,1,481,596a51.93,51.93,0,0,1-15.55-37.45V232.73a46.55,46.55,0,1,1,93.1,0Z"/><path id="e5901721-3010-4bf8-9a4b-452a31ac2d85" data-name="Oval-2" d="M512,1024C229.23,1024,0,794.77,0,512S229.23,0,512,0s512,229.23,512,512S794.77,1024,512,1024Zm0-93.09c231.36,0,418.91-187.55,418.91-418.91S743.36,93.09,512,93.09,93.09,280.64,93.09,512,280.64,930.91,512,930.91Z"/></svg>