<svg id="be0cd68e-c463-4161-83ef-0236973e8214" data-name="图层 1" xmlns="http://www.w3.org/2000/svg" viewBox="0 0 1024 1024"><title>sidebar_set</title><g id="ae10e2d1-a296-42d8-bce6-90dfd9e2d04d" data-name="sidebar set"><path id="f5caf785-74e7-433b-bfbf-f60a501f906b" data-name="形状结合" d="M686.52,52.57c56.46,0,112.92,30.8,138.58,77l179.65,308a153.5,153.5,0,0,1,0,148.86l-179.65,308c-30.79,51.33-82.12,77-138.58,77h-349c-56.46,0-112.92-30.8-138.58-77l-179.65-308a153.5,153.5,0,0,1,0-148.86l179.65-308c25.66-46.2,82.12-77,138.58-77Zm0,102.67h-349c-20.53,0-41.06,10.26-51.32,25.66l-179.65,308c-5.14,15.4-5.14,35.93,0,51.33l179.65,308c10.26,15.4,30.79,25.67,51.32,25.67h349c20.53,0,41.06-10.27,51.32-25.67l179.65-308q15.4-23.1,0-46.2L737.84,186C727.58,165.5,707.05,155.24,686.52,155.24ZM512,304.1c118.06,0,210.45,92.4,210.45,210.47S630.06,725,512,725s-210.45-92.4-210.45-210.46S393.94,304.1,512,304.1ZM512,417c-51.33,0-97.52,46.2-97.52,97.54S460.67,612.1,512,612.1s97.52-46.2,97.52-97.53S563.33,417,512,417Z"/></g></svg>