<?xml version="1.0" encoding="utf-8"?>
<!-- Generator: Adobe Illustrator 24.0.0, SVG Export Plug-In . SVG Version: 6.00 Build 0)  -->
<svg version="1.1" id="图层_1" xmlns="http://www.w3.org/2000/svg" xmlns:xlink="http://www.w3.org/1999/xlink" x="0px" y="0px"
	 viewBox="0 0 20 20" style="enable-background:new 0 0 20 20;" xml:space="preserve">
<style type="text/css">
	.st0{fill:#F56C6C;}
</style>
<title>status_sync_error</title>
<g id="status_sync_error">
	<path id="形状" class="st0" d="M10,0c5.5,0,10,4.5,10,10s-4.5,10-10,10S0,15.5,0,10S4.5,0,10,0z M10,1.4c-4.7,0-8.6,3.8-8.6,8.6
		s3.8,8.6,8.6,8.6s8.6-3.8,8.6-8.6S14.7,1.4,10,1.4z M12.8,6.2c0.3-0.3,0.7-0.3,1,0c0.3,0.3,0.3,0.7,0,1L11,10l2.8,2.8
		c0.3,0.3,0.3,0.7,0,1c-0.3,0.3-0.7,0.3-1,0L10,11l-2.8,2.8c-0.3,0.3-0.7,0.3-1,0c-0.3-0.3-0.3-0.7,0-1L9,10L6.2,7.2
		c-0.3-0.3-0.3-0.7,0-1c0.3-0.3,0.7-0.3,1,0L10,9L12.8,6.2z"/>
</g>
</svg>
