<?xml version="1.0" encoding="utf-8"?>
<!-- Generator: Adobe Illustrator 24.0.0, SVG Export Plug-In . SVG Version: 6.00 Build 0)  -->
<svg version="1.1" id="图层_1" xmlns="http://www.w3.org/2000/svg" xmlns:xlink="http://www.w3.org/1999/xlink" x="0px" y="0px"
	 viewBox="0 0 20 20" style="enable-background:new 0 0 20 20;" xml:space="preserve">
<style type="text/css">
	.st0{fill:#06D08D;}
</style>
<title>status_sync_finish</title>
<g id="status_sync_finish">
	<path id="形状" class="st0" d="M10,0c5.5,0,10,4.5,10,10s-4.5,10-10,10S0,15.5,0,10S4.5,0,10,0z M10,1.4c-4.7,0-8.6,3.8-8.6,8.6
		s3.8,8.6,8.6,8.6s8.6-3.8,8.6-8.6S14.7,1.4,10,1.4z M14.2,8.1c0.2,0.3,0.2,0.8-0.1,1l0,0l-4.6,3.6C9,13.1,8.3,13,7.9,12.5l0,0
		l-1.7-2.3C6,9.9,6,9.5,6.4,9.3c0.3-0.2,0.7-0.2,1,0.1h0l1.4,1.8c0,0,0.1,0.1,0.1,0.1c0,0,0.1,0,0.1,0L13.2,8
		C13.5,7.8,13.9,7.8,14.2,8.1z"/>
</g>
</svg>
