<?xml version="1.0" encoding="utf-8"?>
<!-- Generator: Adobe Illustrator 24.0.0, SVG Export Plug-In . SVG Version: 6.00 Build 0)  -->
<svg version="1.1" id="图层_1" xmlns="http://www.w3.org/2000/svg" xmlns:xlink="http://www.w3.org/1999/xlink" x="0px" y="0px"
	 viewBox="0 0 20 20" style="enable-background:new 0 0 20 20;" xml:space="preserve">
<style type="text/css">
	.st0{fill:#9F9F9F;}
</style>
<title>status_sync_pause</title>
<g id="status_sync_pause">
	<path id="形状结合" class="st0" d="M7.1,0.4c4.9-1.5,10.1,1,12.1,5.7C19.7,7.4,20,8.7,20,10c0,5.1-3.9,9.4-9,9.9
		C5.9,20.5,1.2,17,0.2,12S2.1,2,7.1,0.4z M10.8,2C6.7,1.6,3,4.4,2.2,8.4s1.6,8,5.5,9.2c3.9,1.2,8.1-0.8,9.7-4.6c0.4-1,0.6-2,0.6-3.1
		C18,5.9,14.9,2.5,10.8,2z M7.5,5.5c0.3,0,0.5,0.1,0.7,0.3C8.4,6,8.5,6.3,8.5,6.6l0,0v6.8c0,0.6-0.4,1.1-1,1.1s-1-0.5-1-1.1l0,0V6.6
		c0-0.3,0.1-0.6,0.3-0.8C7,5.6,7.2,5.5,7.5,5.5z M12.5,5.5c0.3,0,0.5,0.1,0.7,0.3c0.2,0.2,0.3,0.5,0.3,0.8l0,0v6.8
		c0,0.6-0.4,1.1-1,1.1s-1-0.5-1-1.1l0,0V6.6c0-0.3,0.1-0.6,0.3-0.8C12,5.6,12.2,5.5,12.5,5.5z"/>
</g>
</svg>
