<?xml version="1.0" encoding="utf-8"?>
<!-- Generator: Adobe Illustrator 24.0.0, SVG Export Plug-In . SVG Version: 6.00 Build 0)  -->
<svg version="1.1" id="图层_1" xmlns="http://www.w3.org/2000/svg" xmlns:xlink="http://www.w3.org/1999/xlink" x="0px" y="0px"
	 viewBox="0 0 20 20" style="enable-background:new 0 0 20 20;" xml:space="preserve">
<style type="text/css">
	.st0{fill:#419CFF;}
</style>
<title>status_syncing</title>
<g id="status_syncing">
	<path id="Shape" class="st0" d="M1.5,11.1l0.2,0.1c0.6,4.1,4.1,7.2,8.3,7.2c3.1,0,5.8-1.7,7.3-4.3l0.2-0.3l-4.4,0
		c-0.4,0-0.7-0.2-0.7-0.6l0-0.1l0-0.1c0-0.4,0.3-0.7,0.7-0.8l0.1,0l6.2,0c0.4,0,0.7,0.3,0.7,0.6l0,0.1v6.2c0,0.4-0.3,0.8-0.8,0.8
		c-0.4,0-0.7-0.3-0.8-0.7l0-0.1l0-3.9l0,0c-1.7,2.7-4.5,4.4-7.7,4.6l-0.3,0L10,20c-5,0-9.1-3.6-9.9-8.5l-0.1-0.5H1.5z M10,0
		c5,0,9.1,3.6,9.9,8.5l0.1,0.5h-1.5l-0.2-0.1c-0.6-4.1-4.1-7.2-8.3-7.2c-3.1,0-5.8,1.7-7.3,4.3L2.5,6.1l4.4,0c0.4,0,0.7,0.2,0.7,0.6
		l0,0.1l0,0.1c0,0.4-0.3,0.7-0.7,0.8l-0.1,0H0.7C0.4,7.7,0.1,7.4,0,7.1L0,7l0-6.2C0,0.4,0.4,0,0.8,0c0.4,0,0.7,0.3,0.8,0.7l0,0.1
		l0,3.9l0,0C3.3,2,6.1,0.2,9.3,0l0.3,0L10,0z"/>
</g>
</svg>
