<?xml version="1.0" encoding="utf-8"?>
<!-- Generator: Adobe Illustrator 24.0.0, SVG Export Plug-In . SVG Version: 6.00 Build 0)  -->
<svg version="1.1" id="图层_1" xmlns="http://www.w3.org/2000/svg" xmlns:xlink="http://www.w3.org/1999/xlink" x="0px" y="0px"
	 viewBox="0 0 20 20" style="enable-background:new 0 0 20 20;" xml:space="preserve">
<style type="text/css">
	.st0{fill:#9F9F9F;}
</style>
<title>status_sync_play</title>
<g id="status_sync_play">
	<path id="b7e57eb1-2af7-448a-91dc-9ecde3e59ae4-path" class="st0" d="M7.7,5.1C6.9,5.6,6.5,6.4,6.5,7.2v6.1c0,0.9,0.4,1.7,1.1,2.1
		c0.8,0.5,1.7,0.4,2.4-0.1l4.4-3.1c0.7-0.5,1-1.2,1-2s-0.4-1.6-1-2L10,5.1C9.3,4.7,8.4,4.6,7.7,5.1z M8.9,6.8l4.4,3.1
		c0.1,0.1,0.2,0.2,0.2,0.4c0,0.2-0.1,0.3-0.2,0.4l-4.4,3.1c-0.1,0.1-0.1,0.1-0.2,0c-0.1-0.1-0.2-0.2-0.2-0.4V7.2
		c0-0.2,0.1-0.3,0.2-0.4C8.8,6.8,8.9,6.8,8.9,6.8z"/>
	<path id="路径_4410" class="st0" d="M19.2,6.1C17.2,1.4,12-1.1,7,0.4S-0.8,6.9,0.2,12s5.7,8.5,10.8,8c5.1-0.5,9-4.8,9-9.9
		C20,8.7,19.7,7.4,19.2,6.1L19.2,6.1z M17.4,13.1c-1.6,3.8-5.8,5.8-9.7,4.6c-3.9-1.2-6.3-5.2-5.5-9.2S6.7,1.6,10.8,2S18,5.9,18,10
		C18,11.1,17.8,12.1,17.4,13.1L17.4,13.1z"/>
</g>
</svg>
