<?xml version="1.0" encoding="utf-8"?>
<!-- Generator: Adobe Illustrator 24.0.0, SVG Export Plug-In . SVG Version: 6.00 Build 0)  -->
<svg version="1.1" id="图层_1" xmlns="http://www.w3.org/2000/svg" xmlns:xlink="http://www.w3.org/1999/xlink" x="0px" y="0px"
	 viewBox="0 0 14 14" style="enable-background:new 0 0 14 14;" xml:space="preserve">
<style type="text/css">
	.st0{fill-rule:evenodd;clip-rule:evenodd;fill:url(#Oval_1_);stroke:#FFFFFF;stroke-width:0.9324;}
	.st1{fill:#FFFFFF;}
</style>
<title>emblem-nutstore-syncing</title>
<g id="emblem-nutstore-syncing">
	
		<linearGradient id="Oval_1_" gradientUnits="userSpaceOnUse" x1="0.1845" y1="0.1776" x2="0.8012" y2="0.8077" gradientTransform="matrix(12.25 0 0 12.25 0.875 0.875)">
		<stop  offset="0" style="stop-color:#56D6FC"/>
		<stop  offset="1" style="stop-color:#43BEFE"/>
	</linearGradient>
	<circle id="Oval" class="st0" cx="7" cy="7" r="6.5"/>
	<g id="Shape-2" transform="translate(2.362500, 3.062500)">
		<path id="Shape" class="st1" d="M3.4,0.6L3.4,0.6L3.4,0.6c0.1,0,0.1,0,0.2-0.1l0,0l0,0l0,0l0,0c0.1,0,0.2,0,0.3-0.1l0,0l0,0
			c0.3-0.1,0.6-0.1,1.1,0l0,0l0,0l0,0c0.1,0,0.2,0,0.3,0l0,0l0,0l0,0c0.1,0,0.1,0,0.2,0.1l0,0h0.1c0.1,0,0.1,0,0.2,0.1l0,0H6l0,0
			l0,0l0,0c0,0,0.1,0,0.1,0.1l0,0l0,0l0,0l0,0c0.4,0.1,0.5,0.2,0.6,0.2c0.6,0.4,1.1,1,1.3,1.7c0.2,0.3,0,0.7-0.3,0.9
			C7.4,3.6,7,3.5,6.9,3.2C6.7,2.6,6.4,2.2,6,2c0-0.1-0.1-0.1-0.1-0.1l0,0l0,0l0,0c-0.1,0-0.1,0-0.1-0.1l0,0l0,0l0,0
			c-0.1,0-0.1,0-0.1,0l0,0l0,0l0,0c-0.1,0-0.1,0-0.2,0l0,0l0,0c-0.1,0-0.1,0-0.2,0l0,0l0,0c-0.2,0-0.4,0-0.6,0l0,0l0,0
			c-0.1,0-0.1,0-0.2,0l0,0l0,0l0,0c-0.9,0-1.3,0.3-1.6,0.6l0.5,0.5c0.1,0,0.1,0.1,0.1,0.2c0,0.1-0.1,0.1-0.1,0.2l0,0l-2,0.3
			c-0.1,0-0.1,0-0.2,0S1,3.6,1,3.5L0.8,1.3c0-0.1,0-0.2,0.1-0.2c0.1,0,0.2,0,0.2,0l0.7,0.6C2.3,1.2,2.8,0.8,3.4,0.6z M8.1,4.4
			c0.1,0,0.1,0.1,0.1,0.1l0.2,2.1c0,0.1,0,0.2-0.1,0.2s-0.2,0-0.2,0l0,0L7.5,6.3c-0.4,0.5-1,1-1.6,1.2l0,0l0,0l0,0
			c-0.1,0-0.1,0-0.2,0.1l0,0l0,0l0,0C5,7.8,4.5,7.8,3.9,7.7l0,0l0,0l0,0c-0.1,0-0.2,0-0.2-0.1l0,0l0,0c0,0,0,0-0.1,0
			c-0.1,0-0.1,0-0.2-0.1l0,0l0,0H3.2l0,0l0,0l0,0H3.1l0,0l0,0c0,0,0,0-0.1,0C2.8,7.3,2.7,7.2,2.6,7.2l0,0l0,0l0,0l0,0
			C1.9,6.7,1.5,6.1,1.2,5.4c-0.1-0.3,0-0.6,0.3-0.7s0.6,0,0.7,0.3c0.2,0.5,0.5,1,1,1.2c0.1,0,0.1,0.1,0.2,0.1l0,0l0,0
			c0.1,0,0.1,0.1,0.1,0.1l0,0l0,0l0,0c0.1,0,0.1,0,0.1,0.1l0,0l0,0c0.1,0,0.1,0,0.2,0l0,0l0,0l0,0c0.4,0.1,0.7,0.1,1.2,0l0,0l0,0
			C5.6,6.3,6,6,6.3,5.6L5.9,5.2c0,0-0.1-0.1-0.1-0.2c0-0.1,0.1-0.1,0.1-0.2l0,0l1.9-0.4C8,4.3,8.1,4.3,8.1,4.4z"/>
	</g>
</g>
</svg>
