<?xml version="1.0" encoding="utf-8"?>
<!-- Generator: Adobe Illustrator 24.0.0, SVG Export Plug-In . SVG Version: 6.00 Build 0)  -->
<svg version="1.1" id="图层_1" xmlns="http://www.w3.org/2000/svg" xmlns:xlink="http://www.w3.org/1999/xlink" x="0px" y="0px"
	 viewBox="0 0 14 14" style="enable-background:new 0 0 14 14;" xml:space="preserve">
<style type="text/css">
	.st0{fill-rule:evenodd;clip-rule:evenodd;fill:url(#Oval_1_);stroke:#FFFFFF;stroke-width:0.9324;}
	.st1{fill:#FFFFFF;}
</style>
<title>emblem-nutstore-readonly-placeholder</title>
<g id="emblem-nutstore-readonly-placeholder">
	
		<linearGradient id="Oval_1_" gradientUnits="userSpaceOnUse" x1="0.1948" y1="0.2006" x2="0.8276" y2="0.8214" gradientTransform="matrix(12.25 0 0 12.25 0.875 0.875)">
		<stop  offset="0" style="stop-color:#BCBCBC"/>
		<stop  offset="1" style="stop-color:#9B9B9B"/>
	</linearGradient>
	<circle id="Oval" class="st0" cx="7" cy="7" r="6.5"/>
	<path id="Combined-Shape" class="st1" d="M7,4.2c1.3,0,2.3,1,2.6,2.2c0.9,0.1,1.6,0.9,1.6,1.8c0,1.1-0.7,1.8-1.7,1.8l0,0H4.9
		c-1.2,0-2.1-1-2.1-2.2c0-1.2,0.9-2,1.9-2.2C5.1,4.8,5.9,4.2,7,4.2z M9.5,7.6H4.5c-0.2,0-0.4,0.2-0.4,0.4s0.2,0.4,0.4,0.4l0,0h5
		c0.2,0,0.4-0.2,0.4-0.4C9.9,7.9,9.7,7.6,9.5,7.6L9.5,7.6z"/>
</g>
</svg>
