<?xml version="1.0" encoding="utf-8"?>
<!-- Generator: Adobe Illustrator 24.0.0, SVG Export Plug-In . SVG Version: 6.00 Build 0)  -->
<svg version="1.1" id="图层_1" xmlns="http://www.w3.org/2000/svg" xmlns:xlink="http://www.w3.org/1999/xlink" x="0px" y="0px"
	 viewBox="0 0 14 14" style="enable-background:new 0 0 14 14;" xml:space="preserve">
<style type="text/css">
	.st0{fill-rule:evenodd;clip-rule:evenodd;fill:url(#Oval_1_);stroke:#FFFFFF;stroke-width:0.9324;}
	.st1{fill-rule:evenodd;clip-rule:evenodd;fill:#FFFFFF;}
	.st2{fill:none;stroke:#FFFFFF;stroke-width:0.9324;}
</style>
<title>emblem-nutstore-locked</title>
<g id="emblem-nutstore-locked">
	
		<linearGradient id="Oval_1_" gradientUnits="userSpaceOnUse" x1="0.187" y1="0.1536" x2="0.8113" y2="0.8446" gradientTransform="matrix(12.25 0 0 12.25 0.875 0.875)">
		<stop  offset="0" style="stop-color:#FBBF2A"/>
		<stop  offset="1" style="stop-color:#FFB13E"/>
	</linearGradient>
	<circle id="Oval" class="st0" cx="7" cy="7" r="6.5"/>
	<g id="Group" transform="translate(3.718750, 3.281250)">
		<path id="Combined-Shape" class="st1" d="M5.9,2.1c0.5,0,1,0.4,1,1v3.3c0,0.4-0.4,0.9-1,0.9H0.7c-0.5,0-1-0.4-1-1V3.1
			c0-0.5,0.4-1,1-1C0.7,2.1,5.9,2.1,5.9,2.1z M3.3,3.7c-0.5,0-1,0.4-1,1s0.4,1,1,1s1-0.4,1-1S3.8,3.7,3.3,3.7z"/>
		<path id="Rectangle" class="st2" d="M3.3,0.2c0.5,0,1,0.2,1.3,0.5C4.9,1,5.1,1.6,5.1,2.1l0,0v3c0,0.4-0.2,0.9-0.4,1.2
			C4.5,6.6,3.9,6.8,3.5,6.8c-0.6,0-1.2-0.2-1.6-0.5C1.6,6,1.4,5.6,1.4,5.1l0,0v-3c0-0.5,0.2-1,0.5-1.3S2.8,0.2,3.3,0.2z"/>
	</g>
</g>
</svg>
