<?xml version="1.0" encoding="utf-8"?>
<!-- Generator: Adobe Illustrator 24.0.0, SVG Export Plug-In . SVG Version: 6.00 Build 0)  -->
<svg version="1.1" id="图层_1" xmlns="http://www.w3.org/2000/svg" xmlns:xlink="http://www.w3.org/1999/xlink" x="0px" y="0px"
	 viewBox="0 0 16 16" style="enable-background:new 0 0 16 16;" xml:space="preserve">
<style type="text/css">
	.st0{fill:#FFFFFF;}
	.st1{fill:#FFA740;}
</style>
<circle class="st0" cx="8" cy="8" r="6.5"/>
<path class="st1" d="M8,16c-4.4,0-8-3.6-8-8s3.6-8,8-8s8,3.6,8,8S12.4,16,8,16z M7.8,3.7C7.4,3.7,7.1,4,7.1,4.4c0,0,0,0,0,0.1L7.5,9
	c0,0.2,0.2,0.3,0.4,0.3H8c0.2,0,0.3-0.1,0.4-0.3l0.4-4.5c0-0.4-0.3-0.8-0.7-0.8c0,0,0,0-0.1,0C8,3.7,7.8,3.7,7.8,3.7z M7.9,12
	c0.5,0,0.9-0.4,0.9-0.9s-0.4-0.9-0.9-0.9S7,10.6,7,11.1S7.4,12,7.9,12L7.9,12z"/>
</svg>
