<svg id="图层_1" data-name="图层 1" xmlns="http://www.w3.org/2000/svg" viewBox="0 0 1024 1024"><title>code</title><path d="M186.9,64c-18.4,0-33.4,14.7-33.4,32.6V927.4c0,17.9,15,32.6,33.4,32.6H837.1c18.4,0,33.4-14.7,33.4-32.6V259.5L669.9,64Zm0,0" style="fill:#d2d2d2"/><path d="M669.9,64V226.9c0,17.9,15,32.6,33.4,32.6H870.5Zm0,0" style="fill:#b3b3b3"/><path d="M366.1,642.2c0-25.9,3.2-43.2,3.2-66.9,0-13.8-6.7-27.5-31-27.8V525.1c24.3-.3,31-14.1,31-27.2,0-24-3.2-41.3-3.2-67.2,0-37.8,13.4-49,43.2-49h17.9v20.2h-8.3c-18.2,0-23,8.3-23,30.7,0,20.8,1.9,39.4,1.9,63s-6.7,35.9-23.4,40v1.6c16.6,4.2,23.4,15.7,23.4,40s-1.9,42.2-1.9,63c0,22.4,4.8,30.4,23,30.4h8.3v20.5H409.3C379.5,691.2,366.1,680,366.1,642.2Z" style="fill:#fff"/><path d="M596.8,670.7h8.3c18.2,0,23-8,23-30.4,0-20.8-1.6-39.4-1.6-63s6.4-35.8,23-40v-1.6c-16.6-4.2-23-15.4-23-40s1.6-42.2,1.6-63c0-22.4-4.8-30.7-23-30.7h-8.3V381.7h17.9c29.8,0,43.5,11.2,43.5,49,0,25.9-3.2,43.2-3.2,67.2,0,13.1,6.7,26.9,30.7,27.2v22.4c-24,.3-30.7,14.1-30.7,27.8,0,23.7,3.2,41,3.2,66.9,0,37.8-13.8,49-43.5,49H596.8Z" style="fill:#fff"/></svg>