<svg id="图层_1" data-name="图层 1" xmlns="http://www.w3.org/2000/svg" viewBox="0 0 1024 1024"><title>dwg</title><path d="M186.9,64c-18.4,0-33.4,14.7-33.4,32.6V927.4c0,17.9,15,32.6,33.4,32.6H837.1c18.4,0,33.4-14.7,33.4-32.6V259.5L669.9,64Zm0,0" style="fill:#8697cb"/><path d="M669.9,64V226.9c0,17.9,15,32.6,33.4,32.6H870.5Zm0,0" style="fill:#e3ecff"/><path d="M332.1,690.1H368c42.5,0,66.7,23.5,66.7,68.6s-24.3,69.7-65.6,69.7h-37Zm34.4,120.4c29.7,0,45.7-17.5,45.7-51.9s-16-50.9-45.7-50.9H353.9V810.6Z" style="fill:#fff"/><path d="M448.3,690.1h22.5l13,72,7.3,44.3h.8c3-14.8,6.2-29.7,9.4-44.3l17.9-72h19.2l18,72c3.2,14.5,6.2,29.3,9.4,44.3h.9c2.3-15,4.7-29.9,6.9-44.3l13.2-72h20.9L580.5,828.4H553.6L535,751.6c-2.4-10.9-4.5-21.2-6.4-31.8h-.9c-1.9,10.5-4.1,20.9-6.4,31.8L503,828.4H476.7Z" style="fill:#fff"/><path d="M621.9,759.6c0-45.1,27.8-72.2,64.5-72.2A55.2,55.2,0,0,1,727.5,705l-11.8,13.9c-6.8-7-15.2-12.4-28.6-12.4-25.7,0-42.8,19.9-42.8,52.4s15.2,53,43.8,53c8.5,0,16.9-2.4,21.8-6.8V772.6H682.4V754.8h47.2v59.9c-9.2,9.2-24.8,16.2-43.8,16.2C648.7,830.8,621.9,804.9,621.9,759.6Z" style="fill:#fff"/><path d="M692.8,470.5H629.5V419.3H578.3V252.2H552.7V419.3H501.5v51.2H331.2v25.6H501.5v51.2h51.2v63.3h25.6V547.3h51.2V496.1h63.3Zm-88.9,51.2H527.1V444.9h76.8Z" style="fill:#fff"/><rect x="331.2" y="261.1" width="134.4" height="134.4" style="fill:#fff"/></svg>