<svg xmlns="http://www.w3.org/2000/svg" width="64" height="64" viewBox="0 0 64 64"><defs><style>.a{fill:#ebf4ff;stroke:#008eff;stroke-width:2.656px;}.b{fill:#008eff;}.c{fill:rgba(255,255,255,0);}</style></defs><g transform="translate(11.27 7.949)"><path class="a" d="M36.1,28.572,46.39,19.331a3.694,3.694,0,0,0,1.093-2.4V6.747H18.275V16.931a3.694,3.694,0,0,0,1.093,2.4l10.293,9.241L19.368,37.813a3.694,3.694,0,0,0-1.093,2.4V50.4H47.482V40.214a3.694,3.694,0,0,0-1.093-2.4Z" transform="translate(-12.379 -4.564)"/><path class="b" d="M25.075,62.911l5.1-1.461a47.941,47.941,0,0,1,7.3-.722,33.984,33.984,0,0,1,6.564.722l5.831,1.461v2.922H25.075Zm0-31.355H49.882v2.183a1.7,1.7,0,0,1-.58,1.238l-11.082,9.7H36.754l-11.082-9.7a2,2,0,0,1-.58-1.238V31.556ZM36.754,46.134h.733v.722h-.733ZM38.2,47.595h.733v.722H38.2Zm-2.182,1.461h.733v.722h-.733ZM38.2,51.239h.733v.722H38.2Zm-2.915,2.2h.733v.722h-.733Zm3.649,2.183h.733v.722h-.733Zm-2.182,2.922h.733v.722h-.733Z" transform="translate(-16.978 -22.461)"/><path class="b" d="M.07.72A.723.723,0,0,1,.789,0H40.3a.738.738,0,0,1,.736.72v.72a.727.727,0,0,1-.736.72H.789a.738.738,0,0,1-.736-.72V.72Zm0,45.839a.727.727,0,0,1,.736-.72H40.318a.738.738,0,0,1,.736.72v.72a.727.727,0,0,1-.736.72H.789a.738.738,0,0,1-.736-.72v-.72Z" transform="translate(-0.053)"/></g><rect class="c" width="64" height="64"/></svg>