<svg id="图层_1" data-name="图层 1" xmlns="http://www.w3.org/2000/svg" viewBox="0 0 1024 1024"><title>ngm 副本</title><path d="M523.7,711.7c-24.8,0-40.1,21.2-40.1,55.3s15.8,56.4,40.1,56.4S564,801.3,564,767.1,548.6,711.7,523.7,711.7Z" style="fill:#a2c7fc"/><path d="M669.9,64h-483c-18.4,0-33.4,14.7-33.4,32.6V927.4c0,17.9,15,32.6,33.4,32.6H837.1c18.4,0,33.4-14.7,33.4-32.6V259.5ZM427,844.4H400l-51-89.5-13.8-27.2.4,4.6c1.1,13,2.3,26.5,2.3,39.6v72.5H312.2V690.9h27l51,89.1,13.8,27.5-.3-3.8c-1.1-13.1-2.4-27.8-2.4-41.2V690.9H427Zm145.7-18.9c-12.2,14.1-29.2,21.6-49.1,21.6s-36.8-7.5-49-21.6-18.8-34.5-18.8-58.4c0-48,26.6-79,67.8-79s68,31,68,79C591.7,791,585.1,811.2,572.8,825.5ZM600.7,499,405.1,583.8a13.7,13.7,0,0,1-15.3-22.2l116-116h0a35.5,35.5,0,0,0,12.9,2.5,34.2,34.2,0,1,0-34.2-34.2,35.4,35.4,0,0,0,2.5,12.9L371.2,542.6a13.5,13.5,0,0,1-9.9,4.2,13.7,13.7,0,0,1-12.6-19l84.7-195.4a17.3,17.3,0,0,1,11-9.7l113-31.4-6.2-6.2a16.8,16.8,0,1,1,23.8-23.8l96.5,96.5a16.8,16.8,0,1,1-23.8,23.8l-6.3-6.2L610,488.1A17,17,0,0,1,600.7,499ZM711.8,844.4H620.4V690.9h27V821.4h64.4Z" style="fill:#a2c7fc"/><path d="M669.9,64V226.9c0,17.9,15,32.6,33.4,32.6H870.5Z" style="fill:#b6d4ff"/></svg>