<svg id="图层_1" data-name="图层 1" xmlns="http://www.w3.org/2000/svg" viewBox="0 0 1024 1024"><title>program </title><path d="M186.9,64c-18.4,0-33.4,14.7-33.4,32.6V927.4c0,17.9,15,32.6,33.4,32.6H837.1c18.4,0,33.4-14.7,33.4-32.6V259.5L669.9,64Zm0,0" style="fill:#fff5d9"/><path d="M669.9,64V226.9c0,17.9,15,32.6,33.4,32.6H870.5Zm0,0" style="fill:#ffebc0"/><path d="M349.2,693.2A38.2,38.2,0,0,1,311.1,655V403.2a38.2,38.2,0,0,1,38.2-38.2H674.5a38.7,38.7,0,0,1,38.4,38.1V655a38.2,38.2,0,0,1-38.2,38.2Zm-15.6-38.4a15.4,15.4,0,0,0,15.6,15.6H674.5a15.9,15.9,0,0,0,15.9-15.7v-170H333.6ZM690.4,462.1V403.2a15.4,15.4,0,0,0-15.6-15.6H349.2a15.4,15.4,0,0,0-15.6,15.6v58.9Z" style="fill:#4b4b4b"/><path d="M674.5,368.3H349.2a34.9,34.9,0,0,0-34.9,34.9V655a34.9,34.9,0,0,0,34.9,34.9H674.8A34.9,34.9,0,0,0,709.7,655V403.2a35.3,35.3,0,0,0-35.2-34.9ZM349.2,384.4H674.8a18.7,18.7,0,0,1,18.8,18.8v62.1H330.4V403.2a18.7,18.7,0,0,1,18.8-18.8ZM674.5,673.5H349.2a18.7,18.7,0,0,1-18.8-18.8V481.4H693.6V654.7a19.1,19.1,0,0,1-19.1,18.8Zm0,0" style="fill:#4b4b4b"/><path d="M375.6,445.1a18.5,18.5,0,1,1,18.5-18.5A18.6,18.6,0,0,1,375.6,445.1Z" style="fill:#4b4b4b"/><path d="M360.3,426.6a15.3,15.3,0,1,0,7.7-13.3,15.3,15.3,0,0,0-7.7,13.3Zm0,0" style="fill:#4b4b4b"/><path d="M424,445.1a18.5,18.5,0,1,1,9.3-2.5A18.6,18.6,0,0,1,424,445.1Z" style="fill:#4b4b4b"/><path d="M408.7,426.6a15.3,15.3,0,1,0,7.7-13.3,15.3,15.3,0,0,0-7.7,13.3Zm0,0" style="fill:#4b4b4b"/><path d="M475,445.1a18.5,18.5,0,1,1,9.3-2.5A18.6,18.6,0,0,1,475,445.1Z" style="fill:#4b4b4b"/><path d="M459.7,426.6a15.3,15.3,0,1,0,7.7-13.3,15.3,15.3,0,0,0-7.7,13.3Zm0,0" style="fill:#4b4b4b"/><path d="M495.5,625.7a9,9,0,0,1-3.2-.4,11.4,11.4,0,0,1-7.8-13.8l22-83.6a11.5,11.5,0,0,1,13.8-7.9,11.8,11.8,0,0,1,8.3,14.1l-22.3,83.4A11.6,11.6,0,0,1,495.5,625.7Zm-48.4-9.1a11.4,11.4,0,0,1-4.9-1.1l-61.5-30.4a14.8,14.8,0,0,1,.1-24.1l61.5-30.3a11.4,11.4,0,0,1,4.9-1.1,11.2,11.2,0,0,1,10.1,6.4,11.4,11.4,0,0,1,.4,8.8,11,11,0,0,1-5.7,6.2L407.1,573,452,595.1a11,11,0,0,1,5.7,6.2,11.4,11.4,0,0,1-.4,8.8A11.2,11.2,0,0,1,447.1,616.6Zm116.7-.8a11.2,11.2,0,0,1-10.2-6.5,11.4,11.4,0,0,1-.5-8.6,11,11,0,0,1,5.8-6.4l44.9-22.1-44.9-22.1a11,11,0,0,1-5.7-6.4,11.4,11.4,0,0,1,.5-8.6,11.2,11.2,0,0,1,10.1-6.4,11.4,11.4,0,0,1,4.9,1.1l61.6,30.4a11.6,11.6,0,0,1,6.2,12,11.2,11.2,0,0,1-6.2,12.1l-61.5,30.3A11.3,11.3,0,0,1,563.7,615.8Z" style="fill:#4b4b4b"/><path d="M454.3,537.3a8.1,8.1,0,0,0-10.8-3.8L382,563.9a11.9,11.9,0,0,0,0,18.3l61.6,30.4a8.3,8.3,0,0,0,3.5.8,7.9,7.9,0,0,0,7.3-4.6,8.1,8.1,0,0,0-3.8-10.8l-50.8-25,50.8-25a8.1,8.1,0,0,0,3.8-10.8Zm174.4,25.8-61.6-30.4a8.1,8.1,0,1,0-7,14.5l50.8,25-50.8,25a8.1,8.1,0,0,0-3.8,10.7,7.9,7.9,0,0,0,7.3,4.6,8.3,8.3,0,0,0,3.5-.8l61.6-30.4a8.1,8.1,0,0,0,4.3-9.1,8.3,8.3,0,0,0-4.3-9.1Zm-109.1-40a8.3,8.3,0,0,0-9.9,5.6l-22,83.6a8.3,8.3,0,0,0,5.6,9.9,5.9,5.9,0,0,0,2.2.3,8.3,8.3,0,0,0,7.8-5.9l22.3-83.3a8.6,8.6,0,0,0-5.9-10.2Zm0,0" style="fill:#4b4b4b"/></svg>