<svg id="图层_1" data-name="图层 1" xmlns="http://www.w3.org/2000/svg" viewBox="0 0 1024 1024"><title>txt</title><path d="M186.9,64c-18.4,0-33.4,14.7-33.4,32.6V927.4c0,17.9,15,32.6,33.4,32.6H837.1c18.4,0,33.4-14.7,33.4-32.6V259.5L669.9,64Zm0,0" style="fill:#d2d2d2"/><path d="M669.9,64V226.9c0,17.9,15,32.6,33.4,32.6H870.5Zm0,0" style="fill:#b3b3b3"/><rect x="310.3" y="350.7" width="403.3" height="26.88" style="fill:#fff"/><rect x="310.3" y="440.3" width="403.3" height="26.88" style="fill:#fff"/><rect x="310.3" y="529.9" width="403.3" height="26.88" style="fill:#fff"/><path d="M387.3,701.8H345.2V682.9h107v18.9H409.9V826.3H387.3Z" style="fill:#fff"/><path d="M498.1,752.2l-38.6-69.3h25.1L502,716.4c3.5,6.6,6.6,13.1,10.9,21.6h1c3.7-8.6,6.4-15,9.7-21.6l16.9-33.5h23.8l-38.6,70.5L567,826.3H541.9L523,790.6l-11.9-23.4h-.8c-4.1,8.8-7.6,16.2-11.1,23.4l-18.3,35.6h-24Z" style="fill:#fff"/><path d="M613.9,701.8H571.8V682.9h107v18.9H636.5V826.3H613.9Z" style="fill:#fff"/></svg>