<?xml version="1.0" encoding="utf-8"?>
<!-- Generator: Adobe Illustrator 24.0.0, SVG Export Plug-In . SVG Version: 6.00 Build 0)  -->
<svg version="1.1" id="图层_1" xmlns="http://www.w3.org/2000/svg" xmlns:xlink="http://www.w3.org/1999/xlink" x="0px" y="0px"
	 viewBox="0 0 80 23" style="enable-background:new 0 0 80 23;" xml:space="preserve">
<style type="text/css">
	.st0{fill:#9F9F9F;}
	.st1{fill:#4B0B00;}
	.st2{fill:#BD7031;}
	.st3{fill:url(#Path-13_1_);}
	.st4{fill:#B06923;}
	.st5{fill:#652E09;}
	.st6{fill:#B95F1B;}
</style>
<title>编组</title>
<g id="页面-1">
	<g id="编组" transform="translate(-0.002057, -0.000810)">
		<path id="Shape" class="st0" d="M47.5,14.4H37c-0.3,0-0.4-0.2-0.4-0.5c0-0.1,0-0.2,0.1-0.3c0.1-0.1,0.2-0.2,0.3-0.1h4.8v-1.7H38
			c-0.1,0-0.2-0.1-0.3-0.1c-0.1-0.1-0.1-0.2-0.1-0.3c0-0.1,0-0.2,0.1-0.3c0.1-0.1,0.2-0.2,0.4-0.2h3.8v-0.8c0-0.1,0-0.3,0.1-0.3
			c0.1-0.1,0.2-0.1,0.3-0.1c0.1,0,0.3,0,0.4,0.1c0.1,0.1,0.1,0.2,0.1,0.4v0.7h4c0.1,0,0.2,0.1,0.3,0.2c0.1,0.1,0.1,0.2,0.1,0.3
			c0,0.1,0,0.2-0.1,0.3c-0.1,0.1-0.2,0.2-0.3,0.2h-4v1.7h4.7c0.2,0,0.4,0.2,0.4,0.5S47.7,14.4,47.5,14.4L47.5,14.4z M39.9,10.1
			c-0.1,0-0.2,0-0.3-0.1c-0.1-0.1-0.1-0.2-0.1-0.3V3.9c0-0.1,0-0.2,0.1-0.3c0.1-0.1,0.2-0.1,0.3-0.1c0.1,0,0.2,0,0.3,0.1
			c0.1,0.1,0.1,0.2,0.1,0.3v5.8c0,0.1,0,0.2-0.1,0.3C40.1,10,40,10.1,39.9,10.1z M41,9.9c-0.2,0-0.4-0.2-0.5-0.4
			c0-0.3,0.1-0.5,0.4-0.6c0.8-0.2,1.5-0.5,2.2-1c-0.6-0.6-1.1-1.3-1.5-2.1c-0.1-0.2-0.1-0.4,0-0.5c0.1-0.1,0.2-0.2,0.4-0.2
			c0.2,0,0.3,0.1,0.4,0.3c0.4,0.8,1,1.5,1.6,2c1.3-1,1.9-2,1.7-2.4c0-0.1-0.1-0.1-0.2-0.1h-4.3c-0.3,0-0.4-0.2-0.4-0.5
			c0-0.1,0-0.2,0.1-0.3C41,4.1,41.1,4,41.2,4h4.9c0.3,0,0.5,0.1,0.7,0.3c0.1,0.2,0.1,0.5-0.1,0.9c-0.5,1.1-1.2,2-2.1,2.8
			c0.7,0.5,1.6,0.8,2.4,0.9c0.3,0,0.5,0.3,0.4,0.5c0,0.1-0.1,0.2-0.1,0.3c-0.1,0.1-0.2,0.1-0.3,0.1c-0.1,0-0.1,0-0.2,0
			c-1.1-0.2-2.2-0.6-3.1-1.3c-0.8,0.5-1.7,1-2.6,1.3C41.1,9.9,41,9.9,41,9.9L41,9.9z M37.9,9.2c-0.1,0-0.2,0-0.3-0.1
			c-0.1-0.1-0.2-0.2-0.1-0.3V4.5c0-0.1,0-0.2,0.1-0.3S37.7,4,37.8,4c0.1,0,0.2,0,0.3,0.1c0.1,0.1,0.1,0.2,0.1,0.3v4.3
			c0,0.1,0,0.2-0.1,0.3C38.1,9.2,38,9.2,37.9,9.2z"/>
		<path id="Shape-2" class="st0" d="M57.6,15c-0.1,0-0.2,0-0.3-0.1c-0.1-0.1-0.2-0.2-0.1-0.3v-2.8c-1.3,1.1-2.8,2-4.4,2.5
			c-0.1,0-0.2,0.1-0.3,0.1c-0.2,0-0.5-0.2-0.5-0.4c0-0.3,0.2-0.6,0.4-0.6c1.7-0.5,3.2-1.4,4.5-2.6h-4.3c-0.2,0-0.4-0.1-0.5-0.2
			c-0.1-0.2-0.1-0.4,0-0.5c0.1-0.2,0.3-0.2,0.5-0.2h4.5v-1h-3c-0.3,0-0.6-0.1-0.8-0.3C53.1,8.2,53,7.9,53,7.6V4.7c0-0.7,0.3-1,0.9-1
			h7.2c0.7,0,1.1,0.3,1.1,1v3c0,0.2-0.1,0.5-0.2,0.7s-0.4,0.3-0.7,0.3H58v1h4.6c0.4,0,0.6,0.2,0.6,0.5c0,0.1-0.1,0.2-0.2,0.3
			c-0.1,0.1-0.3,0.2-0.5,0.2h-4.3c1.3,1.2,2.8,2.1,4.5,2.6c0.3,0.1,0.5,0.3,0.4,0.6c0,0.3-0.2,0.4-0.5,0.4c-0.1,0-0.1,0-0.2,0
			c-1.7-0.5-3.2-1.4-4.5-2.6v2.9c0,0.1-0.1,0.2-0.1,0.3C57.8,14.9,57.7,15,57.6,15z M58,6.6v1.2h2.8c0.4,0,0.5-0.2,0.5-0.5V6.6H58z
			 M53.9,6.6v0.7c0,0.4,0.1,0.5,0.5,0.5h2.7V6.6H53.9z M58,4.7v1h3.3V5.2c0-0.4-0.1-0.5-0.5-0.5L58,4.7z M54.4,4.7
			c-0.4,0-0.5,0.1-0.5,0.5v0.5h3.2v-1H54.4z"/>
		<path id="Shape-3" class="st0" d="M77.6,15.2c-0.3,0-0.5-0.2-0.5-0.4c-0.1-0.2-0.2-0.4-0.3-0.6c-2.5,0.2-5,0.3-7.5,0.3h-1h0
			c-0.3,0-0.6-0.1-0.7-0.3s0-0.4,0.2-0.7c1.4-1.6,2.5-3.3,3.4-5.1h-3.5c-0.2,0-0.4-0.2-0.4-0.5s0.2-0.4,0.4-0.5h10
			c0.2,0,0.3,0.1,0.4,0.2c0.1,0.1,0.1,0.3,0,0.5c-0.1,0.1-0.2,0.2-0.4,0.2h-5.4c-0.9,1.9-2,3.6-3.4,5.2c0.2,0,0.4,0,0.7,0
			c1.9,0,5.2-0.1,6.7-0.3c-0.4-0.8-0.9-1.6-1.5-2.4c-0.1-0.2-0.2-0.4-0.1-0.6c0.1-0.1,0.2-0.2,0.4-0.2c0.2,0,0.4,0.1,0.5,0.3
			c0.9,1.2,1.6,2.5,2.2,3.9c0.1,0.2,0.1,0.5,0,0.7C77.9,15.1,77.8,15.2,77.6,15.2L77.6,15.2z M77,5h-8.3c-0.1,0-0.3,0-0.4-0.1
			c-0.1-0.1-0.1-0.2-0.1-0.3c0-0.1,0-0.2,0.1-0.3c0.1-0.1,0.2-0.1,0.3-0.1H77c0.1,0,0.3,0,0.4,0.1c0.1,0.1,0.1,0.2,0.2,0.3
			c0,0.1-0.1,0.2-0.2,0.3C77.2,5,77.1,5,77,5L77,5z"/>
		<path id="Shape-4" class="st0" d="M36.2,22.1c-0.1,0-0.1,0-0.2-0.1c-0.1-0.1-0.1-0.1-0.1-0.2v-4.1c0-0.1,0-0.2,0.1-0.2
			c0-0.1,0.1-0.1,0.2-0.1h0h0c0.1,0,0.1,0,0.2,0.1c0.1,0.1,0.1,0.1,0.1,0.2v4.1c0,0.1,0,0.2-0.1,0.2C36.4,22.1,36.3,22.1,36.2,22.1
			L36.2,22.1z M36.2,16.9c-0.1,0-0.2,0-0.2-0.1c-0.1-0.1-0.1-0.1-0.1-0.2c0-0.1,0-0.2,0.1-0.2c0.1-0.1,0.1-0.1,0.2-0.1h0
			c0.1,0,0.2,0,0.2,0.1c0.1,0.1,0.1,0.1,0.1,0.2C36.6,16.7,36.4,16.9,36.2,16.9L36.2,16.9L36.2,16.9z"/>
		<path id="Shape-5" class="st0" d="M37.6,20.8L37.6,20.8L37.6,20.8c-0.1,0-0.2,0-0.2-0.1c-0.1-0.1-0.1-0.1-0.1-0.2v-2.8
			c0-0.1,0-0.2,0.1-0.2c0-0.1,0.1-0.1,0.2-0.1h0h0c0.1,0,0.1,0,0.2,0.1c0.1,0.1,0.1,0.1,0.1,0.2v2.8c0,0.1,0,0.1-0.1,0.2
			C37.8,20.7,37.7,20.8,37.6,20.8z M37.6,16.9c-0.2,0-0.4-0.2-0.4-0.4c0-0.1,0-0.2,0.1-0.2c0.1-0.1,0.1-0.1,0.2-0.1h0
			c0.1,0,0.2,0,0.2,0.1c0.1,0.1,0.1,0.1,0.1,0.2C37.9,16.8,37.8,16.9,37.6,16.9z"/>
		<path id="Shape-6" class="st0" d="M40.2,20.8L40.2,20.8c-0.4,0-0.8-0.1-1.1-0.4c-0.3-0.3-0.5-0.8-0.5-1.3c0-0.5,0.2-0.9,0.5-1.2
			c0.4-0.4,0.9-0.5,1.5-0.5c0.9,0,1.1,0.2,1.1,0.9v2.2c0,0.1,0,0.1-0.1,0.2c0,0-0.1,0.1-0.2,0.1h0c-0.1,0-0.1,0-0.2-0.1
			c-0.1-0.1-0.1-0.1-0.1-0.2v-0.1C40.9,20.6,40.6,20.8,40.2,20.8z M40.5,17.8c-0.3,0-0.7,0.1-0.9,0.4c-0.2,0.2-0.4,0.6-0.4,0.9
			c0,0.3,0.1,0.7,0.3,0.9c0.2,0.2,0.5,0.3,0.7,0.3c0.5,0,1-0.4,1-1.2v-0.8C41.2,17.9,41.1,17.8,40.5,17.8L40.5,17.8z"/>
		<path id="Path" class="st0" d="M42.7,17.6c0-0.1,0-0.2,0.1-0.2c0.1-0.1,0.1-0.1,0.2-0.1c0.1,0,0.2,0,0.2,0.1
			c0.1,0.1,0.1,0.1,0.1,0.2v0.1c0.3-0.2,0.7-0.3,1-0.3c0.3,0,0.7,0.1,0.9,0.4c0.2,0.2,0.4,0.6,0.3,0.9v1.9c0,0.1,0,0.1-0.1,0.2
			c-0.1,0.1-0.1,0.1-0.2,0.1c-0.1,0-0.2,0-0.2-0.1c-0.1-0.1-0.1-0.1-0.1-0.2v-1.8c-0.1-0.4-0.4-0.7-0.8-0.7c-0.4,0-0.8,0.3-0.8,0.7
			v1.8c0,0.1,0,0.1-0.1,0.2c-0.1,0.1-0.1,0.1-0.2,0.1c-0.1,0-0.2,0-0.2-0.1c-0.1-0.1-0.1-0.1-0.1-0.2V17.6z"/>
		<path id="Shape-7" class="st0" d="M48.2,22.2c-0.1,0-0.2,0-0.3-0.1c-0.1-0.1-0.2-0.2-0.1-0.3c0-0.1,0.1-0.1,0.2-0.1
			c0.2,0,0.3,0,0.5-0.1c0.4-0.2,0.6-0.5,0.6-1v-0.2c-0.3,0.2-0.6,0.3-0.9,0.3h-0.1c-0.5,0-0.9-0.1-1.2-0.5c-0.3-0.3-0.5-0.8-0.4-1.2
			c0-1.2,0.5-1.7,1.8-1.7h0.1c0.3,0,0.6,0.1,0.8,0.2l0-0.1c0.1-0.1,0.2-0.1,0.3-0.1c0.1,0,0.2,0.1,0.2,0.3v2.9
			c0.1,0.8-0.4,1.5-1.1,1.7C48.5,22.2,48.4,22.2,48.2,22.2z M48.2,17.9c-0.3,0-0.6,0.1-0.8,0.3c-0.2,0.2-0.3,0.5-0.3,0.8
			c0,0.3,0.1,0.7,0.3,0.9c0.2,0.2,0.5,0.3,0.8,0.3c0.7,0,1-0.4,1-1.2v-0.3C49.2,18.2,48.6,17.9,48.2,17.9z"/>
		<path id="Shape-8" class="st0" d="M55.6,20.8c-0.4,0-0.9-0.2-1.2-0.5C54.1,20,54,19.5,54,19.1c0-0.5,0.1-0.9,0.5-1.3
			c0.3-0.3,0.7-0.4,1.1-0.4c0.4,0,0.8,0.1,1.2,0.4c0.3,0.3,0.5,0.8,0.4,1.3c0.1,0.4-0.1,0.9-0.4,1.2C56.5,20.6,56.1,20.8,55.6,20.8z
			 M55.6,17.8c-0.9,0-1,0.8-1,1.2c0,0.6,0.3,1.2,1,1.2c0.6,0,1-0.4,1-1.2c0-0.4-0.1-0.7-0.3-1C56.1,17.9,55.9,17.8,55.6,17.8z"/>
		<path id="Path-2" class="st0" d="M58.1,17.9c0-0.1-0.1-0.2-0.1-0.3c0-0.1,0.1-0.2,0.3-0.2c0.1,0,0.3,0.1,0.3,0.2l0.8,2.3l0.8-2.3
			c0-0.1,0.2-0.2,0.3-0.2c0.1,0,0.3,0.1,0.3,0.2c0,0.1,0,0.2-0.1,0.3l-1.4,4c0,0.1-0.2,0.2-0.3,0.2c-0.1,0-0.3-0.1-0.3-0.2
			c0-0.1,0-0.2,0.1-0.3l0.3-0.8L58.1,17.9z"/>
		<path id="Path-3" class="st0" d="M53.5,19.5c0,1.2-1.1,1.3-1.6,1.2c-0.3,0-0.7-0.1-0.9-0.4c-0.2-0.2-0.4-0.6-0.3-0.9v-1.9
			c0-0.1,0-0.1,0.1-0.2c0.1-0.1,0.1-0.1,0.2-0.1c0.1,0,0.2,0,0.2,0.1c0.1,0.1,0.1,0.1,0.1,0.2v1.8c0,0.5,0.4,0.9,0.8,0.9
			c0.5,0,0.8-0.4,0.8-0.9v-1.8c0-0.1,0-0.1,0.1-0.2c0.1-0.1,0.1-0.1,0.2-0.1c0.1,0,0.2,0,0.2,0.1c0.1,0.1,0.1,0.1,0.1,0.2L53.5,19.5
			z"/>
		<path id="Path-4" class="st0" d="M64.3,19.5c0,1.2-1.1,1.3-1.6,1.2c-0.3,0-0.7-0.1-0.9-0.4c-0.2-0.2-0.4-0.6-0.3-0.9v-1.9
			c0-0.1,0-0.1,0.1-0.2c0.1-0.1,0.1-0.1,0.2-0.1c0.1,0,0.2,0,0.2,0.1c0.1,0.1,0.1,0.1,0.1,0.2v1.8c0,0.2,0.1,0.4,0.2,0.6
			c0.2,0.2,0.4,0.2,0.6,0.2c0.2,0,0.4-0.1,0.6-0.2c0.2-0.2,0.2-0.4,0.2-0.6v-1.8c0-0.1,0-0.1,0.1-0.2c0.1-0.1,0.1-0.1,0.2-0.1
			c0.1,0,0.2,0,0.2,0.1c0.1,0.1,0.1,0.1,0.1,0.2L64.3,19.5z"/>
		<path id="Path-5" class="st0" d="M64.6,18.6c0-1.2,1.1-1.3,1.6-1.2c0.3,0,0.7,0.1,0.9,0.4c0.2,0.2,0.4,0.6,0.4,0.9v1.9
			c0,0.1,0,0.1-0.1,0.2c-0.1,0.1-0.1,0.1-0.2,0.1c-0.1,0-0.1,0-0.2-0.1c-0.1-0.1-0.1-0.1-0.1-0.2v-1.8c0-0.3-0.1-0.6-0.4-0.8
			c-0.3-0.2-0.6-0.2-0.9,0c-0.3,0.2-0.4,0.5-0.4,0.8v1.8c0,0.1,0,0.1-0.1,0.2c-0.1,0.1-0.1,0.1-0.2,0.1c-0.1,0-0.2,0-0.2-0.1
			c-0.1-0.1-0.1-0.1-0.1-0.2V18.6z"/>
		<path id="Path-6" class="st0" d="M68.5,20.1c0.1,0,0.2,0,0.2,0.1s0.1,0.1,0.1,0.2c0,0.1,0,0.2-0.1,0.2c-0.1,0.1-0.1,0.1-0.2,0.1
			c-0.2,0-0.3-0.1-0.3-0.3c0-0.1,0-0.2,0.1-0.2C68.3,20.2,68.4,20.1,68.5,20.1z"/>
		<path id="Path-7" class="st0" d="M70.7,17.4c0.6,0,1,0.3,1,0.7c0,0.1-0.1,0.2-0.2,0.2c-0.2,0-0.2-0.2-0.3-0.3
			c-0.1-0.2-0.3-0.2-0.5-0.2c-0.6,0-1,0.5-1,1.2s0.4,1.2,0.9,1.2c0.2,0,0.4-0.1,0.5-0.2c0.1-0.2,0.2-0.3,0.4-0.3
			c0.1,0,0.1,0,0.2,0.1c0,0,0.1,0.1,0.1,0.2c0,0.3-0.4,0.8-1.1,0.8c-0.4,0-0.9-0.2-1.2-0.5s-0.4-0.8-0.4-1.2
			c-0.1-0.4,0.1-0.9,0.4-1.2C69.8,17.5,70.3,17.3,70.7,17.4L70.7,17.4z"/>
		<path id="Shape-9" class="st0" d="M73.5,20.8c-0.4,0-0.9-0.2-1.2-0.5c-0.3-0.3-0.5-0.8-0.4-1.2c0-0.5,0.1-0.9,0.5-1.3
			c0.3-0.3,0.7-0.5,1.1-0.4c0.4,0,0.8,0.1,1.1,0.4c0.3,0.4,0.5,0.8,0.4,1.3c0,0.4-0.1,0.9-0.4,1.2C74.3,20.6,73.9,20.8,73.5,20.8z
			 M73.5,17.8c-0.3,0-1,0.1-1,1.2c0,0.6,0.3,1.2,1,1.2c0.6,0,1-0.5,1-1.2c0-0.4-0.1-0.7-0.3-1C74,17.9,73.7,17.8,73.5,17.8z"/>
		<path id="Path-8" class="st0" d="M77.4,18.6c0-0.2,0-0.4-0.2-0.6c-0.1-0.1-0.3-0.2-0.5-0.2c-0.2,0-0.4,0.1-0.5,0.2
			C76,18.2,76,18.4,76,18.6v1.9c0,0.1,0,0.1-0.1,0.2c-0.1,0.1-0.1,0.1-0.2,0.1c-0.1,0-0.1,0-0.2-0.1c-0.1-0.1-0.1-0.1-0.1-0.2v-2.9
			c0-0.1,0-0.2,0.1-0.2c0.1-0.1,0.1-0.1,0.2-0.1c0.2,0,0.3,0.1,0.3,0.3v0c0.2-0.2,0.6-0.3,0.9-0.3c0.3,0,0.7,0.2,0.9,0.4
			c0.3-0.3,0.7-0.5,1.1-0.4c0.3,0,0.6,0.1,0.9,0.4c0.2,0.2,0.3,0.6,0.3,0.9v1.9c0,0.1,0,0.1-0.1,0.2c-0.1,0.1-0.1,0.1-0.2,0.1
			c-0.1,0-0.1,0-0.2-0.1c-0.1-0.1-0.1-0.1-0.1-0.2v-1.9c0-0.2-0.1-0.4-0.2-0.6c-0.1-0.1-0.3-0.2-0.5-0.2c-0.2,0-0.4,0.1-0.5,0.2
			C78,18.2,78,18.4,78,18.6v1.9c0,0.1,0,0.1-0.1,0.2c-0.1,0.1-0.1,0.1-0.2,0.1c-0.1,0-0.1,0-0.2-0.1c-0.1-0.1-0.1-0.1-0.1-0.2
			L77.4,18.6z"/>
		<path id="Path-9" class="st1" d="M17,3.6c0,0,0.8-0.8,2.2,0.3s3.7,2.9,6.9,8.3c1.5,2.5,2.5,5,1.8,7c-0.2,0.7-2.6,3.9-9.6,3.9
			c-5.7,0-7.6-2.4-7.8-4.7c-0.5-4.4,0.9-8.8,3.6-12.2C15,5.1,15.9,4.3,17,3.6z"/>
		<path id="Path-10" class="st1" d="M16.8,3.9c-0.1-0.4,0.1-0.8,0.5-1c0.7-0.2,5.5-2.4,10.7,3.2c0.9,0.9,1.6,2,2.1,3.2
			c0.4,0.9,0.6,1.8,0.7,2.7c0.4,4.3-0.7,6.4-1.7,7.4c-0.2,0.3-0.6,0.4-0.9,0.4c-0.4,0-0.7-0.2-0.9-0.5C26.3,18.1,16.7,4.6,16.8,3.9z
			"/>
		<path id="Path-11" class="st1" d="M26.9,5.2c0,0,1.8-2.1,3.7-2.1c0.9,0,1.8,0.9,1.7,2.6c0,0,0.1,0.6-1,0.1
			c-1.1-0.4-2.4,0.1-2.9,1.2L26.9,5.2z"/>
		<path id="Path-12" class="st2" d="M17.1,3.7c-0.1-0.2,0-0.5,0.2-0.6c0.4-0.2,0.9-0.3,1.4-0.4c0.9-0.2,1.8-0.2,2.6-0.1
			c0,0,3.1-0.1,6.8,4.3c0.1,0.2,0.3,0.3,0.4,0.5c1.3,1.9,1.9,4.2,1.8,6.6c0,1-0.3,2-0.6,3c-0.2,0.6-0.6,1.2-1,1.7
			c-0.3,0.3-0.6,0.5-0.9,0.2c0.2-0.9,0.2-1.9-0.2-2.8c-1.4-3.2-3.4-6.2-5.8-8.8C19.5,4.9,18.7,3.7,17.1,3.7z"/>
		
			<linearGradient id="Path-13_1_" gradientUnits="userSpaceOnUse" x1="0.1352" y1="22.7202" x2="0.6526" y2="22.1286" gradientTransform="matrix(16.9285 0 0 -18.2947 10.7104 424.8522)">
			<stop  offset="0" style="stop-color:#FED586"/>
			<stop  offset="1" style="stop-color:#DEB04E"/>
		</linearGradient>
		<path id="Path-13" class="st3" d="M16.4,4.6c0,0,1-0.9,1.8-0.3c1,0.7,1.9,1.6,2.8,2.5c1,1.1,2,2.2,2.9,3.4c1.7,2,2.9,4.3,3.7,6.8
			c0.3,0.9,0,1.9-0.7,2.5c-0.7,0.5-2.1,2.7-7.7,3c-5.6,0.3-7.9-2.3-8.2-3.5c-0.6-3.5,0.1-7.2,1.9-10.3C13.8,7.1,15,5.7,16.4,4.6z"/>
		<path id="Path-14" class="st4" d="M21.5,18.6c3.4-2.3,4-4.1,4.3-4.9c0-0.1,0.1-0.2,0.1-0.2c0.6,1.1,1.1,2.3,1.5,3.5
			c0.3,0.9,0.1,1.9-0.6,2.5c-0.7,0.6-2.2,2.7-7.8,3c-2.3,0.3-4.7-0.3-6.7-1.6l0,0c1.4,0.3,2.8,0.3,4.1,0
			C18.2,20.3,19.9,19.6,21.5,18.6L21.5,18.6z"/>
		<path id="Path-15" class="st2" d="M27.3,5.4l0.9,1c0.6-0.8,1.6-1.3,2.6-1.1c0.3,0.1,0.5,0.1,0.8,0.2C31.9,5.6,32,5.6,32,5.4
			c-0.1-0.7-0.4-1.4-1-1.8C30.2,3.2,28.3,4.2,27.3,5.4z"/>
		<path id="Path-16" class="st5" d="M27.9,6L27.9,6c0.1-0.1,0.2-0.3,0.4-0.4c0.6-0.5,1.3-0.8,2.1-0.9h0.4c0.3,0,0.7,0,1,0.1l0,0
			C31.9,5,32,5.2,32,5.4c0,0.1,0,0.1,0,0.2l-0.1,0c-0.1,0-0.2,0-0.2-0.1c-0.3-0.1-0.8-0.2-0.8-0.2l-0.5,0c-0.8,0-1.6,0.4-2.1,1.1h0
			L27.9,6z"/>
		<path id="Path-17" class="st5" d="M28.3,5.6C28,5.9,28,6,28,6l0.3,0.3c0.6-0.9,1.6-1.3,2.6-1.1c0.3,0.1,0.5,0.1,0.8,0.2
			C31.9,5.6,32,5.6,32,5.4c0-0.2-0.1-0.4-0.1-0.6c-0.5-0.1-1-0.1-1.5-0.1C29.6,4.8,28.9,5.1,28.3,5.6L28.3,5.6z"/>
		<path id="Path-18" class="st6" d="M11.7,22.5H6.8c-1.8,0-3.5-0.7-4.8-2c-1.7-1.7-2.3-4.1-1.8-6.5s2.2-4.2,4.5-5v0
			c0-2.6,2-4.7,4.6-4.7l0.5,0c0.4-1.2,1.2-2.2,2.2-3c2.2-1.7,5.3-1.8,7.5-0.2c0.1,0.1,0.2,0.2,0.2,0.3c0,0.1,0,0.2-0.1,0.3
			c-0.1,0.1-0.2,0.2-0.3,0.2c-0.1,0-0.2,0-0.3-0.1c-2-1.4-4.6-1.3-6.5,0.2c-1,0.7-1.7,1.8-2,2.9c-0.1,0.2-0.3,0.4-0.5,0.3l0,0
			c-0.2,0-0.5-0.1-0.7-0.1C7.2,5.2,5.6,6.9,5.6,9c0,0.1,0,0.2,0,0.3c0,0.2-0.1,0.4-0.3,0.5h0c-2.9,0.8-4.7,3.6-4.3,6.5
			s2.9,5.2,5.8,5.2h4.9c0.2,0,0.4,0.2,0.4,0.5S11.9,22.5,11.7,22.5z"/>
		<path id="Path-19" class="st5" d="M28.1,19c-0.1,0-0.2,0-0.3-0.1l0,0c0.2-0.9,0.2-1.9-0.2-2.8c-0.4-1-0.9-1.9-1.4-2.8l0,0l0.6-0.5
			c0.8-0.9,1.2-2.1,1.2-3.3c0.1-0.9,0.1-1.9-0.2-2.8c0-0.1,0-0.2,0-0.2h0l0,0l0.3,0.3c0.1,0.2,0.3,0.3,0.4,0.5
			c1.3,1.9,1.9,4.2,1.8,6.6c0,1-0.3,2-0.6,3c-0.2,0.6-0.5,1.2-0.9,1.7C28.4,19,28.3,19,28.1,19L28.1,19z"/>
		<path id="Path-20" class="st5" d="M28.5,7.4c-0.1-0.2-0.2-0.4-0.4-0.5l-0.3-0.3c0.2,1,0.3,2,0.2,3c0,1.2-0.4,2.3-1.2,3.3l-0.6,0.5
			c0.5,0.9,1,1.8,1.4,2.8c0.4,0.9,0.4,1.9,0.2,2.8c0.3,0.3,0.6,0.1,0.9-0.2c0.4-0.5,0.7-1.1,0.9-1.7c0.4-1,0.6-2,0.6-3
			C30.4,11.7,29.8,9.4,28.5,7.4z"/>
	</g>
</g>
</svg>
