<svg id="图层_1" data-name="图层 1" xmlns="http://www.w3.org/2000/svg" viewBox="0 0 1024 1024"><title>ai</title><path d="M186.9,64c-18.4,0-33.4,14.7-33.4,32.6V927.4c0,17.9,15,32.6,33.4,32.6H837.1c18.4,0,33.4-14.7,33.4-32.6V259.5L669.9,64Zm0,0" style="fill:#ff860d"/><path d="M669.9,64V226.9c0,17.9,15,32.6,33.4,32.6H870.5Zm0,0" style="fill:#ffba9f"/><path d="M509.8,593.1H421.8l-21.6,72.1H359.6l83.8-252.8h46l83.8,252.8H531.1Zm-9.6-31.2-10-34c-8.6-27.5-16.1-55.6-24-84.1h-1.4c-7.2,28.8-15.1,56.7-23.3,84.1l-10.3,34Z" style="fill:#fff"/><path d="M606.6,412.5h39.8V665.3H606.6Z" style="fill:#fff"/></svg>