<svg id="图层_1" data-name="图层 1" xmlns="http://www.w3.org/2000/svg" viewBox="0 0 1024 1024"><title>apk</title><path d="M186.9,64c-18.4,0-33.4,14.7-33.4,32.6V927.4c0,17.9,15,32.6,33.4,32.6H837.1c18.4,0,33.4-14.7,33.4-32.6V259.5L669.9,64Zm0,0" style="fill:#6ab344"/><path d="M669.9,64V226.9c0,17.9,15,32.6,33.4,32.6H870.5Zm0,0" style="fill:#bcf29c"/><path d="M618,415l39.5-38.2a11.2,11.2,0,0,0-.5-16l-.3-.3a12.3,12.3,0,0,0-16.2,0L598,401.8a175.2,175.2,0,0,0-171.5,0l-42.8-41.3a12.3,12.3,0,0,0-17,.8,11.7,11.7,0,0,0,0,15.7l39.5,38a164.2,164.2,0,0,0-65.9,130.7,11.3,11.3,0,0,0,11.4,11.1H672.2a11.1,11.1,0,0,0,11.4-11.1A164.7,164.7,0,0,0,618,415Zm-169,64.1a16.7,16.7,0,1,1,17.2-16.7A16.7,16.7,0,0,1,449.1,479.1Zm126.9,0h-1a16.7,16.7,0,1,1-1-33.4h1a16.7,16.7,0,1,1,1,33.4Z" style="fill:#fff"/><path d="M408.9,791.1H359L346.7,832h-23l47.5-143.4h26.1L444.9,832h-24Zm-5.5-17.7-5.6-19.3c-4.9-15.6-9.2-31.6-13.6-47.7h-.8c-4.1,16.4-8.6,32.1-13.2,47.7l-5.9,19.3Z" style="fill:#fff"/><path d="M463.9,688.6h43.5c32,0,54.7,10.9,54.7,43.2s-22.8,45.8-54,45.8H486.5V832H463.9ZM506,759.5c23,0,33.9-8.8,33.9-27.7s-11.9-25.1-34.7-25.1H486.5v52.8Z" style="fill:#fff"/><path d="M590,688.6h22.6v67.8h.6l54.5-67.8h25.1L648.5,744l51.8,88H675.1l-40.5-70.1-22,26.9V832H590Z" style="fill:#fff"/></svg>