<svg id="图层_1" data-name="图层 1" xmlns="http://www.w3.org/2000/svg" viewBox="0 0 1024 1024"><title>audio</title><path d="M186.9,64c-18.4,0-33.4,14.7-33.4,32.6V927.4c0,17.9,15,32.6,33.4,32.6H837.1c18.4,0,33.4-14.7,33.4-32.6V259.5L669.9,64Zm0,0" style="fill:#ff5364"/><path d="M669.9,64V226.9c0,17.9,15,32.6,33.4,32.6H870.5Zm0,0" style="fill:#ffb8c6"/><path d="M572.3,416.3c-35.4-27.9-44.2-67.5-46.1-92V304.1a6.7,6.7,0,0,0-6.6-6.7H509.6a6.7,6.7,0,0,0-6.7,6.6L502,622.9c-17.6-8.2-42.2-6.7-64.3,6.1-31.7,18.2-46.3,52.4-32.5,76.3s50.6,28.5,82.3,10.2c23.9-13.7,38-36.6,37.7-57.2h0l.8-235.9v1.1c133.2,46.5,64.8,190.1,64.8,190.1C646,553,627.1,459.5,572.3,416.3Z" style="fill:#fff"/></svg>