<?xml version="1.0" encoding="utf-8"?>
<!-- Generator: Adobe Illustrator 24.0.0, SVG Export Plug-In . SVG Version: 6.00 Build 0)  -->
<svg version="1.1" id="图层_1" xmlns="http://www.w3.org/2000/svg" xmlns:xlink="http://www.w3.org/1999/xlink" x="0px" y="0px"
	 viewBox="0 0 20 20" style="enable-background:new 0 0 20 20;" xml:space="preserve">
<style type="text/css">
	.st0{fill:#9F9F9F;}
	
		.st1{fill:none;stroke:#9F9F9F;stroke-width:1.5;stroke-linecap:round;stroke-linejoin:round;stroke-miterlimit:10;enable-background:new    ;}
</style>
<path class="st0" d="M6.7,1.5c0.4,0,0.8,0.2,1.1,0.4l1.6,1.6c0.7,0.7,1.5,1,2.5,1H17c0.8,0,1.5,0.7,1.5,1.5v11
	c0,0.8-0.7,1.5-1.5,1.5H3c-0.8,0-1.5-0.7-1.5-1.5V3c0-0.8,0.7-1.5,1.5-1.5H6.7 M6.7,0H3C1.3,0,0,1.3,0,3v14c0,1.7,1.3,3,3,3h14
	c1.7,0,3-1.3,3-3V6c0-1.7-1.3-3-3-3h-5.2c-0.5,0-1-0.2-1.4-0.6L8.9,0.9C8.3,0.3,7.5,0,6.7,0L6.7,0z"/>
<line class="st1" x1="14" y1="11.5" x2="6" y2="11.5"/>
<polyline class="st1" points="10,15.5 14,11.5 10,7.5 "/>
</svg>
