<?xml version="1.0" encoding="utf-8"?>
<!-- Generator: Adobe Illustrator 24.0.0, SVG Export Plug-In . SVG Version: 6.00 Build 0)  -->
<svg version="1.1" id="图层_1" xmlns="http://www.w3.org/2000/svg" xmlns:xlink="http://www.w3.org/1999/xlink" x="0px" y="0px"
	 viewBox="0 0 14 14" style="enable-background:new 0 0 14 14;" xml:space="preserve">
<style type="text/css">
	.st0{fill:#9F9F9F;}
</style>
<title>search_close</title>
<g id="search_close">
	<path id="形状结合" class="st0" d="M13.6,0.2c0.3,0.3,0.4,0.7,0.1,1.1l-0.1,0.1L8.1,7l5.6,5.6l0.1,0.1c0.3,0.3,0.2,0.8-0.1,1.1
		c-0.3,0.3-0.8,0.3-1.1,0l0,0L7,8l-5.6,5.6c-0.3,0.3-0.8,0.3-1.1,0s-0.4-0.7-0.1-1.1l0.1-0.1L5.9,7L0.3,1.3l0,0
		C0,0.9,0.1,0.5,0.4,0.2s0.8-0.3,1.1,0l0,0L7,5.9l5.6-5.6C12.9-0.1,13.3-0.1,13.6,0.2z"/>
</g>
</svg>
