<?xml version="1.0" encoding="utf-8"?>
<!-- Generator: Adobe Illustrator 24.0.0, SVG Export Plug-In . SVG Version: 6.00 Build 0)  -->
<svg version="1.1" id="图层_1" xmlns="http://www.w3.org/2000/svg" xmlns:xlink="http://www.w3.org/1999/xlink" x="0px" y="0px"
	 viewBox="0 0 12 12" style="enable-background:new 0 0 12 12;" xml:space="preserve">
<style type="text/css">
	.st0{fill:#F56C6C;}
</style>
<g>
	<path class="st0" d="M6,0C2.7,0,0,2.7,0,6s2.7,6,6,6s6-2.7,6-6S9.3,0,6,0z M8.8,8.1C9,8.3,9,8.6,8.8,8.8S8.3,9,8.1,8.8L6,6.7
		L3.9,8.8C3.7,9,3.4,9,3.2,8.8S3,8.3,3.2,8.1L5.3,6L3.2,3.9C3,3.7,3,3.4,3.2,3.2s0.5-0.2,0.7,0L6,5.3l2.1-2.1C8.3,3,8.6,3,8.8,3.2
		s0.2,0.5,0,0.7L6.7,6L8.8,8.1z"/>
</g>
</svg>
