<?xml version="1.0" encoding="utf-8"?>
<!-- Generator: Adobe Illustrator 24.0.0, SVG Export Plug-In . SVG Version: 6.00 Build 0)  -->
<svg version="1.1" id="folder-sync" xmlns="http://www.w3.org/2000/svg" xmlns:xlink="http://www.w3.org/1999/xlink" x="0px"
	 y="0px" viewBox="0 0 20 20" style="enable-background:new 0 0 20 20;" xml:space="preserve">
<style type="text/css">
	.st0{fill:#9FDDFF;}
	.st1{fill:#74C6FF;}
	.st2{opacity:0;fill:#FFFFFF;}
</style>
<g id="folder-sync-2" transform="translate(0 1.2)">
	<path id="路径_4245" class="st0" d="M7.4,0.3l0.5,0.5C8.1,1,8.3,1.1,8.5,1.1h10.3c0.6,0,1.1,0.4,1.2,1v10.5
		c-0.1,0.6-0.6,1.1-1.2,1H1.2c-0.6,0-1.1-0.4-1.2-1V1C0.1,0.4,0.6,0,1.2,0h5.6C7,0,7.3,0.1,7.4,0.3z"/>
	<path id="路径_4246" class="st1" d="M0,6.1v10.3c0,0.7,0.5,1.2,1.2,1.2c0,0,0,0,0,0h17.6c0.7,0,1.2-0.5,1.2-1.2c0,0,0,0,0,0V6.1
		H0z"/>
</g>
<rect id="矩形_978" class="st2" width="20" height="20"/>
</svg>
