<?xml version="1.0" encoding="utf-8"?>
<!-- Generator: Adobe Illustrator 24.0.0, SVG Export Plug-In . SVG Version: 6.00 Build 0)  -->
<svg version="1.1" id="图层_1" xmlns="http://www.w3.org/2000/svg" xmlns:xlink="http://www.w3.org/1999/xlink" x="0px" y="0px"
	 viewBox="0 0 32 32" style="enable-background:new 0 0 32 32;" xml:space="preserve">
<style type="text/css">
	.st0{fill:#9FDDFF;}
	.st1{fill:#74C6FF;}
</style>
<title>list_folder_sync</title>
<g id="list_folder_sync">
	<g transform="translate(0.000000, 1.000000)">
		<path id="路径_4381" class="st0" d="M11.9,0.5l0.8,1c0.2,0.3,0.6,0.5,1,0.5h16.4c1,0,1.9,0.8,1.9,1.9V23c0,0.5-0.2,1-0.6,1.3
			s-0.8,0.5-1.3,0.5H1.9c-0.5,0-1-0.2-1.3-0.5C0.2,23.9,0,23.5,0,23V1.9C0,0.8,0.9,0,1.9,0h9C11.3,0,11.6,0.2,11.9,0.5z"/>
		<path id="路径_4382" class="st1" d="M0,6.4V28c0,0.5,0.2,1,0.6,1.4C0.9,29.8,1.4,30,1.9,30h28.2c0.5,0,1-0.2,1.4-0.6
			s0.6-0.9,0.6-1.4V6.4H0z"/>
	</g>
</g>
</svg>
