<svg id="图层_1" data-name="图层 1" xmlns="http://www.w3.org/2000/svg" viewBox="0 0 1024 1024"><title>ngm</title><path d="M186.9,64c-18.4,0-33.4,14.7-33.4,32.6V927.4c0,17.9,15,32.6,33.4,32.6H837.1c18.4,0,33.4-14.7,33.4-32.6V259.5L669.9,64Z" style="fill:#f9ab4e"/><path d="M669.9,64V226.9c0,17.9,15,32.6,33.4,32.6H870.5Z" style="fill:#ffc580"/><path d="M694.7,601.7H675.4V529.6a36.8,36.8,0,0,0-36.8-36.8H526V422.2h19.7a25.9,25.9,0,0,0,25.9-25.9V329a25.9,25.9,0,0,0-25.9-25.9H478.3A25.9,25.9,0,0,0,452.4,329v67.4a25.9,25.9,0,0,0,25.9,25.9h17.9v70.6H385.3a36.8,36.8,0,0,0-36.8,36.8v72.1H329.3a25.9,25.9,0,0,0-25.9,25.9V695a25.9,25.9,0,0,0,25.9,25.9h67.4A25.9,25.9,0,0,0,422.6,695V627.6a25.9,25.9,0,0,0-25.9-25.9H378.4V529.6a7,7,0,0,1,7-7H496.2v79.1H478.3a25.9,25.9,0,0,0-25.9,25.9V695a25.9,25.9,0,0,0,25.9,25.9h67.4A25.9,25.9,0,0,0,571.6,695V627.5a25.9,25.9,0,0,0-25.9-25.9H526.1V522.7H638.7a7,7,0,0,1,7,7v72H627.3a25.9,25.9,0,0,0-25.9,25.9V695a25.9,25.9,0,0,0,25.9,25.9h67.4A25.9,25.9,0,0,0,720.6,695V627.6A26,26,0,0,0,694.7,601.7Zm-4,37.9V683a8,8,0,0,1-8,8H639.2a8,8,0,0,1-8-8V639.6a8,8,0,0,1,8-8h43.4A8,8,0,0,1,690.7,639.6ZM482.3,683V639.6a8,8,0,0,1,8-8h43.4a8,8,0,0,1,8,8V683a8,8,0,0,1-8,8H490.3A8,8,0,0,1,482.3,683ZM541.7,341v43.4a8,8,0,0,1-8,8H490.3a8,8,0,0,1-8-8V341a8,8,0,0,1,8-8h43.4A8,8,0,0,1,541.7,341ZM333.3,683V639.6a8,8,0,0,1,8-8h43.4a8,8,0,0,1,8,8V683a8,8,0,0,1-8,8H341.3A8,8,0,0,1,333.3,683Z" style="fill:#fff"/></svg>