<svg id="图层_1" data-name="图层 1" xmlns="http://www.w3.org/2000/svg" viewBox="0 0 1024 1024"><title>pdf</title><path d="M186.9,64c-18.4,0-33.4,14.7-33.4,32.6V927.4c0,17.9,15,32.6,33.4,32.6H837.1c18.4,0,33.4-14.7,33.4-32.6V259.5L669.9,64Zm0,0" style="fill:#d64343"/><path d="M669.9,64V226.9c0,17.9,15,32.6,33.4,32.6H870.5Zm0,0" style="fill:#f7857f"/><path d="M690.1,585c-28.1-14.5-60.9-9.8-91.1-7.3s-40.8-14.5-58.6-38.7-23-30.8-15.8-58.7,17.3-59.2,10.2-87.2c-5.4-21.4-27.9-43.2-49-23.9s-6.7,63.8-.1,84.9c9.5,30.6,10.2,39.3-2.2,70.3-10.4,25.9-21.4,65.4-39.5,86.3s-130.8,50.5-105.6,95.2c15.4,27.2,52.3,6.6,68.4-7.1,24.9-21.2,35.5-51.7,57.2-74.4,18.3-19.2,50.3-22.7,76.1-28.7,37.2-8.6,35.3-1.7,66.3,16.2C627.6,624,656,636,681.4,631.9,710.3,627.2,717.3,599,690.1,585Zm-304,108.2c-28.4,27.3-57.5,8.8-28.3-21.2,16.7-17.2,49.6-39.6,74.4-39.5C418.5,653.4,404.2,675.7,386.1,693.2Zm98-296.1c.9-20,17.6-40.2,31.5-16.5,12.7,21.8-6.6,72.7-14.7,93.8C490.8,449.9,482.9,423.9,484.1,397.1Zm-9.9,209.5c16.1-29.9,28.6-61.4,40.3-93.2,15.5,24.5,32.5,48,53.3,68.4C536.4,589.3,504.8,596.4,474.2,606.6Zm209.6-.7c-5.7,44.8-84.6-6.2-98.5-18.8C604,584,688.5,568.5,683.8,606Z" style="fill:#fff"/></svg>