<svg xmlns="http://www.w3.org/2000/svg" width="40" height="40" viewBox="0 0 40 40">
  <defs>
    <style>
      .cls-1 {
        fill: #fff;
      }

      .cls-2 {
        fill: #18bd6b;
      }
    </style>
  </defs>
  <g id="success" transform="translate(-12 -10)">
    <circle id="椭圆_32" data-name="椭圆 32" class="cls-1" cx="15.5" cy="15.5" r="15.5" transform="translate(17 15)"/>
    <path id="路径_1771" data-name="路径 1771" class="cls-2" d="M32,50A20,20,0,1,1,52,30,20.059,20.059,0,0,1,32,50ZM27.5,38.9a2.175,2.175,0,0,0,3,0L43.1,26.3a2.083,2.083,0,0,0,.5-2,2.254,2.254,0,0,0-1.5-1.5,2.083,2.083,0,0,0-2,.5l-11.2,11-5-5a2.083,2.083,0,0,0-2-.5,2.254,2.254,0,0,0-1.5,1.5,2.083,2.083,0,0,0,.5,2Z"/>
  </g>
</svg>
