<svg id="图层_1" data-name="图层 1" xmlns="http://www.w3.org/2000/svg" viewBox="0 0 1024 1024"><title>word</title><path d="M186.9,64c-18.4,0-33.4,14.7-33.4,32.6V927.4c0,17.9,15,32.6,33.4,32.6H837.1c18.4,0,33.4-14.7,33.4-32.6V259.5L669.9,64Zm0,0" style="fill:#3891fc"/><path d="M669.9,64V226.9c0,17.9,15,32.6,33.4,32.6H870.5Zm0,0" style="fill:#a6d3ff"/><path d="M355.4,395.8h44.3l25.5,139.9,14.4,86.2h1.5c5.9-28.9,12.2-57.7,18.5-86.2l35.1-139.9h37.7l35.4,139.9c6.3,28.1,12.2,57,18.5,86.2H588c4.4-29.2,9.2-58.1,13.7-86.2l25.8-139.9h41L614.9,664.6H562.2L525.6,515.2c-4.8-21.2-8.9-41.3-12.6-61.7h-1.8c-3.7,20.5-8.1,40.5-12.6,61.7L462.9,664.6H411.2Z" style="fill:#fff"/></svg>