<svg id="图层_1" data-name="图层 1" xmlns="http://www.w3.org/2000/svg" viewBox="0 0 1024 1024"><title>xmind</title><path d="M186.9,64c-18.4,0-33.4,14.7-33.4,32.6V927.4c0,17.9,15,32.6,33.4,32.6H837.1c18.4,0,33.4-14.7,33.4-32.6V259.5L669.9,64Zm0,0" style="fill:#e95f50"/><path d="M669.9,64V226.9c0,17.9,15,32.6,33.4,32.6H870.5Zm0,0" style="fill:#fcb6b4"/><path d="M478.3,578.1a44,44,0,0,1,67.4,0L633,656.7a13.3,13.3,0,1,1-17.8,19.7l-91.8-82.6-1.3-1.4a17.6,17.6,0,0,0-20.2,0l-1.3,1.4-91.8,82.6A13.3,13.3,0,1,1,391,656.7l87.3-78.6Z" style="fill:#fff"/><path d="M478.3,519.2a44,44,0,0,0,67.4,0L633,440.7A13.3,13.3,0,1,0,615.2,421l-91.8,82.6-1.3,1.4a17.5,17.5,0,0,1-20.2,0l-1.3-1.4L408.8,421A13.3,13.3,0,1,0,391,440.7l87.3,78.6Z" style="fill:#fff"/></svg>