<svg xmlns="http://www.w3.org/2000/svg" width="100" height="104" viewBox="0 0 100 104">
  <defs>
    <style>
      .cls-1 {
        fill: #4b0b00;
      }

      .cls-2 {
        fill: #c57b38;
      }

      .cls-3 {
        fill: #ffd681;
      }

      .cls-4 {
        fill: #b97427;
      }

      .cls-5 {
        fill: #bd7031;
      }

      .cls-6 {
        fill: #652e09;
      }

      .cls-7 {
        fill: #c16a1d;
      }

      .cls-8 {
        fill: #703407;
      }

      .cls-9 {
        fill: #e8e8e8;
      }
    </style>
  </defs>
  <g id="about_logo_dark" transform="translate(-0.057)">
    <g id="组_4354" data-name="组 4354" transform="translate(12.097)">
      <path id="路径_4602" data-name="路径 4602" class="cls-1" d="M121.059,24.221s1.842-1.809,4.958.636,8.274,6.3,15.61,18.022c3.45,5.527,5.628,10.988,3.986,15.309-.536,1.44-5.862,8.408-21.607,8.408-12.729,0-17.051-5.326-17.486-10.251,0,0-2.177-14.907,8.174-26.564A26.992,26.992,0,0,1,121.059,24.221Z" transform="translate(-83.101 -15.679)"/>
      <path id="路径_4603" data-name="路径 4603" class="cls-1" d="M150.2,18.4a1.871,1.871,0,0,1,1.105-2.211c1.507-.536,12.327-5.326,24.052,6.968a23.452,23.452,0,0,1,4.623,6.9,20.162,20.162,0,0,1,1.641,5.929c.938,9.38-1.675,13.969-3.886,16.012a2.613,2.613,0,0,1-4.087-.335C171.81,49.49,149.969,20.011,150.2,18.4Z" transform="translate(-112.246 -9.861)"/>
      <path id="路径_4604" data-name="路径 4604" class="cls-1" d="M219.3,25.156s4.02-4.556,8.375-4.556c1.909,0,4.053,1.976,3.886,5.661,0,0,.268,1.407-2.244.167-1.407-.67-5.494-.268-6.5,2.579Z" transform="translate(-158.228 -13.699)"/>
      <path id="路径_4605" data-name="路径 4605" class="cls-2" d="M152.474,19.7a.963.963,0,0,1,.536-1.239,14.057,14.057,0,0,1,3.182-.971,19.936,19.936,0,0,1,5.9-.2s6.9-.167,15.443,9.48a6.389,6.389,0,0,1,.871,1.172,23.317,23.317,0,0,1,3.953,14.5,19.848,19.848,0,0,1-1.44,6.633A12.915,12.915,0,0,1,178.8,52.8c-.569.569-1.273,1-1.943.435a9.556,9.556,0,0,0-.435-6.231c-1.373-3.752-7.537-14.17-13.031-19.463C158.169,22.552,155.992,19.637,152.474,19.7Z" transform="translate(-113.746 -11.43)"/>
      <path id="路径_4606" data-name="路径 4606" class="cls-3" d="M120.8,28.084s2.177-1.976,4.087-.67a44.559,44.559,0,0,1,6.3,5.427,93.615,93.615,0,0,1,6.6,7.571c5.8,7.3,7.638,12.7,8.241,15.007s0,4.388-1.641,5.494-4.623,5.9-17.319,6.666c-12.7.737-17.855-5.192-18.491-7.7,0,0-2.579-10.251,4.355-22.745C112.956,37.095,116.239,31.165,120.8,28.084Z" transform="translate(-84.172 -17.934)"/>
      <path id="路径_4607" data-name="路径 4607" class="cls-4" d="M140.346,100.156c7.6-5.058,9.078-9.179,9.748-10.82a3.441,3.441,0,0,1,.234-.536,29.819,29.819,0,0,1,3.283,7.738,5.082,5.082,0,0,1-1.44,5.494c-1.172,1-4.857,5.9-17.52,6.666-7.37.435-12.193-1.373-15.074-3.484-.2-.134.167.134,0,0a21.166,21.166,0,0,0,9.313-.134A38.917,38.917,0,0,0,140.346,100.156Z" transform="translate(-91.774 -59.053)"/>
      <path id="路径_4608" data-name="路径 4608" class="cls-5" d="M221.9,26.958l2.11,2.244a5.893,5.893,0,0,1,5.929-2.378,9.605,9.605,0,0,1,1.742.5c.435.2.77.268.737-.234s-.6-3.249-2.311-4.053C228.4,22.2,224.044,24.378,221.9,26.958Z" transform="translate(-159.957 -15.2)"/>
      <path id="路径_4609" data-name="路径 4609" class="cls-6" d="M226.1,33.914h0c0-.033.1-.2.837-.871a9.526,9.526,0,0,1,4.656-2.01,9.42,9.42,0,0,1,1-.034,17.639,17.639,0,0,1,2.345.167h.033V31.2a5.365,5.365,0,0,1,.3,1.306c0,.167,0,.268-.067.335-.033.067-.1.067-.2.067a.963.963,0,0,1-.5-.167,8.9,8.9,0,0,0-1.742-.5,6.168,6.168,0,0,0-1.105-.1,5.809,5.809,0,0,0-4.79,2.479l-.034.034Z" transform="translate(-162.75 -20.615)"/>
      <path id="路径_4610" data-name="路径 4610" class="cls-6" d="M227.037,33.109c-.77.67-.837.837-.837.837l.67.7a5.893,5.893,0,0,1,5.929-2.378,9.6,9.6,0,0,1,1.742.5c.435.2.77.268.737-.234a5.365,5.365,0,0,0-.3-1.306,13.965,13.965,0,0,0-3.316-.134A9.431,9.431,0,0,0,227.037,33.109Z" transform="translate(-162.817 -20.648)"/>
      <g id="组_4352" data-name="组 4352">
        <path id="路径_4611" data-name="路径 4611" class="cls-7" d="M62.229,49.779H51.242a15.25,15.25,0,0,1-4.723-29.747V19.9A10.386,10.386,0,0,1,56.87,9.514c.4,0,.8.033,1.206.067A14.676,14.676,0,0,1,80.051,2.512a1.013,1.013,0,1,1-1.139,1.675A12.738,12.738,0,0,0,71.843,2.01a12.448,12.448,0,0,0-7.6,2.546,12.642,12.642,0,0,0-4.489,6.432,1.033,1.033,0,0,1-1.172.7h0a9.159,9.159,0,0,0-1.675-.167,8.363,8.363,0,0,0-8.341,8.341,5.428,5.428,0,0,0,.033.737,1.037,1.037,0,0,1-.737,1.105h-.033a13.338,13.338,0,0,0-9.815,12.83A13.267,13.267,0,0,0,51.242,47.769H62.229a1.008,1.008,0,0,1,1,1A.987.987,0,0,1,62.229,49.779Z" transform="translate(-36)"/>
      </g>
      <g id="组_4353" data-name="组 4353" transform="translate(59.43 14.51)">
        <path id="路径_4612" data-name="路径 4612" class="cls-8" d="M225.3,43.5Z" transform="translate(-221.649 -43.438)"/>
        <path id="路径_4613" data-name="路径 4613" class="cls-8" d="M225.3,43.5Z" transform="translate(-221.649 -43.438)"/>
        <path id="路径_4614" data-name="路径 4614" class="cls-8" d="M218.721,70.969a1.232,1.232,0,0,1-.7-.268h-.034v-.033a9.88,9.88,0,0,0-.435-6.231,41.4,41.4,0,0,0-3.149-6.2v-.033l1.273-1.072c2.144-2.546,2.378-4.187,2.747-7.169a15.955,15.955,0,0,0-.4-6.164c-.067-.3-.1-.368-.067-.4h.034c.033,0,.033,0,.067.033.234.234.469.5.7.77a8.878,8.878,0,0,1,.871,1.172,23.448,23.448,0,0,1,3.953,14.5,20.706,20.706,0,0,1-1.44,6.666,13.482,13.482,0,0,1-2.11,3.752,2.124,2.124,0,0,1-1.306.67Z" transform="translate(-214.4 -43.371)"/>
        <path id="路径_4615" data-name="路径 4615" class="cls-8" d="M219.792,45.286a8.875,8.875,0,0,0-.871-1.172c-.234-.268-.469-.5-.67-.77-.335-.335,1,2.278.435,6.532-.4,3.015-.6,4.656-2.747,7.2L214.7,58.149a44.876,44.876,0,0,1,3.149,6.2,9.556,9.556,0,0,1,.435,6.231c.67.569,1.373.134,1.943-.435a13.387,13.387,0,0,0,2.11-3.718,20.917,20.917,0,0,0,1.44-6.633A23.441,23.441,0,0,0,219.792,45.286Z" transform="translate(-214.599 -43.314)"/>
      </g>
    </g>
    <g id="组_4357" data-name="组 4357" transform="translate(0.057 62.227)">
      <g id="组_4355" data-name="组 4355" transform="translate(3.632)">
        <path id="路径_4616" data-name="路径 4616" class="cls-9" d="M34.449,234.372H24.3v-3.685h7.37a1.038,1.038,0,1,0,0-2.077H24.3v-.938a1.139,1.139,0,1,0-2.278,0v.9H14.685a1.038,1.038,0,1,0,0,2.077h7.3v3.685H11.972a1.072,1.072,0,1,0,0,2.144H34.516a.935.935,0,0,0,.67-.268,1.091,1.091,0,0,0,.335-.77A1.079,1.079,0,0,0,34.449,234.372Z" transform="translate(-10.9 -212.33)"/>
        <path id="路径_4617" data-name="路径 4617" class="cls-9" d="M40.931,198.994a1.351,1.351,0,0,0,.6.536,1.047,1.047,0,0,0,.837-.034,25.182,25.182,0,0,0,5.058-2.814,24.374,24.374,0,0,0,5.728,3.115l.067.033a1.2,1.2,0,0,0,.368.067,1.07,1.07,0,0,0,.469-.1,1.154,1.154,0,0,0-.1-2.11,21.634,21.634,0,0,1-4.824-2.512,19.337,19.337,0,0,0,4.221-6.666,1.96,1.96,0,0,0,.067-.435,1.316,1.316,0,0,0-.4-1.038,1.376,1.376,0,0,0-.971-.435H42.237a1.077,1.077,0,0,0-.1,2.144,19.014,19.014,0,0,0,3.718,6.4,22.767,22.767,0,0,1-4.355,2.345,1.163,1.163,0,0,0-.569,1.507Zm3.417-10.284H50.88a14.632,14.632,0,0,1-3.383,5.025A16.8,16.8,0,0,1,44.347,188.71Z" transform="translate(-30.814 -185.796)"/>
        <path id="路径_4618" data-name="路径 4618" class="cls-9" d="M32.272,198.3a1.066,1.066,0,0,0,1.072-1.105V185.405a1.087,1.087,0,0,0-1.072-1.105,1.066,1.066,0,0,0-1.072,1.105V197.2A1.087,1.087,0,0,0,32.272,198.3Z" transform="translate(-24.4 -184.266)"/>
        <path id="路径_4619" data-name="路径 4619" class="cls-9" d="M17.172,199.757a1.087,1.087,0,0,0,1.072-1.105v-9.447a1.109,1.109,0,0,0-1.072-1.105,1.087,1.087,0,0,0-1.072,1.105v9.447A1.087,1.087,0,0,0,17.172,199.757Z" transform="translate(-14.358 -186.794)"/>
        <path id="路径_4620" data-name="路径 4620" class="cls-9" d="M226.739,188.345h16.28a1.173,1.173,0,0,0,0-2.345h-16.28a1.137,1.137,0,0,0-1.139,1.172A1.118,1.118,0,0,0,226.739,188.345Z" transform="translate(-154.01 -185.397)"/>
        <path id="路径_4621" data-name="路径 4621" class="cls-9" d="M239.714,211.645a1.172,1.172,0,0,0,0-2.345H217.772a1.172,1.172,0,0,0,0,2.345h7.2a43.763,43.763,0,0,1-4.556,7.269,22.628,22.628,0,0,1-1.474,1.742,2.011,2.011,0,0,0-.4,2.077,1.627,1.627,0,0,0,1.675.971c2.378-.368,7.738-.9,16.347-1.708.335.569.8,1.273,1.306,2.01v.033l.033.034a1.177,1.177,0,0,0,.7.469h.167a1.031,1.031,0,0,0,.636-.2,1.175,1.175,0,0,0,.268-1.608l-5.326-8.174a1,1,0,0,0-.737-.5,1.265,1.265,0,0,0-.9.167h0a1.058,1.058,0,0,0-.435.737,1.211,1.211,0,0,0,.2.837c1.206,1.742,2.077,2.981,2.68,3.919l-13.064,1.139a61.476,61.476,0,0,0,5.9-9.246h11.725Z" transform="translate(-148.024 -200.892)"/>
        <path id="路径_4622" data-name="路径 4622" class="cls-9" d="M137.948,204.969a37.866,37.866,0,0,1-8.308-5.36h7.839a1.106,1.106,0,0,0,0-2.211h-9.748v-1.943h5.963a2.431,2.431,0,0,0,2.412-2.445v-6.365a2.431,2.431,0,0,0-2.412-2.445h-14.1a2.431,2.431,0,0,0-2.412,2.445v6.365a2.431,2.431,0,0,0,2.412,2.445h5.762V197.4h-9.681a1.106,1.106,0,0,0,0,2.211h7.839q-2.311,2.362-8.241,5.427a1.169,1.169,0,0,0-.469,1.574,1.156,1.156,0,0,0,.67.536,1.575,1.575,0,0,0,.871-.067c4.221-2.345,7.269-4.455,9.045-6.331v6.5a1.173,1.173,0,1,0,2.345,0v-6.666c1.742,1.775,4.757,3.852,9.145,6.331a1.129,1.129,0,0,0,1.574-.4l.067-.067A1.216,1.216,0,0,0,137.948,204.969Zm-4.254-17.017a.829.829,0,0,1-.837.837h-4.288a.875.875,0,0,1-.837-.837v-.8a.829.829,0,0,1,.837-.837h4.288a.875.875,0,0,1,.837.837Zm-5.125,2.881h4.288a.875.875,0,0,1,.837.837v.837a.829.829,0,0,1-.837.837h-4.288a.875.875,0,0,1-.837-.837v-.837A.809.809,0,0,1,128.569,190.833Zm-9.011.837a.829.829,0,0,1,.837-.837h4.154a.875.875,0,0,1,.837.837v.837a.829.829,0,0,1-.837.837H120.4a.875.875,0,0,1-.837-.837Zm4.991-2.881H120.4a.875.875,0,0,1-.837-.837v-.8a.829.829,0,0,1,.837-.837h4.154a.875.875,0,0,1,.837.837v.8A.874.874,0,0,1,124.549,188.789Z" transform="translate(-80.028 -184.2)"/>
      </g>
      <g id="组_4356" data-name="组 4356" transform="translate(0 27.737)">
        <path id="路径_4623" data-name="路径 4623" class="cls-9" d="M16.638,267a.871.871,0,0,0-.938.9.889.889,0,0,0,.938.9.905.905,0,1,0,0-1.809Z" transform="translate(-10.46 -267)"/>
        <path id="路径_4624" data-name="路径 4624" class="cls-9" d="M28.916,275.5a5.49,5.49,0,0,0-2.479.77H26.37a.519.519,0,0,0-.268.368.637.637,0,0,0,.033.435.519.519,0,0,0,.368.268.736.736,0,0,0,.469-.034,3.878,3.878,0,0,1,1.775-.569,1.241,1.241,0,0,1,.938.335,1.854,1.854,0,0,1,.435,1.306c-3.149.368-4.522,1.239-4.522,2.881a2.111,2.111,0,0,0,2.278,2.211,3.624,3.624,0,0,0,2.345-.938l.033.167a.653.653,0,0,0,.636.6.6.6,0,0,0,.6-.6v-4.087a3.208,3.208,0,0,0-.737-2.445A2.43,2.43,0,0,0,28.916,275.5Zm1.239,3.986v1.876a2.853,2.853,0,0,1-1.909.9,1.026,1.026,0,0,1-1.172-1.072C27.04,280.29,28.012,279.754,30.156,279.486Z" transform="translate(-17.043 -272.653)"/>
        <path id="路径_4625" data-name="路径 4625" class="cls-9" d="M17.1,276.1a.731.731,0,0,0-.7.7V283a.7.7,0,1,0,1.407,0V276.77A.751.751,0,0,0,17.1,276.1Z" transform="translate(-10.925 -273.052)"/>
        <path id="路径_4626" data-name="路径 4626" class="cls-9" d="M3.086,276.434a.667.667,0,0,0-.536-.234.731.731,0,0,0-.7.7v7.7c0,1.072-.268,1.306-.737,1.306a.425.425,0,0,1-.2-.033c-.033,0-.1-.034-.134-.034a.67.67,0,0,0-.435.067.553.553,0,0,0-.268.335.648.648,0,0,0,.435.77,2.952,2.952,0,0,0,.7.1c1.34,0,2.043-.871,2.043-2.512v-7.671A.658.658,0,0,0,3.086,276.434Z" transform="translate(-0.057 -273.118)"/>
        <path id="路径_4627" data-name="路径 4627" class="cls-9" d="M5.738,267a.871.871,0,0,0-.938.9.909.909,0,0,0,.938.9.909.909,0,0,0,.938-.9A.871.871,0,0,0,5.738,267Z" transform="translate(-3.211 -267)"/>
        <path id="路径_4628" data-name="路径 4628" class="cls-9" d="M122.484,275.5c-1.675,0-3.484,1.273-3.484,4.02,0,1.976,1.206,3.953,3.484,3.953A3.7,3.7,0,0,0,126,279.52C126,277.577,124.762,275.5,122.484,275.5Zm2.043,4.053c0,1.608-.837,2.713-2.043,2.713-1.239,0-2.043-1.105-2.043-2.713,0-1.641.837-2.747,2.043-2.747S124.527,277.912,124.527,279.553Z" transform="translate(-79.297 -272.653)"/>
        <path id="路径_4629" data-name="路径 4629" class="cls-9" d="M215.437,294.6a.731.731,0,0,0-.737.77.722.722,0,0,0,.737.737.7.7,0,0,0,.737-.737.618.618,0,0,0-.167-.536A.69.69,0,0,0,215.437,294.6Z" transform="translate(-143.038 -285.354)"/>
        <path id="路径_4630" data-name="路径 4630" class="cls-9" d="M195.284,275.5a3.491,3.491,0,0,0-2.311,1.072v-.234a.666.666,0,0,0-.636-.67.644.644,0,0,0-.636.67v6.231a.7.7,0,1,0,1.407,0v-4.69a2.567,2.567,0,0,1,1.909-1.105c.9,0,1.273.569,1.273,1.842v3.953a.708.708,0,0,0,.7.7.731.731,0,0,0,.7-.7v-4.087C197.7,276.538,196.859,275.5,195.284,275.5Z" transform="translate(-127.728 -272.653)"/>
        <path id="路径_4631" data-name="路径 4631" class="cls-9" d="M228.494,281.764a.67.67,0,0,0-.435.067,3.069,3.069,0,0,1-1.407.5c-1.306,0-2.177-1.105-2.177-2.713s.9-2.747,2.177-2.747a2.553,2.553,0,0,1,1.172.4.588.588,0,0,0,.8-.2.508.508,0,0,0,.1-.435.667.667,0,0,0-.268-.4,3.223,3.223,0,0,0-1.842-.636A3.669,3.669,0,0,0,223,279.62c0,2.378,1.44,3.953,3.551,3.953a3.907,3.907,0,0,0,2.043-.737.519.519,0,0,0,.268-.368.653.653,0,0,0-.034-.435A.472.472,0,0,0,228.494,281.764Z" transform="translate(-148.579 -272.719)"/>
        <path id="路径_4632" data-name="路径 4632" class="cls-9" d="M277.139,275.5a3.442,3.442,0,0,0-2.378,1.273,2.013,2.013,0,0,0-2.077-1.273,3.059,3.059,0,0,0-2.177,1.105l-.1-.9H269.2v6.934a.7.7,0,1,0,1.407,0v-4.723a2.605,2.605,0,0,1,1.708-1.105c.871,0,1.239.569,1.239,1.842V282.6a.7.7,0,0,0,1.407,0v-4.69a2.671,2.671,0,0,1,1.742-1.105c.871,0,1.239.569,1.239,1.842V282.6a.708.708,0,0,0,.7.7.731.731,0,0,0,.7-.7v-4.087C279.518,276.538,278.714,275.5,277.139,275.5Z" transform="translate(-179.372 -272.653)"/>
        <path id="路径_4633" data-name="路径 4633" class="cls-9" d="M246.984,275.5c-1.675,0-3.484,1.273-3.484,4.02,0,1.976,1.206,3.953,3.484,3.953a3.7,3.7,0,0,0,3.517-3.953C250.5,277.543,249.262,275.5,246.984,275.5Zm2.077,4.053c0,1.608-.837,2.713-2.043,2.713-1.239,0-2.043-1.105-2.043-2.713,0-1.641.837-2.747,2.043-2.747C248.19,276.806,249.061,277.912,249.061,279.553Z" transform="translate(-162.281 -272.653)"/>
        <path id="路径_4634" data-name="路径 4634" class="cls-9" d="M53.384,275.5a3.284,3.284,0,0,0-2.311,1.072v-.234a.666.666,0,0,0-.636-.67.644.644,0,0,0-.636.67v6.231a.7.7,0,1,0,1.407,0v-4.69a2.567,2.567,0,0,1,1.909-1.105c.9,0,1.273.569,1.273,1.842v3.953a.708.708,0,0,0,.7.7.731.731,0,0,0,.7-.7v-4.087C55.763,276.538,54.925,275.5,53.384,275.5Z" transform="translate(-33.195 -272.653)"/>
        <path id="路径_4635" data-name="路径 4635" class="cls-9" d="M101.9,276.334a.712.712,0,0,0-1.239.469v4.623c-.7.837-1.206,1.172-1.876,1.172-.938,0-1.273-.536-1.273-1.842V276.8a.7.7,0,0,0-1.407,0v4.087c0,2.01.77,3.015,2.378,3.015a2.925,2.925,0,0,0,2.278-1.105v.268a.666.666,0,0,0,.636.67.644.644,0,0,0,.636-.67v-6.231A.872.872,0,0,0,101.9,276.334Z" transform="translate(-64.04 -273.052)"/>
        <path id="路径_4636" data-name="路径 4636" class="cls-9" d="M172.8,276.334a.712.712,0,0,0-1.239.469v4.623c-.7.837-1.206,1.172-1.876,1.172-.938,0-1.273-.536-1.273-1.842V276.8a.7.7,0,1,0-1.407,0v4.087c0,2.01.77,3.015,2.378,3.015a2.925,2.925,0,0,0,2.278-1.105v.268a.666.666,0,0,0,.636.67.644.644,0,0,0,.636-.67v-6.231A.561.561,0,0,0,172.8,276.334Z" transform="translate(-111.272 -273.052)"/>
        <path id="路径_4637" data-name="路径 4637" class="cls-9" d="M76.488,282.266H75.014c-1,0-1.105-.368-1.105-.67a1.087,1.087,0,0,1,.335-.737,2.482,2.482,0,0,0,1.072.234,2.658,2.658,0,0,0,2.78-2.713,2.7,2.7,0,0,0-.435-1.44h.77a.569.569,0,0,0,0-1.139H76.387a2.859,2.859,0,0,0-1.038-.2,2.729,2.729,0,0,0-2.847,2.78,2.634,2.634,0,0,0,.9,1.976,1.982,1.982,0,0,0-.77,1.373,1.448,1.448,0,0,0,.569,1.206,2.228,2.228,0,0,0-1,1.708c0,1.34,1.172,2.11,3.149,2.11,2.177,0,3.785-1.139,3.785-2.646a1.649,1.649,0,0,0-.435-1.239A3.175,3.175,0,0,0,76.488,282.266Zm1.273,2.043c0,.67-.837,1.407-2.211,1.407-1.239,0-2.01-.435-2.01-1.172a1.488,1.488,0,0,1,.67-1.139,4.627,4.627,0,0,0,.871.1h1.34C77.359,283.506,77.761,283.74,77.761,284.31Zm-3.886-5.963a1.453,1.453,0,1,1,2.881,0,1.557,1.557,0,0,1-1.44,1.675A1.537,1.537,0,0,1,73.875,278.347Z" transform="translate(-48.119 -272.719)"/>
        <path id="路径_4638" data-name="路径 4638" class="cls-9" d="M150.329,276.431h0a.6.6,0,0,0-.536.067.866.866,0,0,0-.368.469l-1.206,3.651c-.067.234-.134.435-.2.7-.067.2-.1.368-.167.569l-.134.435c-.034-.1-.067-.168-.1-.268a2.947,2.947,0,0,1-.167-.5l-.1-.3-.2-.6-1.373-3.718a.678.678,0,0,0-.837-.435c-.067,0-.067,0-.1.034a.653.653,0,0,0-.335.335.571.571,0,0,0,0,.469l2.579,6.532-.167.5c-.134.469-.6,1.507-1.541,1.507a.364.364,0,0,1-.167-.034h-.033a.483.483,0,0,0-.435.1.454.454,0,0,0-.234.368.66.66,0,0,0,.1.5.745.745,0,0,0,.435.268,1.374,1.374,0,0,0,.368.034c1.273,0,2.177-.837,2.814-2.613l2.579-7.169V277.3h0l.033-.034v-.033A.718.718,0,0,0,150.329,276.431Z" transform="translate(-96.251 -273.248)"/>
        <path id="路径_4639" data-name="路径 4639" class="cls-9" d="M130.883,269.888c.067-.034.1-.034.167-.067l.067-.034a.511.511,0,0,0,.436-.6.621.621,0,0,0-.234-.4.48.48,0,0,0-.368-.1,3.411,3.411,0,0,0-1.206.5,3.659,3.659,0,0,0-.569-.168,4.9,4.9,0,0,0-1.608-.033.8.8,0,0,0-.368.2.421.421,0,0,0-.067.435.637.637,0,0,0,.234.368.577.577,0,0,0,.4.067h0a3.072,3.072,0,0,1,3.149,1.44.535.535,0,0,0,.469.268.788.788,0,0,0,.268-.067.532.532,0,0,0,.268-.335.577.577,0,0,0-.067-.4A5.744,5.744,0,0,0,130.883,269.888Z" transform="translate(-84.687 -268.113)"/>
      </g>
    </g>
  </g>
</svg>
