<svg id="图层_1" data-name="图层 1" xmlns="http://www.w3.org/2000/svg" viewBox="0 0 1024 1024"><title>eps</title><path d="M186.9,64c-18.4,0-33.4,14.7-33.4,32.6V927.4c0,17.9,15,32.6,33.4,32.6H837.1c18.4,0,33.4-14.7,33.4-32.6V259.5L669.9,64Zm0,0" style="fill:#ff860d"/><path d="M669.9,64V226.9c0,17.9,15,32.6,33.4,32.6H870.5Zm0,0" style="fill:#ffba9f"/><path d="M668.5,467.7A167,167,0,0,0,598.3,378l103.8-.3V352.8l-140.9.4c-6-22.4-26.7-38.2-50.6-38.2s-44.8,16-50.7,38.5l-140.9.4v24.9l103-.3A167.1,167.1,0,0,0,352.4,468c-26.3,2.9-46.4,24.7-46.4,50.9,0,28.3,23.5,51.3,52.4,51.3s52.4-23,52.4-51.3c0-21-13.4-40-33.1-47.7a141.9,141.9,0,0,1,84.6-85,52.8,52.8,0,0,0,96.5,0,141.8,141.8,0,0,1,85.1,86.1,51.4,51.4,0,0,0-30.5,46.6c0,28.3,23.5,51.3,52.4,51.3s52.4-23,52.4-51.3S696.3,469.4,668.5,467.7Zm-2.9,77.6c-15.1,0-27.4-11.8-27.4-26.4A26.4,26.4,0,0,1,655,494.6a28.2,28.2,0,0,1,10.6-2.1l3.1.2c13.9,1.5,24.4,12.8,24.4,26.2S680.8,545.3,665.7,545.3ZM483.9,372.7a25.3,25.3,0,0,1-.9-6.4,25.6,25.6,0,0,1,.5-5c.1-.7.3-1.4.5-2.1,3.3-11.3,14.2-19.3,26.4-19.3s23,7.9,26.4,19.1c.2.7.4,1.5.6,2.2a24.5,24.5,0,0,1-.3,11.3c-.2.8-.4,1.6-.7,2.3a27.8,27.8,0,0,1-51.8,0C484.3,374.2,484.1,373.5,483.9,372.7ZM358.3,545.3c-15.1,0-27.4-11.8-27.4-26.4,0-12.4,9.1-23.2,21.7-25.8a28.9,28.9,0,0,1,5.7-.6,28.3,28.3,0,0,1,8.2,1.2c11.5,3.5,19.3,13.6,19.3,25.2C385.8,533.5,373.5,545.3,358.3,545.3Z" style="fill:#fff"/><polygon points="351.6 772.9 430.5 772.9 430.5 750.1 351.6 750.1 351.6 712 435.4 712 435.4 689.9 326.7 689.9 326.7 837.3 439.5 837.3 439.5 815.9 351.6 815.9 351.6 772.9" style="fill:#fff"/><path d="M519.6,689.9h-64V837.3h24.2V781.2h38.5c42.5-.6,51.9-25.3,52.2-46.5C567.4,706.5,550.3,691.4,519.6,689.9Zm-39.8,68.5V712.7h35.6c25.4.5,29.1,12.8,29.5,21.7s-3.6,23.5-29.5,24Z" style="fill:#fff"/><path d="M639.6,749.5c-14.7-3.1-32.2-9.2-31.8-20.3.5-8,4.1-18.8,29.5-19.3,16.3,0,26.4,8.4,31,25.7l1.2,4.5,25.1-7.3-.9-4.1c-6-27.6-25.4-41.6-57.9-41.6h0c-33,1.5-50.7,15.5-52.7,41.4-2.1,22,15.9,36.9,53.5,44.3,25.2,5,37,12.5,35.2,23.1s-4.2,21.5-31,22.1H638c-21.5,0-32.9-9.8-35.7-30.8l-.7-5.4-24.8,8.6.7,3.8c5.8,30,26.3,45.2,60.8,45.2h3.3c34.3-1.5,53-15.7,55.5-42.2C699.2,772.9,679.8,756.9,639.6,749.5Z" style="fill:#fff"/></svg>