<svg id="图层_1" data-name="图层 1" xmlns="http://www.w3.org/2000/svg" viewBox="0 0 1024 1024"><title>excel</title><path d="M186.9,64c-18.4,0-33.4,14.7-33.4,32.6V927.4c0,17.9,15,32.6,33.4,32.6H837.1c18.4,0,33.4-14.7,33.4-32.6V259.5L669.9,64Zm0,0" style="fill:#1e6d42"/><path d="M186.9,958.2c-17.4,0-31.6-13.8-31.6-30.8V96.6c0-17,14.2-30.8,31.6-30.8H669.2L868.7,260.2V927.4c0,17-14.2,30.8-31.6,30.8Z" style="fill:#1e6d42"/><path d="M669.9,64V226.9c0,17.9,15,32.6,33.4,32.6H870.5Zm0,0" style="fill:#a9db97"/><path d="M703.3,257.7c-17.4,0-31.6-13.8-31.6-30.8V68.2L866.1,257.7Z" style="fill:#a9db97"/><path d="M586.6,667l-46.2-66.1-14.8-22L511,557.1l-.5-.8h-3.9l-.5.9c-10.1,16.4-18.8,30.3-27.5,43.8l-44.8,66H379.1L479.4,530,385.3,401.8H443l42.4,62c6.5,9.2,12.4,18.3,19.4,28.9l8.1,12.4h4.4l2.9-5.1c7.9-13.9,14.2-25,21.6-36.2l41.4-62h54.3L543.4,532.2,644.3,667Z" style="fill:#fff"/></svg>