<svg xmlns="http://www.w3.org/2000/svg" viewBox="0 0 1024 1024"><title>iso</title><g style="isolation:isolate"><g id="图层_1" data-name="图层 1"><path d="M186.9,64c-18.4,0-33.4,14.7-33.4,32.6V927.4c0,17.9,15,32.6,33.4,32.6H837.1c18.4,0,33.4-14.7,33.4-32.6V259.5L669.9,64Z" style="fill:#061e26"/><path d="M669.9,64V226.9c0,17.9,15,32.6,33.4,32.6H870.5Zm0,0" style="fill:#446166"/><path d="M494.8,447.5A17.2,17.2,0,1,1,512,464.7a17.2,17.2,0,0,1-17.2-17.2ZM512,402.9a44.6,44.6,0,1,0,44.6,44.6A44.6,44.6,0,0,0,512,402.9ZM350.7,447.5A161.3,161.3,0,1,0,512,286.2,161.3,161.3,0,0,0,350.7,447.5ZM512,375.4a72.1,72.1,0,1,1-72.1,72.1A72.1,72.1,0,0,1,512,375.4Zm0,0" style="fill:#e3ecff"/><g style="mix-blend-mode:multiply"><path d="M551.7,466.3l-24.8-11.8a17.2,17.2,0,0,1-8.7,8.4L529,488.1A44.7,44.7,0,0,0,551.7,466.3Z" style="fill:#c3cddd"/><path d="M657,516.4l-80.5-38.3a72.2,72.2,0,0,1-36.6,35.3l35.2,82A161.7,161.7,0,0,0,657,516.4Z" style="fill:#c3cddd"/></g><path d="M369.3,691.8h21.8V830.1H369.3Z" style="fill:#e3ecff"/><path d="M417.6,812.3l12.8-15c10,10,23.5,16.3,36.8,16.3,16.7,0,26.1-7.9,26.1-19.5s-9.4-16.5-22.2-22.2L452,763.6c-13.3-5.6-28.2-16.2-28.2-36.3,0-21.8,19.2-38.1,45.5-38.1a59.2,59.2,0,0,1,41.9,17.5l-11.5,13.9c-8.6-7.7-18.2-12.4-30.4-12.4-14.1,0-23.3,6.8-23.3,17.9s11.1,16.4,22.4,20.9l19,8.1c16.4,6.9,28.2,17.1,28.2,37.4,0,22.2-18.4,40.2-48.7,40.2A69,69,0,0,1,417.6,812.3Z" style="fill:#e3ecff"/><path d="M534.2,760.4c0-44.5,24.6-71.2,60.1-71.2s60.3,26.7,60.3,71.2-24.8,72.1-60.3,72.1S534.2,804.9,534.2,760.4Zm98.1,0c0-32.5-15-52.2-38-52.2s-37.8,19.7-37.8,52.2,14.8,53.2,37.8,53.2S632.3,792.9,632.3,760.4Z" style="fill:#e3ecff"/></g></g></svg>