<svg id="图层_1" data-name="图层 1" xmlns="http://www.w3.org/2000/svg" viewBox="0 0 1024 1024"><title>md</title><path d="M186.9,64c-18.4,0-33.4,14.7-33.4,32.6V927.4c0,17.9,15,32.6,33.4,32.6H837.1c18.4,0,33.4-14.7,33.4-32.6V259.5L669.9,64Z" style="fill:#6089c6"/><path d="M669.9,64V226.9c0,17.9,15,32.6,33.4,32.6H870.5Z" style="fill:#93b8e5"/><path d="M377.9,681.7h25.9l26.3,72.5c3.3,9.5,6.2,19.3,9.6,29h1c3.3-9.7,6-19.5,9.4-29l25.9-72.5H502V825.1H481V754.2c0-12.9,1.8-31.4,2.9-44.4h-.8l-11.5,33.1-24.9,68.4h-14l-25.1-68.4-11.3-33.1h-.8c1,13.1,2.7,31.6,2.7,44.4v70.9H377.9Z" style="fill:#fff"/><path d="M539.7,681.7h37.2c44,0,69.2,24.3,69.2,71.1s-25.1,72.3-68,72.3H539.7Zm35.7,124.9c30.8,0,47.3-18.1,47.3-53.8S606.1,700,575.3,700H562.3V806.5Z" style="fill:#fff"/><rect x="494.1" y="350.7" width="219.6" height="26.88" style="fill:#fff"/><rect x="494.1" y="440.3" width="219.6" height="26.88" style="fill:#fff"/><rect x="310.3" y="529.9" width="403.3" height="26.88" style="fill:#fff"/><path d="M360.6,415.5l-40.1-40.1a3.4,3.4,0,0,0-5.8,2.4V458a3.4,3.4,0,0,0,5.8,2.4l40.1-40.1A3.4,3.4,0,0,0,360.6,415.5Z" style="fill:#fff"/><path d="M422.1,350.7H342a3.4,3.4,0,0,0-2.4,5.8l40.1,40.1a3.4,3.4,0,0,0,4.8,0l40.1-40.1A3.4,3.4,0,0,0,422.1,350.7Z" style="fill:#fff"/><path d="M403.4,420.3l40.1,40.1a3.4,3.4,0,0,0,5.8-2.4V377.9a3.4,3.4,0,0,0-5.8-2.4l-40.1,40.1A3.4,3.4,0,0,0,403.4,420.3Z" style="fill:#fff"/><path d="M424.5,479.4l-40.1-40.1a3.4,3.4,0,0,0-4.8,0l-40.1,40.1a3.4,3.4,0,0,0,2.4,5.8h80.1A3.4,3.4,0,0,0,424.5,479.4Z" style="fill:#fff"/></svg>