<svg xmlns="http://www.w3.org/2000/svg" width="20" height="20" viewBox="0 0 20 20"><defs><style>.a{fill:#9f9f9f;}</style></defs><g transform="translate(0 -1.143)"><path class="a" d="M1.9,16.643a.894.894,0,0,1-1,.8c-.5-.1-.9-.4-.9-.9V2.743a1.579,1.579,0,0,1,1.6-1.6h3a1.6,1.6,0,0,1,1.1.5l1.2,1.1a.6.6,0,0,0,.6.3H18.177a.9.9,0,0,1,0,1.8H6.891a1.6,1.6,0,0,1-1.1-.5l-1.1-1.1a1.442,1.442,0,0,0-.7-.2H1.9v4.7a2.266,2.266,0,0,1,1.6-.6H17.977a2.031,2.031,0,0,1,1.5.6,1.846,1.846,0,0,1,.5,1.6c-.9,5.7-1.4,9.8-1.4,9.8a2.373,2.373,0,0,1-2.4,2H2.2a.9.9,0,0,1,0-1.8H16.179a.472.472,0,0,0,.5-.5l1.4-9.7c0-.1,0-.2-.1-.2H3.5a.633.633,0,0,0-.6.5l-1,7.1h0Z" transform="translate(0 0)"/></g></svg>