<svg id="图层_1" data-name="图层 1" xmlns="http://www.w3.org/2000/svg" viewBox="0 0 1024 1024"><title>ppt</title><path d="M186.9,64c-18.4,0-33.4,14.7-33.4,32.6V927.4c0,17.9,15,32.6,33.4,32.6H837.1c18.4,0,33.4-14.7,33.4-32.6V259.5L669.9,64Zm0,0" style="fill:#d14822"/><path d="M669.9,64V226.9c0,17.9,15,32.6,33.4,32.6H870.5Zm0,0" style="fill:#ffa380"/><path d="M514.8,393.7H431.6V666.1h46V564.2h38.8c65.4,0,103-31.9,103-87.6S584.2,393.7,514.8,393.7Zm-37.3,37.6h33.3c44.9,0,63.2,13.1,63.2,45.3,0,34.2-19.6,50.1-61.8,50.1H477.6Z" style="fill:#fff"/></svg>