<?xml version="1.0" encoding="utf-8"?>
<!-- Generator: Adobe Illustrator 24.0.0, SVG Export Plug-In . SVG Version: 6.00 Build 0)  -->
<svg version="1.1" id="图层_1" xmlns="http://www.w3.org/2000/svg" xmlns:xlink="http://www.w3.org/1999/xlink" x="0px" y="0px"
	 viewBox="0 0 20 20" style="enable-background:new 0 0 20 20;" xml:space="preserve">
<style type="text/css">
	.st0{fill:#9F9F9F;}
</style>
<title>sidebar_show_hide</title>
<g id="sidebar_show_hide">
	<path id="联合_7" class="st0" d="M1,19c-0.6,0-1-0.4-1-1c0-0.6,0.4-1,1-1h18c0.6,0,1,0.4,1,1c0,0.6-0.4,1-1,1H1z M1,11
		c-0.6,0-1-0.4-1-1c0-0.6,0.4-1,1-1h14c0.6,0,1,0.4,1,1c0,0.6-0.4,1-1,1H1z M1,3C0.4,3,0,2.6,0,2s0.4-1,1-1h18c0.6,0,1,0.4,1,1
		s-0.4,1-1,1H1z"/>
</g>
</svg>
