<svg id="图层_1" data-name="图层 1" xmlns="http://www.w3.org/2000/svg" viewBox="0 0 1024 1024"><title>tiff</title><path d="M186.9,64c-18.4,0-33.4,14.7-33.4,32.6V927.4c0,17.9,15,32.6,33.4,32.6H837.1c18.4,0,33.4-14.7,33.4-32.6V259.5L669.9,64Zm0,0" style="fill:#74c6ff"/><path d="M669.9,64V226.9c0,17.9,15,32.6,33.4,32.6H870.5Zm0,0" style="fill:#d4f7ff"/><path d="M364.7,709.9H323.8V691.5h104v18.4H386.7v121h-22Z" style="fill:#fff"/><path d="M451.9,691.5h22V830.9h-22Z" style="fill:#fff"/><path d="M510.4,691.5H593v18.4H532.4v42.6h51.5v18.4H532.4v60h-22Z" style="fill:#fff"/><path d="M617.6,691.5h82.6v18.4H639.6v42.6h51.5v18.4H639.6v60h-22Z" style="fill:#fff"/><ellipse cx="407.9" cy="370.8" rx="34.4" ry="34.3" style="fill:#fff"/><path d="M543.2,380.8,462.3,500.5a13.7,13.7,0,0,1-22.8,0l-19.8-29.3a13.7,13.7,0,0,0-22.8,0L326.2,576.1a13.7,13.7,0,0,0,11.4,21.4H686.4a13.7,13.7,0,0,0,11.4-21.4L565.9,380.8A13.7,13.7,0,0,0,543.2,380.8Z" style="fill:#fff"/></svg>