<svg xmlns="http://www.w3.org/2000/svg" xmlns:xlink="http://www.w3.org/1999/xlink" width="64" height="64" viewBox="0 0 64 64"><defs><style>.a,.f{fill:#fff;}.a{stroke:#707070;}.b{clip-path:url(#a);}.c{fill:#ffe28b;}.d{fill:#ffc652;}.e{fill:#ff9902;stroke:#fff;stroke-width:0.2px;}.g{fill:rgba(255,255,255,0);}</style><clipPath id="a"><rect class="a" width="64" height="64" transform="translate(679 15)"/></clipPath></defs><g transform="translate(-679 -15)"><g class="b"><g transform="translate(679 15)"><g transform="translate(3.2 3.2)"><path class="c" d="M2.14,2.6A2.121,2.121,0,0,0,0,4.7V58.1a2.121,2.121,0,0,0,2.14,2.1H43.68a2.121,2.121,0,0,0,2.14-2.1V15.16L33,2.6Z"/><path class="d" d="M33.08,2.6V13.06a2.139,2.139,0,0,0,2.16,2.1H46Z"/><rect class="d" width="10.08" height="1.72" transform="translate(10.08 19.7)"/><rect class="d" width="25.28" height="1.72" transform="translate(10.08 25.22)"/><rect class="d" width="25.28" height="1.72" transform="translate(10.08 30.92)"/><rect class="d" width="25.28" height="1.72" transform="translate(10.08 36.62)"/><rect class="d" width="25.28" height="1.52" transform="translate(10.08 42.34)"/><g transform="translate(33.6 33.8)"><path class="e" d="M12,2.5A12.1,12.1,0,1,1-.1,14.6,12.1,12.1,0,0,1,12,2.5Z"/><g transform="translate(10.4 6.2)"><path class="f" d="M1.6,14.32a1,1,0,1,1,1-1A1,1,0,0,1,1.6,14.32Z"/><path class="f" d="M2.4,10.74a.8.8,0,0,1-1.6,0L0,4.22A1.609,1.609,0,0,1,1.6,2.6,1.609,1.609,0,0,1,3.2,4.22l-.8,6.52Z"/></g></g></g><rect class="g" width="64" height="64"/></g></g></g></svg>